M48
; DRILL file {KiCad (5.1.8-0-10_14)} date Saturday, March 27, 2021 at 01:16:14 PM
; FORMAT={-:-/ absolute / inch / decimal}
; #@! TF.CreationDate,2021-03-27T13:16:14-04:00
; #@! TF.GenerationSoftware,Kicad,Pcbnew,(5.1.8-0-10_14)
; #@! TF.FileFunction,Plated,1,2,PTH
FMAT,2
INCH
T1C0.0157
T2C0.0276
T3C0.0315
T4C0.0354
T5C0.0394
T6C0.0402
T7C0.0512
T8C0.0591
T9C0.0701
T10C0.0709
%
G90
G05
T1
X0.7869Y-5.384
X0.7869Y-5.5415
X0.8814Y-5.447
X0.8814Y-5.6045
X0.9759Y-5.51
X1.0389Y-5.6045
X1.1649Y-5.5415
X1.2279Y-5.384
X1.2594Y-5.6045
X1.2908Y-5.4785
X1.3853Y-1.447
X1.3853Y-1.9194
X1.3853Y-2.0769
X1.3853Y-2.2344
X1.3853Y-2.3919
X1.3853Y-2.7383
X1.3853Y-2.8958
X1.3853Y-3.1163
X1.3853Y-3.7147
X1.3853Y-3.8722
X1.3853Y-4.0297
X1.3853Y-4.5336
X1.3853Y-4.6911
X1.3853Y-4.8486
X1.3853Y-5.1635
X1.3853Y-5.3525
X1.4483Y-1.699
X1.4483Y-3.3683
X1.4483Y-4.1872
X1.4798Y-1.51
X1.4798Y-2.1399
X1.4798Y-2.2974
X1.4798Y-2.5494
X1.4798Y-3.7777
X1.4798Y-3.9352
X1.4798Y-4.5966
X1.4798Y-4.7541
X1.4798Y-4.9746
X1.4798Y-5.6045
X1.5113Y-2.9903
X1.5113Y-3.1478
X1.5428Y-1.6045
X1.5428Y-4.0927
X1.5428Y-5.3525
X1.5428Y-5.51
X1.5743Y-1.888
X1.5743Y-2.0454
X1.5743Y-2.2029
X1.5743Y-2.3604
X1.5743Y-2.7069
X1.5743Y-4.8801
X1.5743Y-5.0376
X1.5743Y-5.195
X1.6058Y-1.7305
X1.6058Y-2.4864
X1.6373Y-2.6124
X1.6373Y-3.3053
X1.6373Y-3.4628
X1.6373Y-3.6202
X1.6373Y-3.7777
X1.6373Y-3.9352
X1.6373Y-4.1557
X1.6373Y-4.3131
X1.6373Y-4.4706
X1.6373Y-4.6281
X1.6373Y-4.7856
X1.6373Y-5.4155
X1.6373Y-5.573
X1.6688Y-1.9824
X1.6688Y-2.1399
X1.6688Y-2.2974
X1.6688Y-4.9431
X1.6688Y-5.1006
X1.7003Y-1.7935
X1.7003Y-2.8958
X1.7003Y-3.1163
X1.7003Y-4.0297
X1.7318Y-3.8407
X1.7318Y-4.3761
X1.7318Y-4.5336
X1.7318Y-4.6911
X1.7318Y-4.8486
X1.7633Y-1.888
X1.7633Y-5.447
X1.7633Y-5.6045
X1.7948Y-2.0139
X1.7948Y-3.3368
X1.7948Y-3.4943
X1.7948Y-3.6517
X1.7948Y-3.9667
X1.8155Y-3.825
X1.8263Y-1.7305
X1.8263Y-4.3131
X1.8263Y-4.5966
X1.8263Y-4.7541
X1.8263Y-5.0376
X1.8455Y-3.875
X1.8578Y-5.1635
X1.8578Y-5.321
X1.875Y-2.255
X1.875Y-2.495
X1.875Y-2.675
X1.875Y-3.315
X1.885Y-2.765
X1.885Y-2.945
X1.8893Y-1.825
X1.8893Y-2.0769
X1.8893Y-4.8486
X1.895Y-2.885
X1.905Y-3.795
X1.915Y-2.365
X1.9208Y-3.4313
X1.9208Y-3.5887
X1.9208Y-3.9982
X1.9208Y-4.1557
X1.9208Y-4.5336
X1.9208Y-4.9746
X1.9294Y-2.305
X1.935Y-3.306
X1.9523Y-4.2817
X1.9523Y-5.1006
X1.9535Y-3.025
X1.955Y-2.635
X1.955Y-2.755
X1.9564Y-2.9266
X1.9719Y-3.3281
X1.9813Y-2.9072
X1.9838Y-5.2895
X1.985Y-3.025
X1.9861Y-2.7503
X1.9872Y-2.6394
X2.0153Y-1.8565
X2.0153Y-2.0139
X2.0153Y-3.4943
X2.0153Y-3.6517
X2.0153Y-4.0612
X2.0153Y-4.8171
X2.025Y-2.6394
X2.0261Y-2.7503
X2.0468Y-2.1399
X2.0468Y-3.7777
X2.0468Y-4.1872
X2.0468Y-4.9431
X2.0468Y-5.1635
X2.0565Y-2.6394
X2.0572Y-2.7554
X2.0782Y-1.762
X2.0782Y-3.0533
X2.0782Y-4.3131
X2.1097Y-1.9194
X2.1097Y-2.5179
X2.1097Y-4.5336
X2.1097Y-4.7226
X2.1097Y-5.0376
X2.1412Y-2.0454
X2.1412Y-3.2738
X2.1412Y-3.9667
X2.1412Y-4.4076
X2.1412Y-4.8486
X2.1412Y-5.447
X2.1412Y-5.6045
X2.1727Y-1.825
X2.1727Y-2.6124
X2.1727Y-4.6281
X2.1727Y-5.132
X2.185Y-3.735
X2.2042Y-2.1399
X2.2042Y-2.4549
X2.2042Y-2.7698
X2.2042Y-3.0848
X2.2357Y-1.7305
X2.2357Y-3.3368
X2.2357Y-3.4943
X2.2357Y-5.51
X2.2672Y-4.1242
X2.2672Y-5.0691
X2.2672Y-5.3525
X2.2987Y-1.8565
X2.2987Y-2.0454
X2.2987Y-3.7462
X2.2987Y-5.6045
X2.3302Y-3.2738
X2.3302Y-3.4313
X2.3302Y-3.5887
X2.3302Y-5.447
X2.3617Y-1.762
X2.3779Y-2.7418
X2.385Y-2.785
X2.3932Y-1.51
X2.3932Y-3.0533
X2.3932Y-4.1557
X2.3932Y-4.3131
X2.3932Y-4.8171
X2.3932Y-4.9746
X2.3932Y-5.5415
X2.4247Y-1.1006
X2.4247Y-3.3368
X2.4247Y-3.4943
X2.4247Y-3.6517
X2.425Y-2.445
X2.4562Y-1.825
X2.4562Y-4.4076
X2.4562Y-5.0691
X2.485Y-3.065
X2.4877Y-2.2029
X2.4877Y-4.2187
X2.4877Y-4.8801
X2.4877Y-5.447
X2.4877Y-5.6045
X2.5192Y-1.1635
X2.5192Y-3.2738
X2.5192Y-3.4313
X2.5192Y-3.5887
X2.5192Y-5.321
X2.5507Y-2.6439
X2.5507Y-3.7147
X2.5507Y-4.3131
X2.5507Y-4.6281
X2.5507Y-4.7856
X2.5507Y-4.9746
X2.5822Y-1.258
X2.5822Y-2.1084
X2.5822Y-3.0533
X2.5822Y-5.51
X2.6137Y-1.1006
X2.6137Y-1.7305
X2.6137Y-3.3368
X2.6137Y-3.4943
X2.6137Y-5.1635
X2.6137Y-5.384
X2.615Y-4.105
X2.6452Y-1.8565
X2.6452Y-3.6202
X2.6452Y-3.9667
X2.6452Y-4.5336
X2.6452Y-4.7226
X2.6452Y-5.6045
X2.6491Y-4.3391
X2.6767Y-1.195
X2.6767Y-4.8486
X2.6767Y-5.2895
X2.685Y-3.065
X2.7082Y-2.0769
X2.7082Y-3.2738
X2.7082Y-3.4313
X2.7082Y-3.7147
X2.7082Y-4.6281
X2.7082Y-5.447
X2.715Y-2.445
X2.7397Y-2.5179
X2.7397Y-3.5572
X2.7397Y-4.0297
X2.7397Y-5.0376
X2.755Y-2.795
X2.7712Y-1.1006
X2.7712Y-1.762
X2.7712Y-2.2029
X2.7712Y-4.7541
X2.7712Y-4.9116
X2.7712Y-5.3525
X2.7712Y-5.5415
X2.785Y-3.065
X2.8Y-4.1882
X2.8027Y-1.2265
X2.8027Y-3.3368
X2.8027Y-3.6517
X2.8342Y-1.8565
X2.8342Y-2.6754
X2.8342Y-3.4628
X2.8342Y-3.7777
X2.835Y-4.335
X2.845Y-4.185
X2.8656Y-2.1084
X2.8656Y-2.4864
X2.8656Y-4.8171
X2.8656Y-4.9746
X2.8656Y-5.2895
X2.8656Y-5.447
X2.8656Y-5.6045
X2.8659Y-4.2559
X2.875Y-4.115
X2.8891Y-1.7309
X2.895Y-4.235
X2.895Y-3.995
X2.8971Y-3.0533
X2.915Y-1.255
X2.9286Y-2.2029
X2.9286Y-5.0691
X2.9601Y-1.9194
X2.9601Y-2.5494
X2.9601Y-4.8801
X2.9601Y-5.3525
X2.9601Y-5.51
X2.975Y-2.395
X2.985Y-3.065
X2.9916Y-2.0454
X2.9916Y-2.6754
X2.9916Y-3.9667
X2.9916Y-4.1242
X2.9916Y-4.4391
X2.9916Y-4.6281
X3.0231Y-4.7541
X3.0231Y-5.6045
X3.0546Y-2.1399
X3.0546Y-2.4864
X3.0546Y-2.8013
X3.0546Y-4.3131
X3.0546Y-5.0376
X3.0546Y-5.2895
X3.0546Y-5.447
X3.0861Y-1.9824
X3.0861Y-3.0533
X3.0861Y-4.0297
X3.0861Y-4.8486
X3.1176Y-5.5415
X3.1491Y-2.0769
X3.1491Y-2.4234
X3.1491Y-2.6754
X3.1491Y-4.1242
X3.1491Y-5.1006
X3.1491Y-5.3525
X3.1806Y-2.8328
X3.1806Y-3.1163
X3.1806Y-3.9352
X3.2121Y-2.2659
X3.2121Y-2.9903
X3.2121Y-5.447
X3.2121Y-5.6045
X3.215Y-2.555
X3.2436Y-5.0376
X3.2436Y-5.2895
X3.2751Y-3.9982
X3.2751Y-4.8171
X3.295Y-2.065
X3.295Y-2.915
X3.3066Y-4.1242
X3.3066Y-4.2817
X3.3066Y-4.4391
X3.3066Y-4.9431
X3.3381Y-1.9194
X3.3381Y-3.1163
X3.3381Y-5.573
X3.3696Y-3.9352
X3.3696Y-4.5336
X3.3696Y-5.0691
X3.4011Y-2.0139
X3.4011Y-4.0612
X3.4011Y-4.2187
X3.4011Y-4.3761
X3.4011Y-4.7856
X3.4326Y-4.6281
X3.4326Y-4.9116
X3.4326Y-5.1635
X3.4641Y-2.1084
X3.4641Y-2.2659
X3.4641Y-2.4864
X3.4641Y-3.0218
X3.4641Y-3.2108
X3.4641Y-3.3683
X3.4641Y-3.5257
X3.4641Y-3.6832
X3.4641Y-3.8407
X3.4641Y-4.4706
X3.4641Y-5.447
X3.4641Y-5.6045
X3.4956Y-1.9194
X3.4956Y-2.6124
X3.4956Y-4.7226
X3.4956Y-5.0061
X3.5271Y-2.3604
X3.5271Y-2.7383
X3.5271Y-4.5651
X3.5271Y-4.8486
X3.5586Y-2.0454
X3.5586Y-4.0612
X3.5586Y-4.3446
X3.5586Y-5.321
X3.5586Y-5.51
X3.5901Y-2.1714
X3.5901Y-2.5494
X3.5901Y-4.6596
X3.5901Y-4.9431
X3.6216Y-2.2974
X3.6216Y-3.0218
X3.6216Y-3.1793
X3.6216Y-3.3368
X3.6216Y-3.7147
X3.6216Y-3.8722
X3.6216Y-4.1557
X3.6216Y-4.7856
X3.6216Y-5.4155
X3.6216Y-5.6045
X3.6531Y-2.4234
X3.6531Y-3.9982
X3.6845Y-2.0769
X3.6845Y-2.8958
X3.6845Y-4.5336
X3.6845Y-4.8801
X3.716Y-2.2344
X3.716Y-3.7777
X3.716Y-4.7226
X3.716Y-5.3525
X3.7475Y-2.3604
X3.7475Y-2.5179
X3.7475Y-3.9037
X3.7475Y-4.0612
X3.779Y-5.6045
X3.8105Y-5.4155
X3.8735Y-5.51
X3.9365Y-5.6045
X4.031Y-5.5415
X4.1255Y-5.6045
X4.157Y-5.4155
X4.22Y-5.51
X4.283Y-5.384
X4.283Y-5.6045
X4.346Y-5.4785
T2
X2.3058Y-4.1932
X2.3058Y-4.2916
X2.305Y-4.855
X2.305Y-4.9534
X3.3442Y-4.6239
X3.3442Y-4.7223
X3.1828Y-4.1932
X3.1828Y-4.2916
X2.305Y-2.515
X2.305Y-2.6134
X2.465Y-4.625
X2.465Y-4.7234
X2.735Y-4.4243
X2.735Y-4.5227
X1.8605Y-4.4255
X1.8605Y-4.5239
X3.182Y-4.8558
X3.182Y-4.9542
T3
X2.8824Y-4.4243
X2.8824Y-4.5243
X2.8824Y-4.6243
X2.8824Y-4.7243
X3.1824Y-4.4243
X3.1824Y-4.5243
X3.1824Y-4.6243
X3.1824Y-4.7243
X2.1022Y-2.305
X2.2022Y-2.305
X2.3022Y-2.305
X2.4022Y-2.305
X2.5022Y-2.305
X2.6022Y-2.305
X2.7022Y-2.305
X2.8022Y-2.305
X2.9022Y-2.305
X3.0022Y-2.305
X3.1022Y-2.305
X2.845Y-1.955
X3.245Y-1.955
X2.6647Y-4.9456
X3.0647Y-4.9456
X2.095Y-2.425
X2.095Y-2.825
X1.7837Y-4.9452
X2.1837Y-4.9452
X2.0046Y-4.4247
X2.0046Y-4.5247
X2.0046Y-4.6247
X2.0046Y-4.7247
X2.3046Y-4.4247
X2.3046Y-4.5247
X2.3046Y-4.6247
X2.3046Y-4.7247
X1.7998Y-2.1059
X1.7998Y-2.2059
X1.7998Y-2.3059
X1.7998Y-2.4059
X1.7998Y-2.5059
X1.7998Y-2.6059
X1.7998Y-2.7059
X1.7998Y-2.8059
X1.7998Y-2.9059
X1.7998Y-3.0059
X2.6667Y-4.2085
X3.0667Y-4.2085
X3.365Y-2.1187
X3.365Y-2.2187
X3.365Y-2.3187
X3.365Y-2.4187
X3.365Y-2.5187
X3.365Y-2.6187
X3.365Y-2.7187
X3.365Y-2.8187
X3.365Y-2.9187
X3.365Y-3.0187
X1.7841Y-4.2081
X2.1841Y-4.2081
X2.1026Y-2.943
X2.2026Y-2.943
X2.3026Y-2.943
X2.4026Y-2.943
X2.5026Y-2.943
X2.6026Y-2.943
X2.7026Y-2.943
X2.8026Y-2.943
X2.9026Y-2.943
X3.0026Y-2.943
X3.1026Y-2.943
X1.875Y-1.955
X2.275Y-1.955
T4
X2.385Y-1.955
X2.485Y-1.955
X2.635Y-1.955
X2.735Y-1.955
T5
X2.335Y-3.995
X2.435Y-3.995
X1.3891Y-3.0278
X1.3891Y-3.205
X1.645Y-3.0278
X1.645Y-3.205
T6
X1.9355Y-3.1702
X1.9355Y-3.8702
X2.0355Y-3.1702
X2.0355Y-3.8702
X2.1355Y-3.1702
X2.1355Y-3.8702
X2.2355Y-3.1702
X2.2355Y-3.8702
X2.3355Y-3.1702
X2.3355Y-3.8702
X2.4355Y-3.1702
X2.4355Y-3.8702
X2.5355Y-3.1702
X2.5355Y-3.8702
X2.6355Y-3.1702
X2.6355Y-3.8702
X2.7355Y-3.1702
X2.7355Y-3.8702
X2.8355Y-3.1702
X2.8355Y-3.8702
X2.9355Y-3.1702
X2.9355Y-3.8702
X3.0355Y-3.1702
X3.0355Y-3.8702
T7
X2.4918Y-5.1726
X2.787Y-5.1726
X3.043Y-5.1726
X3.3382Y-5.1726
T8
X1.6989Y-5.2309
X1.7481Y-5.3293
X1.7481Y-5.5262
X2.1419Y-5.3293
X2.1419Y-5.5262
X2.1911Y-5.2309
X2.787Y-5.458
X3.3382Y-5.458
T9
X4.1811Y-0.985
X4.1811Y-1.3756
X4.315Y-0.985
X4.315Y-1.3756
X3.8811Y-0.985
X3.8811Y-1.3756
X4.015Y-0.985
X4.015Y-1.3756
X1.1111Y-0.985
X1.1111Y-1.3756
X1.245Y-0.985
X1.245Y-1.3756
X0.8111Y-0.985
X0.8111Y-1.3756
X0.945Y-0.985
X0.945Y-1.3756
T10
X1.2553Y-2.6459
X1.2553Y-2.8113
X1.4719Y-2.6459
X1.4719Y-2.8113
X1.653Y-1.385
X1.653Y-1.6015
X1.8183Y-1.385
X1.8183Y-1.6015
X1.9837Y-1.385
X1.9837Y-1.6015
X2.149Y-1.385
X2.149Y-1.6015
X2.3144Y-1.385
X2.3144Y-1.6015
X2.4797Y-1.385
X2.4797Y-1.6015
X2.6451Y-1.385
X2.6451Y-1.6015
X2.8104Y-1.385
X2.8104Y-1.6015
X2.9758Y-1.385
X2.9758Y-1.6015
X3.1411Y-1.385
X3.1411Y-1.6015
X3.3065Y-1.385
X3.3065Y-1.6015
X3.4719Y-1.385
X3.4719Y-1.6015
X1.2549Y-3.4605
X1.2549Y-3.6259
X1.4715Y-3.4605
X1.4715Y-3.6259
X1.2545Y-4.2743
X1.2545Y-4.4396
X1.4711Y-4.2743
X1.4711Y-4.4396
X1.2537Y-5.0885
X1.2537Y-5.2538
X1.4703Y-5.0885
X1.4703Y-5.2538
X3.6581Y-5.0883
X3.6581Y-5.2537
X3.8747Y-5.0883
X3.8747Y-5.2537
X3.6585Y-4.2741
X3.6585Y-4.4395
X3.8751Y-4.2741
X3.8751Y-4.4395
X3.6574Y-1.8296
X3.6574Y-1.995
X3.8739Y-1.8296
X3.8739Y-1.995
X3.6578Y-3.4604
X3.6578Y-3.6257
X3.8743Y-3.4604
X3.8743Y-3.6257
X3.6578Y-2.645
X3.6578Y-2.8104
X3.8743Y-2.645
X3.8743Y-2.8104
X1.2549Y-1.8314
X1.2549Y-1.9967
X1.4715Y-1.8314
X1.4715Y-1.9967
T0
M30
