%FSLAX45Y45*%
G04 Gerber Fmt 4.5, Leading zero omitted, Abs format (unit mm)*
G04 Created by KiCad (PCBNEW (5.1.8-0-10_14)) date 2021-03-27 13:16:18*
%MOMM*%
%LPD*%
G01*
G04 APERTURE LIST*
%TA.AperFunction,Profile*%
%ADD10C,0.150000*%
%TD*%
%ADD11C,0.200000*%
%ADD12C,0.300000*%
G04 APERTURE END LIST*
D10*
X11137900Y-14414500D02*
X1892300Y-14414500D01*
X11239500Y-2197100D02*
X11239500Y-14312900D01*
X1892300Y-2095500D02*
X11137900Y-2095500D01*
X1790700Y-14312900D02*
X1790700Y-2197100D01*
X1892300Y-14414500D02*
G75*
G02*
X1790700Y-14312900I0J101600D01*
G01*
X11239500Y-14312900D02*
G75*
G02*
X11137900Y-14414500I-101600J0D01*
G01*
X11137900Y-2095500D02*
G75*
G02*
X11239500Y-2197100I0J-101600D01*
G01*
X1790700Y-2197100D02*
G75*
G02*
X1892300Y-2095500I101600J0D01*
G01*
D11*
X1978750Y-13655400D02*
X2018750Y-13695400D01*
X2018750Y-13655400D02*
X1978750Y-13695400D01*
X1978750Y-14055400D02*
X2018750Y-14095400D01*
X2018750Y-14055400D02*
X1978750Y-14095400D01*
X2218750Y-13815400D02*
X2258750Y-13855400D01*
X2258750Y-13815400D02*
X2218750Y-13855400D01*
X2218750Y-14215400D02*
X2258750Y-14255400D01*
X2258750Y-14215400D02*
X2218750Y-14255400D01*
X2458750Y-13975400D02*
X2498750Y-14015400D01*
X2498750Y-13975400D02*
X2458750Y-14015400D01*
X2618750Y-14215400D02*
X2658750Y-14255400D01*
X2658750Y-14215400D02*
X2618750Y-14255400D01*
X2938750Y-14055400D02*
X2978750Y-14095400D01*
X2978750Y-14055400D02*
X2938750Y-14095400D01*
X3098750Y-13655400D02*
X3138750Y-13695400D01*
X3138750Y-13655400D02*
X3098750Y-13695400D01*
X3178750Y-14215400D02*
X3218750Y-14255400D01*
X3218750Y-14215400D02*
X3178750Y-14255400D01*
X3258750Y-13895400D02*
X3298750Y-13935400D01*
X3298750Y-13895400D02*
X3258750Y-13935400D01*
X3498750Y-3655400D02*
X3538750Y-3695400D01*
X3538750Y-3655400D02*
X3498750Y-3695400D01*
X3498750Y-4855400D02*
X3538750Y-4895400D01*
X3538750Y-4855400D02*
X3498750Y-4895400D01*
X3498750Y-5255400D02*
X3538750Y-5295400D01*
X3538750Y-5255400D02*
X3498750Y-5295400D01*
X3498750Y-5655400D02*
X3538750Y-5695400D01*
X3538750Y-5655400D02*
X3498750Y-5695400D01*
X3498750Y-6055400D02*
X3538750Y-6095400D01*
X3538750Y-6055400D02*
X3498750Y-6095400D01*
X3498750Y-6935400D02*
X3538750Y-6975400D01*
X3538750Y-6935400D02*
X3498750Y-6975400D01*
X3498750Y-7335400D02*
X3538750Y-7375400D01*
X3538750Y-7335400D02*
X3498750Y-7375400D01*
X3498750Y-7895400D02*
X3538750Y-7935400D01*
X3538750Y-7895400D02*
X3498750Y-7935400D01*
X3498750Y-9415400D02*
X3538750Y-9455400D01*
X3538750Y-9415400D02*
X3498750Y-9455400D01*
X3498750Y-9815400D02*
X3538750Y-9855400D01*
X3538750Y-9815400D02*
X3498750Y-9855400D01*
X3498750Y-10215400D02*
X3538750Y-10255400D01*
X3538750Y-10215400D02*
X3498750Y-10255400D01*
X3498750Y-11495400D02*
X3538750Y-11535400D01*
X3538750Y-11495400D02*
X3498750Y-11535400D01*
X3498750Y-11895400D02*
X3538750Y-11935400D01*
X3538750Y-11895400D02*
X3498750Y-11935400D01*
X3498750Y-12295400D02*
X3538750Y-12335400D01*
X3538750Y-12295400D02*
X3498750Y-12335400D01*
X3498750Y-13095400D02*
X3538750Y-13135400D01*
X3538750Y-13095400D02*
X3498750Y-13135400D01*
X3498750Y-13575400D02*
X3538750Y-13615400D01*
X3538750Y-13575400D02*
X3498750Y-13615400D01*
X3658750Y-4295400D02*
X3698750Y-4335400D01*
X3698750Y-4295400D02*
X3658750Y-4335400D01*
X3658750Y-8535400D02*
X3698750Y-8575400D01*
X3698750Y-8535400D02*
X3658750Y-8575400D01*
X3658750Y-10615400D02*
X3698750Y-10655400D01*
X3698750Y-10615400D02*
X3658750Y-10655400D01*
X3738750Y-3815400D02*
X3778750Y-3855400D01*
X3778750Y-3815400D02*
X3738750Y-3855400D01*
X3738750Y-5415400D02*
X3778750Y-5455400D01*
X3778750Y-5415400D02*
X3738750Y-5455400D01*
X3738750Y-5815400D02*
X3778750Y-5855400D01*
X3778750Y-5815400D02*
X3738750Y-5855400D01*
X3738750Y-6455400D02*
X3778750Y-6495400D01*
X3778750Y-6455400D02*
X3738750Y-6495400D01*
X3738750Y-9575400D02*
X3778750Y-9615400D01*
X3778750Y-9575400D02*
X3738750Y-9615400D01*
X3738750Y-9975400D02*
X3778750Y-10015400D01*
X3778750Y-9975400D02*
X3738750Y-10015400D01*
X3738750Y-11655400D02*
X3778750Y-11695400D01*
X3778750Y-11655400D02*
X3738750Y-11695400D01*
X3738750Y-12055400D02*
X3778750Y-12095400D01*
X3778750Y-12055400D02*
X3738750Y-12095400D01*
X3738750Y-12615400D02*
X3778750Y-12655400D01*
X3778750Y-12615400D02*
X3738750Y-12655400D01*
X3738750Y-14215400D02*
X3778750Y-14255400D01*
X3778750Y-14215400D02*
X3738750Y-14255400D01*
X3818750Y-7575400D02*
X3858750Y-7615400D01*
X3858750Y-7575400D02*
X3818750Y-7615400D01*
X3818750Y-7975400D02*
X3858750Y-8015400D01*
X3858750Y-7975400D02*
X3818750Y-8015400D01*
X3898750Y-4055400D02*
X3938750Y-4095400D01*
X3938750Y-4055400D02*
X3898750Y-4095400D01*
X3898750Y-10375400D02*
X3938750Y-10415400D01*
X3938750Y-10375400D02*
X3898750Y-10415400D01*
X3898750Y-13575400D02*
X3938750Y-13615400D01*
X3938750Y-13575400D02*
X3898750Y-13615400D01*
X3898750Y-13975400D02*
X3938750Y-14015400D01*
X3938750Y-13975400D02*
X3898750Y-14015400D01*
X3978750Y-4775400D02*
X4018750Y-4815400D01*
X4018750Y-4775400D02*
X3978750Y-4815400D01*
X3978750Y-5175400D02*
X4018750Y-5215400D01*
X4018750Y-5175400D02*
X3978750Y-5215400D01*
X3978750Y-5575400D02*
X4018750Y-5615400D01*
X4018750Y-5575400D02*
X3978750Y-5615400D01*
X3978750Y-5975400D02*
X4018750Y-6015400D01*
X4018750Y-5975400D02*
X3978750Y-6015400D01*
X3978750Y-6855400D02*
X4018750Y-6895400D01*
X4018750Y-6855400D02*
X3978750Y-6895400D01*
X3978750Y-12375400D02*
X4018750Y-12415400D01*
X4018750Y-12375400D02*
X3978750Y-12415400D01*
X3978750Y-12775400D02*
X4018750Y-12815400D01*
X4018750Y-12775400D02*
X3978750Y-12815400D01*
X3978750Y-13175400D02*
X4018750Y-13215400D01*
X4018750Y-13175400D02*
X3978750Y-13215400D01*
X4058750Y-4375400D02*
X4098750Y-4415400D01*
X4098750Y-4375400D02*
X4058750Y-4415400D01*
X4058750Y-6295400D02*
X4098750Y-6335400D01*
X4098750Y-6295400D02*
X4058750Y-6335400D01*
X4138750Y-6615400D02*
X4178750Y-6655400D01*
X4178750Y-6615400D02*
X4138750Y-6655400D01*
X4138750Y-8375400D02*
X4178750Y-8415400D01*
X4178750Y-8375400D02*
X4138750Y-8415400D01*
X4138750Y-8775400D02*
X4178750Y-8815400D01*
X4178750Y-8775400D02*
X4138750Y-8815400D01*
X4138750Y-9175400D02*
X4178750Y-9215400D01*
X4178750Y-9175400D02*
X4138750Y-9215400D01*
X4138750Y-9575400D02*
X4178750Y-9615400D01*
X4178750Y-9575400D02*
X4138750Y-9615400D01*
X4138750Y-9975400D02*
X4178750Y-10015400D01*
X4178750Y-9975400D02*
X4138750Y-10015400D01*
X4138750Y-10535400D02*
X4178750Y-10575400D01*
X4178750Y-10535400D02*
X4138750Y-10575400D01*
X4138750Y-10935400D02*
X4178750Y-10975400D01*
X4178750Y-10935400D02*
X4138750Y-10975400D01*
X4138750Y-11335400D02*
X4178750Y-11375400D01*
X4178750Y-11335400D02*
X4138750Y-11375400D01*
X4138750Y-11735400D02*
X4178750Y-11775400D01*
X4178750Y-11735400D02*
X4138750Y-11775400D01*
X4138750Y-12135400D02*
X4178750Y-12175400D01*
X4178750Y-12135400D02*
X4138750Y-12175400D01*
X4138750Y-13735400D02*
X4178750Y-13775400D01*
X4178750Y-13735400D02*
X4138750Y-13775400D01*
X4138750Y-14135400D02*
X4178750Y-14175400D01*
X4178750Y-14135400D02*
X4138750Y-14175400D01*
X4218750Y-5015400D02*
X4258750Y-5055400D01*
X4258750Y-5015400D02*
X4218750Y-5055400D01*
X4218750Y-5415400D02*
X4258750Y-5455400D01*
X4258750Y-5415400D02*
X4218750Y-5455400D01*
X4218750Y-5815400D02*
X4258750Y-5855400D01*
X4258750Y-5815400D02*
X4218750Y-5855400D01*
X4218750Y-12535400D02*
X4258750Y-12575400D01*
X4258750Y-12535400D02*
X4218750Y-12575400D01*
X4218750Y-12935400D02*
X4258750Y-12975400D01*
X4258750Y-12935400D02*
X4218750Y-12975400D01*
X4298750Y-4535400D02*
X4338750Y-4575400D01*
X4338750Y-4535400D02*
X4298750Y-4575400D01*
X4298750Y-7335400D02*
X4338750Y-7375400D01*
X4338750Y-7335400D02*
X4298750Y-7375400D01*
X4298750Y-7895400D02*
X4338750Y-7935400D01*
X4338750Y-7895400D02*
X4298750Y-7935400D01*
X4298750Y-10215400D02*
X4338750Y-10255400D01*
X4338750Y-10215400D02*
X4298750Y-10255400D01*
X4378750Y-9735400D02*
X4418750Y-9775400D01*
X4418750Y-9735400D02*
X4378750Y-9775400D01*
X4378750Y-11095400D02*
X4418750Y-11135400D01*
X4418750Y-11095400D02*
X4378750Y-11135400D01*
X4378750Y-11495400D02*
X4418750Y-11535400D01*
X4418750Y-11495400D02*
X4378750Y-11535400D01*
X4378750Y-11895400D02*
X4418750Y-11935400D01*
X4418750Y-11895400D02*
X4378750Y-11935400D01*
X4378750Y-12295400D02*
X4418750Y-12335400D01*
X4418750Y-12295400D02*
X4378750Y-12335400D01*
X4458750Y-4775400D02*
X4498750Y-4815400D01*
X4498750Y-4775400D02*
X4458750Y-4815400D01*
X4458750Y-13815400D02*
X4498750Y-13855400D01*
X4498750Y-13815400D02*
X4458750Y-13855400D01*
X4458750Y-14215400D02*
X4498750Y-14255400D01*
X4498750Y-14215400D02*
X4458750Y-14255400D01*
X4538750Y-5095400D02*
X4578750Y-5135400D01*
X4578750Y-5095400D02*
X4538750Y-5135400D01*
X4538750Y-8455400D02*
X4578750Y-8495400D01*
X4578750Y-8455400D02*
X4538750Y-8495400D01*
X4538750Y-8855400D02*
X4578750Y-8895400D01*
X4578750Y-8855400D02*
X4538750Y-8895400D01*
X4538750Y-9255400D02*
X4578750Y-9295400D01*
X4578750Y-9255400D02*
X4538750Y-9295400D01*
X4538750Y-10055400D02*
X4578750Y-10095400D01*
X4578750Y-10055400D02*
X4538750Y-10095400D01*
X4591300Y-9695500D02*
X4631300Y-9735500D01*
X4631300Y-9695500D02*
X4591300Y-9735500D01*
X4618750Y-4375400D02*
X4658750Y-4415400D01*
X4658750Y-4375400D02*
X4618750Y-4415400D01*
X4618750Y-10935400D02*
X4658750Y-10975400D01*
X4658750Y-10935400D02*
X4618750Y-10975400D01*
X4618750Y-11655400D02*
X4658750Y-11695400D01*
X4658750Y-11655400D02*
X4618750Y-11695400D01*
X4618750Y-12055400D02*
X4658750Y-12095400D01*
X4658750Y-12055400D02*
X4618750Y-12095400D01*
X4618750Y-12775400D02*
X4658750Y-12815400D01*
X4658750Y-12775400D02*
X4618750Y-12815400D01*
X4667499Y-9822500D02*
X4707499Y-9862500D01*
X4707499Y-9822500D02*
X4667499Y-9862500D01*
X4698750Y-13095400D02*
X4738750Y-13135400D01*
X4738750Y-13095400D02*
X4698750Y-13135400D01*
X4698750Y-13495400D02*
X4738750Y-13535400D01*
X4738750Y-13495400D02*
X4698750Y-13535400D01*
X4742500Y-5707700D02*
X4782500Y-5747700D01*
X4782500Y-5707700D02*
X4742500Y-5747700D01*
X4742500Y-6317300D02*
X4782500Y-6357300D01*
X4782500Y-6317300D02*
X4742500Y-6357300D01*
X4742500Y-6774500D02*
X4782500Y-6814500D01*
X4782500Y-6774500D02*
X4742500Y-6814500D01*
X4742500Y-8400100D02*
X4782500Y-8440100D01*
X4782500Y-8400100D02*
X4742500Y-8440100D01*
X4767900Y-7003100D02*
X4807900Y-7043100D01*
X4807900Y-7003100D02*
X4767900Y-7043100D01*
X4767900Y-7460300D02*
X4807900Y-7500300D01*
X4807900Y-7460300D02*
X4767900Y-7500300D01*
X4778750Y-4615400D02*
X4818750Y-4655400D01*
X4818750Y-4615400D02*
X4778750Y-4655400D01*
X4778750Y-5255400D02*
X4818750Y-5295400D01*
X4818750Y-5255400D02*
X4778750Y-5295400D01*
X4778750Y-12295400D02*
X4818750Y-12335400D01*
X4818750Y-12295400D02*
X4778750Y-12335400D01*
X4793300Y-7307900D02*
X4833300Y-7347900D01*
X4833300Y-7307900D02*
X4793300Y-7347900D01*
X4818700Y-9619300D02*
X4858700Y-9659300D01*
X4858700Y-9619300D02*
X4818700Y-9659300D01*
X4844100Y-5987100D02*
X4884100Y-6027100D01*
X4884100Y-5987100D02*
X4844100Y-6027100D01*
X4858750Y-8695400D02*
X4898750Y-8735400D01*
X4898750Y-8695400D02*
X4858750Y-8735400D01*
X4858750Y-9095400D02*
X4898750Y-9135400D01*
X4898750Y-9095400D02*
X4858750Y-9135400D01*
X4858750Y-10135400D02*
X4898750Y-10175400D01*
X4898750Y-10135400D02*
X4858750Y-10175400D01*
X4858750Y-10535400D02*
X4898750Y-10575400D01*
X4898750Y-10535400D02*
X4858750Y-10575400D01*
X4858750Y-11495400D02*
X4898750Y-11535400D01*
X4898750Y-11495400D02*
X4858750Y-11535400D01*
X4858750Y-12615400D02*
X4898750Y-12655400D01*
X4898750Y-12615400D02*
X4858750Y-12655400D01*
X4880699Y-5834700D02*
X4920699Y-5874700D01*
X4920699Y-5834700D02*
X4880699Y-5874700D01*
X4894900Y-8377249D02*
X4934900Y-8417249D01*
X4934900Y-8377249D02*
X4894900Y-8417249D01*
X4938750Y-10855400D02*
X4978750Y-10895400D01*
X4978750Y-10855400D02*
X4938750Y-10895400D01*
X4938750Y-12935400D02*
X4978750Y-12975400D01*
X4978750Y-12935400D02*
X4938750Y-12975400D01*
X4941899Y-7663500D02*
X4981899Y-7703500D01*
X4981899Y-7663500D02*
X4941899Y-7703500D01*
X4945700Y-6672900D02*
X4985700Y-6712900D01*
X4985700Y-6672900D02*
X4945700Y-6712900D01*
X4945700Y-6977700D02*
X4985700Y-7017700D01*
X4985700Y-6977700D02*
X4945700Y-7017700D01*
X4949305Y-7413497D02*
X4989305Y-7453497D01*
X4989305Y-7413497D02*
X4949305Y-7453497D01*
X4988638Y-8433362D02*
X5028638Y-8473362D01*
X5028638Y-8433362D02*
X4988638Y-8473362D01*
X5012400Y-7364310D02*
X5052400Y-7404310D01*
X5052400Y-7364310D02*
X5012400Y-7404310D01*
X5018750Y-13415400D02*
X5058750Y-13455400D01*
X5058750Y-13415400D02*
X5018750Y-13455400D01*
X5021900Y-7663500D02*
X5061900Y-7703500D01*
X5061900Y-7663500D02*
X5021900Y-7703500D01*
X5024795Y-6965701D02*
X5064795Y-7005701D01*
X5064795Y-6965701D02*
X5024795Y-7005701D01*
X5027532Y-6684100D02*
X5067532Y-6724100D01*
X5067532Y-6684100D02*
X5027532Y-6724100D01*
X5098750Y-4695400D02*
X5138750Y-4735400D01*
X5138750Y-4695400D02*
X5098750Y-4735400D01*
X5098750Y-5095400D02*
X5138750Y-5135400D01*
X5138750Y-5095400D02*
X5098750Y-5135400D01*
X5098750Y-8855400D02*
X5138750Y-8895400D01*
X5138750Y-8855400D02*
X5098750Y-8895400D01*
X5098750Y-9255400D02*
X5138750Y-9295400D01*
X5138750Y-9255400D02*
X5098750Y-9295400D01*
X5098750Y-10295400D02*
X5138750Y-10335400D01*
X5138750Y-10295400D02*
X5098750Y-10335400D01*
X5098750Y-12215400D02*
X5138750Y-12255400D01*
X5138750Y-12215400D02*
X5098750Y-12255400D01*
X5123500Y-6684100D02*
X5163500Y-6724100D01*
X5163500Y-6684100D02*
X5123500Y-6724100D01*
X5126395Y-6965701D02*
X5166395Y-7005701D01*
X5166395Y-6965701D02*
X5126395Y-7005701D01*
X5178750Y-5415400D02*
X5218750Y-5455400D01*
X5218750Y-5415400D02*
X5178750Y-5455400D01*
X5178750Y-9575400D02*
X5218750Y-9615400D01*
X5218750Y-9575400D02*
X5178750Y-9615400D01*
X5178750Y-10615400D02*
X5218750Y-10655400D01*
X5218750Y-10615400D02*
X5178750Y-10655400D01*
X5178750Y-12535400D02*
X5218750Y-12575400D01*
X5218750Y-12535400D02*
X5178750Y-12575400D01*
X5178750Y-13095400D02*
X5218750Y-13135400D01*
X5218750Y-13095400D02*
X5178750Y-13135400D01*
X5203500Y-6684100D02*
X5243500Y-6724100D01*
X5243500Y-6684100D02*
X5203500Y-6724100D01*
X5205345Y-6978624D02*
X5245345Y-7018624D01*
X5245345Y-6978624D02*
X5205345Y-7018624D01*
X5258750Y-4455400D02*
X5298750Y-4495400D01*
X5298750Y-4455400D02*
X5258750Y-4495400D01*
X5258750Y-7735400D02*
X5298750Y-7775400D01*
X5298750Y-7735400D02*
X5258750Y-7775400D01*
X5258750Y-10935400D02*
X5298750Y-10975400D01*
X5298750Y-10935400D02*
X5258750Y-10975400D01*
X5338750Y-4855400D02*
X5378750Y-4895400D01*
X5378750Y-4855400D02*
X5338750Y-4895400D01*
X5338750Y-6375400D02*
X5378750Y-6415400D01*
X5378750Y-6375400D02*
X5338750Y-6415400D01*
X5338750Y-11495400D02*
X5378750Y-11535400D01*
X5378750Y-11495400D02*
X5338750Y-11535400D01*
X5338750Y-11975400D02*
X5378750Y-12015400D01*
X5378750Y-11975400D02*
X5338750Y-12015400D01*
X5338750Y-12775400D02*
X5378750Y-12815400D01*
X5378750Y-12775400D02*
X5338750Y-12815400D01*
X5418750Y-5175400D02*
X5458750Y-5215400D01*
X5458750Y-5175400D02*
X5418750Y-5215400D01*
X5418750Y-8295400D02*
X5458750Y-8335400D01*
X5458750Y-8295400D02*
X5418750Y-8335400D01*
X5418750Y-10055400D02*
X5458750Y-10095400D01*
X5458750Y-10055400D02*
X5418750Y-10095400D01*
X5418750Y-11175400D02*
X5458750Y-11215400D01*
X5458750Y-11175400D02*
X5418750Y-11215400D01*
X5418750Y-12295400D02*
X5458750Y-12335400D01*
X5458750Y-12295400D02*
X5418750Y-12335400D01*
X5418750Y-13815400D02*
X5458750Y-13855400D01*
X5458750Y-13815400D02*
X5418750Y-13855400D01*
X5418750Y-14215400D02*
X5458750Y-14255400D01*
X5458750Y-14215400D02*
X5418750Y-14255400D01*
X5498750Y-4615400D02*
X5538750Y-4655400D01*
X5538750Y-4615400D02*
X5498750Y-4655400D01*
X5498750Y-6615400D02*
X5538750Y-6655400D01*
X5538750Y-6615400D02*
X5498750Y-6655400D01*
X5498750Y-11735400D02*
X5538750Y-11775400D01*
X5538750Y-11735400D02*
X5498750Y-11775400D01*
X5498750Y-13015400D02*
X5538750Y-13055400D01*
X5538750Y-13015400D02*
X5498750Y-13055400D01*
X5529900Y-9466900D02*
X5569900Y-9506900D01*
X5569900Y-9466900D02*
X5529900Y-9506900D01*
X5578750Y-5415400D02*
X5618750Y-5455400D01*
X5618750Y-5415400D02*
X5578750Y-5455400D01*
X5578750Y-6215400D02*
X5618750Y-6255400D01*
X5618750Y-6215400D02*
X5578750Y-6255400D01*
X5578750Y-7015400D02*
X5618750Y-7055400D01*
X5618750Y-7015400D02*
X5578750Y-7055400D01*
X5578750Y-7815400D02*
X5618750Y-7855400D01*
X5618750Y-7815400D02*
X5578750Y-7855400D01*
X5658750Y-4375400D02*
X5698750Y-4415400D01*
X5698750Y-4375400D02*
X5658750Y-4415400D01*
X5658750Y-8455400D02*
X5698750Y-8495400D01*
X5698750Y-8455400D02*
X5658750Y-8495400D01*
X5658750Y-8855400D02*
X5698750Y-8895400D01*
X5698750Y-8855400D02*
X5658750Y-8895400D01*
X5658750Y-13975400D02*
X5698750Y-14015400D01*
X5698750Y-13975400D02*
X5658750Y-14015400D01*
X5738750Y-10455400D02*
X5778750Y-10495400D01*
X5778750Y-10455400D02*
X5738750Y-10495400D01*
X5738750Y-12855400D02*
X5778750Y-12895400D01*
X5778750Y-12855400D02*
X5738750Y-12895400D01*
X5738750Y-13575400D02*
X5778750Y-13615400D01*
X5778750Y-13575400D02*
X5738750Y-13615400D01*
X5818750Y-4695400D02*
X5858750Y-4735400D01*
X5858750Y-4695400D02*
X5818750Y-4735400D01*
X5818750Y-5175400D02*
X5858750Y-5215400D01*
X5858750Y-5175400D02*
X5818750Y-5215400D01*
X5818750Y-9495400D02*
X5858750Y-9535400D01*
X5858750Y-9495400D02*
X5818750Y-9535400D01*
X5818750Y-14215400D02*
X5858750Y-14255400D01*
X5858750Y-14215400D02*
X5818750Y-14255400D01*
X5898750Y-8295400D02*
X5938750Y-8335400D01*
X5938750Y-8295400D02*
X5898750Y-8335400D01*
X5898750Y-8695400D02*
X5938750Y-8735400D01*
X5938750Y-8695400D02*
X5898750Y-8735400D01*
X5898750Y-9095400D02*
X5938750Y-9135400D01*
X5938750Y-9095400D02*
X5898750Y-9135400D01*
X5898750Y-13815400D02*
X5938750Y-13855400D01*
X5938750Y-13815400D02*
X5898750Y-13855400D01*
X5978750Y-4455400D02*
X6018750Y-4495400D01*
X6018750Y-4455400D02*
X5978750Y-4495400D01*
X6019839Y-6944223D02*
X6059839Y-6984223D01*
X6059839Y-6944223D02*
X6019839Y-6984223D01*
X6037900Y-7053900D02*
X6077900Y-7093900D01*
X6077900Y-7053900D02*
X6037900Y-7093900D01*
X6058750Y-3815400D02*
X6098750Y-3855400D01*
X6098750Y-3815400D02*
X6058750Y-3855400D01*
X6058750Y-7735400D02*
X6098750Y-7775400D01*
X6098750Y-7735400D02*
X6058750Y-7775400D01*
X6058750Y-10535400D02*
X6098750Y-10575400D01*
X6098750Y-10535400D02*
X6058750Y-10575400D01*
X6058750Y-10935400D02*
X6098750Y-10975400D01*
X6098750Y-10935400D02*
X6058750Y-10975400D01*
X6058750Y-12215400D02*
X6098750Y-12255400D01*
X6098750Y-12215400D02*
X6058750Y-12255400D01*
X6058750Y-12615400D02*
X6098750Y-12655400D01*
X6098750Y-12615400D02*
X6058750Y-12655400D01*
X6058750Y-14055400D02*
X6098750Y-14095400D01*
X6098750Y-14055400D02*
X6058750Y-14095400D01*
X6138750Y-2775400D02*
X6178750Y-2815400D01*
X6178750Y-2775400D02*
X6138750Y-2815400D01*
X6138750Y-8455400D02*
X6178750Y-8495400D01*
X6178750Y-8455400D02*
X6138750Y-8495400D01*
X6138750Y-8855400D02*
X6178750Y-8895400D01*
X6178750Y-8855400D02*
X6138750Y-8895400D01*
X6138750Y-9255400D02*
X6178750Y-9295400D01*
X6178750Y-9255400D02*
X6138750Y-9295400D01*
X6139501Y-6190300D02*
X6179501Y-6230300D01*
X6179501Y-6190300D02*
X6139501Y-6230300D01*
X6218750Y-4615400D02*
X6258750Y-4655400D01*
X6258750Y-4615400D02*
X6218750Y-4655400D01*
X6218750Y-11175400D02*
X6258750Y-11215400D01*
X6258750Y-11175400D02*
X6218750Y-11215400D01*
X6218750Y-12855400D02*
X6258750Y-12895400D01*
X6258750Y-12855400D02*
X6218750Y-12895400D01*
X6291900Y-7765100D02*
X6331900Y-7805100D01*
X6331900Y-7765100D02*
X6291900Y-7805100D01*
X6298750Y-5575400D02*
X6338750Y-5615400D01*
X6338750Y-5575400D02*
X6298750Y-5615400D01*
X6298750Y-10695400D02*
X6338750Y-10735400D01*
X6338750Y-10695400D02*
X6298750Y-10735400D01*
X6298750Y-12375400D02*
X6338750Y-12415400D01*
X6338750Y-12375400D02*
X6298750Y-12415400D01*
X6298750Y-13815400D02*
X6338750Y-13855400D01*
X6338750Y-13815400D02*
X6298750Y-13855400D01*
X6298750Y-14215400D02*
X6338750Y-14255400D01*
X6338750Y-14215400D02*
X6298750Y-14255400D01*
X6378750Y-2935400D02*
X6418750Y-2975400D01*
X6418750Y-2935400D02*
X6378750Y-2975400D01*
X6378750Y-8295400D02*
X6418750Y-8335400D01*
X6418750Y-8295400D02*
X6378750Y-8335400D01*
X6378750Y-8695400D02*
X6418750Y-8735400D01*
X6418750Y-8695400D02*
X6378750Y-8735400D01*
X6378750Y-9095400D02*
X6418750Y-9135400D01*
X6418750Y-9095400D02*
X6378750Y-9135400D01*
X6378750Y-13495400D02*
X6418750Y-13535400D01*
X6418750Y-13495400D02*
X6378750Y-13535400D01*
X6458750Y-6695400D02*
X6498750Y-6735400D01*
X6498750Y-6695400D02*
X6458750Y-6735400D01*
X6458750Y-9415400D02*
X6498750Y-9455400D01*
X6498750Y-9415400D02*
X6458750Y-9455400D01*
X6458750Y-10935400D02*
X6498750Y-10975400D01*
X6498750Y-10935400D02*
X6458750Y-10975400D01*
X6458750Y-11735400D02*
X6498750Y-11775400D01*
X6498750Y-11735400D02*
X6458750Y-11775400D01*
X6458750Y-12135400D02*
X6498750Y-12175400D01*
X6498750Y-12135400D02*
X6458750Y-12175400D01*
X6458750Y-12615400D02*
X6498750Y-12655400D01*
X6498750Y-12615400D02*
X6458750Y-12655400D01*
X6538750Y-3175400D02*
X6578750Y-3215400D01*
X6578750Y-3175400D02*
X6538750Y-3215400D01*
X6538750Y-5335400D02*
X6578750Y-5375400D01*
X6578750Y-5335400D02*
X6538750Y-5375400D01*
X6538750Y-7735400D02*
X6578750Y-7775400D01*
X6578750Y-7735400D02*
X6538750Y-7775400D01*
X6538750Y-13975400D02*
X6578750Y-14015400D01*
X6578750Y-13975400D02*
X6538750Y-14015400D01*
X6618750Y-2775400D02*
X6658750Y-2815400D01*
X6658750Y-2775400D02*
X6618750Y-2815400D01*
X6618750Y-4375400D02*
X6658750Y-4415400D01*
X6658750Y-4375400D02*
X6618750Y-4415400D01*
X6618750Y-8455400D02*
X6658750Y-8495400D01*
X6658750Y-8455400D02*
X6618750Y-8495400D01*
X6618750Y-8855400D02*
X6658750Y-8895400D01*
X6658750Y-8855400D02*
X6618750Y-8895400D01*
X6618750Y-13095400D02*
X6658750Y-13135400D01*
X6658750Y-13095400D02*
X6618750Y-13135400D01*
X6618750Y-13655400D02*
X6658750Y-13695400D01*
X6658750Y-13655400D02*
X6618750Y-13695400D01*
X6622100Y-10406700D02*
X6662100Y-10446700D01*
X6662100Y-10406700D02*
X6622100Y-10446700D01*
X6698750Y-4695400D02*
X6738750Y-4735400D01*
X6738750Y-4695400D02*
X6698750Y-4735400D01*
X6698750Y-9175400D02*
X6738750Y-9215400D01*
X6738750Y-9175400D02*
X6698750Y-9215400D01*
X6698750Y-10055400D02*
X6738750Y-10095400D01*
X6738750Y-10055400D02*
X6698750Y-10095400D01*
X6698750Y-11495400D02*
X6738750Y-11535400D01*
X6738750Y-11495400D02*
X6698750Y-11535400D01*
X6698750Y-11975400D02*
X6738750Y-12015400D01*
X6738750Y-11975400D02*
X6698750Y-12015400D01*
X6698750Y-14215400D02*
X6738750Y-14255400D01*
X6738750Y-14215400D02*
X6698750Y-14255400D01*
X6708767Y-11001367D02*
X6748767Y-11041367D01*
X6748767Y-11001367D02*
X6708767Y-11041367D01*
X6778750Y-3015400D02*
X6818750Y-3055400D01*
X6818750Y-3015400D02*
X6778750Y-3055400D01*
X6778750Y-12295400D02*
X6818750Y-12335400D01*
X6818750Y-12295400D02*
X6778750Y-12335400D01*
X6778750Y-13415400D02*
X6818750Y-13455400D01*
X6818750Y-13415400D02*
X6778750Y-13455400D01*
X6799900Y-7765100D02*
X6839900Y-7805100D01*
X6839900Y-7765100D02*
X6799900Y-7805100D01*
X6858750Y-5255400D02*
X6898750Y-5295400D01*
X6898750Y-5255400D02*
X6858750Y-5295400D01*
X6858750Y-8295400D02*
X6898750Y-8335400D01*
X6898750Y-8295400D02*
X6858750Y-8335400D01*
X6858750Y-8695400D02*
X6898750Y-8735400D01*
X6898750Y-8695400D02*
X6858750Y-8735400D01*
X6858750Y-9415400D02*
X6898750Y-9455400D01*
X6898750Y-9415400D02*
X6858750Y-9455400D01*
X6858750Y-11735400D02*
X6898750Y-11775400D01*
X6898750Y-11735400D02*
X6858750Y-11775400D01*
X6858750Y-13815400D02*
X6898750Y-13855400D01*
X6898750Y-13815400D02*
X6858750Y-13855400D01*
X6876101Y-6190300D02*
X6916101Y-6230300D01*
X6916101Y-6190300D02*
X6876101Y-6230300D01*
X6938750Y-6375400D02*
X6978750Y-6415400D01*
X6978750Y-6375400D02*
X6938750Y-6415400D01*
X6938750Y-9015400D02*
X6978750Y-9055400D01*
X6978750Y-9015400D02*
X6938750Y-9055400D01*
X6938750Y-10215400D02*
X6978750Y-10255400D01*
X6978750Y-10215400D02*
X6938750Y-10255400D01*
X6938750Y-12775400D02*
X6978750Y-12815400D01*
X6978750Y-12775400D02*
X6938750Y-12815400D01*
X6977700Y-7079300D02*
X7017700Y-7119300D01*
X7017700Y-7079300D02*
X6977700Y-7119300D01*
X7018750Y-2775400D02*
X7058750Y-2815400D01*
X7058750Y-2775400D02*
X7018750Y-2815400D01*
X7018750Y-4455400D02*
X7058750Y-4495400D01*
X7058750Y-4455400D02*
X7018750Y-4495400D01*
X7018750Y-5575400D02*
X7058750Y-5615400D01*
X7058750Y-5575400D02*
X7018750Y-5615400D01*
X7018750Y-12055400D02*
X7058750Y-12095400D01*
X7058750Y-12055400D02*
X7018750Y-12095400D01*
X7018750Y-12455400D02*
X7058750Y-12495400D01*
X7058750Y-12455400D02*
X7018750Y-12495400D01*
X7018750Y-13575400D02*
X7058750Y-13615400D01*
X7058750Y-13575400D02*
X7018750Y-13615400D01*
X7018750Y-14055400D02*
X7058750Y-14095400D01*
X7058750Y-14055400D02*
X7018750Y-14095400D01*
X7053900Y-7765100D02*
X7093900Y-7805100D01*
X7093900Y-7765100D02*
X7053900Y-7805100D01*
X7092000Y-10618134D02*
X7132000Y-10658134D01*
X7132000Y-10618134D02*
X7092000Y-10658134D01*
X7098750Y-3095400D02*
X7138750Y-3135400D01*
X7138750Y-3095400D02*
X7098750Y-3135400D01*
X7098750Y-8455400D02*
X7138750Y-8495400D01*
X7138750Y-8455400D02*
X7098750Y-8495400D01*
X7098750Y-9255400D02*
X7138750Y-9295400D01*
X7138750Y-9255400D02*
X7098750Y-9295400D01*
X7178750Y-4695400D02*
X7218750Y-4735400D01*
X7218750Y-4695400D02*
X7178750Y-4735400D01*
X7178750Y-6775400D02*
X7218750Y-6815400D01*
X7218750Y-6775400D02*
X7178750Y-6815400D01*
X7178750Y-8775400D02*
X7218750Y-8815400D01*
X7218750Y-8775400D02*
X7178750Y-8815400D01*
X7178750Y-9575400D02*
X7218750Y-9615400D01*
X7218750Y-9575400D02*
X7178750Y-9615400D01*
X7180900Y-10990900D02*
X7220900Y-11030900D01*
X7220900Y-10990900D02*
X7180900Y-11030900D01*
X7206300Y-10609900D02*
X7246300Y-10649900D01*
X7246300Y-10609900D02*
X7206300Y-10649900D01*
X7258750Y-5335400D02*
X7298750Y-5375400D01*
X7298750Y-5335400D02*
X7258750Y-5375400D01*
X7258750Y-6295400D02*
X7298750Y-6335400D01*
X7298750Y-6295400D02*
X7258750Y-6335400D01*
X7258750Y-12215400D02*
X7298750Y-12255400D01*
X7298750Y-12215400D02*
X7258750Y-12255400D01*
X7258750Y-12615400D02*
X7298750Y-12655400D01*
X7298750Y-12615400D02*
X7258750Y-12655400D01*
X7258750Y-13415400D02*
X7298750Y-13455400D01*
X7298750Y-13415400D02*
X7258750Y-13455400D01*
X7258750Y-13815400D02*
X7298750Y-13855400D01*
X7298750Y-13815400D02*
X7258750Y-13855400D01*
X7258750Y-14215400D02*
X7298750Y-14255400D01*
X7298750Y-14215400D02*
X7258750Y-14255400D01*
X7259333Y-10789933D02*
X7299333Y-10829933D01*
X7299333Y-10789933D02*
X7259333Y-10829933D01*
X7282500Y-10432100D02*
X7322500Y-10472100D01*
X7322500Y-10432100D02*
X7282500Y-10472100D01*
X7318367Y-4376433D02*
X7358367Y-4416433D01*
X7358367Y-4376433D02*
X7318367Y-4416433D01*
X7333299Y-10736900D02*
X7373299Y-10776900D01*
X7373299Y-10736900D02*
X7333299Y-10776900D01*
X7333300Y-10127300D02*
X7373300Y-10167300D01*
X7373300Y-10127300D02*
X7333300Y-10167300D01*
X7338750Y-7735400D02*
X7378750Y-7775400D01*
X7378750Y-7735400D02*
X7338750Y-7775400D01*
X7384100Y-3167700D02*
X7424100Y-3207700D01*
X7424100Y-3167700D02*
X7384100Y-3207700D01*
X7418750Y-5575400D02*
X7458750Y-5615400D01*
X7458750Y-5575400D02*
X7418750Y-5615400D01*
X7418750Y-12855400D02*
X7458750Y-12895400D01*
X7458750Y-12855400D02*
X7418750Y-12895400D01*
X7498750Y-4855400D02*
X7538750Y-4895400D01*
X7538750Y-4855400D02*
X7498750Y-4895400D01*
X7498750Y-6455400D02*
X7538750Y-6495400D01*
X7538750Y-6455400D02*
X7498750Y-6495400D01*
X7498750Y-12375400D02*
X7538750Y-12415400D01*
X7538750Y-12375400D02*
X7498750Y-12415400D01*
X7498750Y-13575400D02*
X7538750Y-13615400D01*
X7538750Y-13575400D02*
X7498750Y-13615400D01*
X7498750Y-13975400D02*
X7538750Y-14015400D01*
X7538750Y-13975400D02*
X7498750Y-14015400D01*
X7536500Y-6063300D02*
X7576500Y-6103300D01*
X7576500Y-6063300D02*
X7536500Y-6103300D01*
X7561900Y-7765100D02*
X7601900Y-7805100D01*
X7601900Y-7765100D02*
X7561900Y-7805100D01*
X7578750Y-5175400D02*
X7618750Y-5215400D01*
X7618750Y-5175400D02*
X7578750Y-5215400D01*
X7578750Y-6775400D02*
X7618750Y-6815400D01*
X7618750Y-6775400D02*
X7578750Y-6815400D01*
X7578750Y-10055400D02*
X7618750Y-10095400D01*
X7618750Y-10055400D02*
X7578750Y-10095400D01*
X7578750Y-10455400D02*
X7618750Y-10495400D01*
X7618750Y-10455400D02*
X7578750Y-10495400D01*
X7578750Y-11255400D02*
X7618750Y-11295400D01*
X7618750Y-11255400D02*
X7578750Y-11295400D01*
X7578750Y-11735400D02*
X7618750Y-11775400D01*
X7618750Y-11735400D02*
X7578750Y-11775400D01*
X7658750Y-12055400D02*
X7698750Y-12095400D01*
X7698750Y-12055400D02*
X7658750Y-12095400D01*
X7658750Y-14215400D02*
X7698750Y-14255400D01*
X7698750Y-14215400D02*
X7658750Y-14255400D01*
X7738750Y-5415400D02*
X7778750Y-5455400D01*
X7778750Y-5415400D02*
X7738750Y-5455400D01*
X7738750Y-6295400D02*
X7778750Y-6335400D01*
X7778750Y-6295400D02*
X7738750Y-6335400D01*
X7738750Y-7095400D02*
X7778750Y-7135400D01*
X7778750Y-7095400D02*
X7738750Y-7135400D01*
X7738750Y-10935400D02*
X7778750Y-10975400D01*
X7778750Y-10935400D02*
X7738750Y-10975400D01*
X7738750Y-12775400D02*
X7778750Y-12815400D01*
X7778750Y-12775400D02*
X7738750Y-12815400D01*
X7738750Y-13415400D02*
X7778750Y-13455400D01*
X7778750Y-13415400D02*
X7738750Y-13455400D01*
X7738750Y-13815400D02*
X7778750Y-13855400D01*
X7778750Y-13815400D02*
X7738750Y-13855400D01*
X7818750Y-5015400D02*
X7858750Y-5055400D01*
X7858750Y-5015400D02*
X7818750Y-5055400D01*
X7818750Y-7735400D02*
X7858750Y-7775400D01*
X7858750Y-7735400D02*
X7818750Y-7775400D01*
X7818750Y-10215400D02*
X7858750Y-10255400D01*
X7858750Y-10215400D02*
X7818750Y-10255400D01*
X7818750Y-12295400D02*
X7858750Y-12335400D01*
X7858750Y-12295400D02*
X7818750Y-12335400D01*
X7898750Y-14055400D02*
X7938750Y-14095400D01*
X7938750Y-14055400D02*
X7898750Y-14095400D01*
X7978750Y-5255400D02*
X8018750Y-5295400D01*
X8018750Y-5255400D02*
X7978750Y-5295400D01*
X7978750Y-6135400D02*
X8018750Y-6175400D01*
X8018750Y-6135400D02*
X7978750Y-6175400D01*
X7978750Y-6775400D02*
X8018750Y-6815400D01*
X8018750Y-6775400D02*
X7978750Y-6815400D01*
X7978750Y-10455400D02*
X8018750Y-10495400D01*
X8018750Y-10455400D02*
X7978750Y-10495400D01*
X7978750Y-12935400D02*
X8018750Y-12975400D01*
X8018750Y-12935400D02*
X7978750Y-12975400D01*
X7978750Y-13575400D02*
X8018750Y-13615400D01*
X8018750Y-13575400D02*
X7978750Y-13615400D01*
X8058750Y-7175400D02*
X8098750Y-7215400D01*
X8098750Y-7175400D02*
X8058750Y-7215400D01*
X8058750Y-7895400D02*
X8098750Y-7935400D01*
X8098750Y-7895400D02*
X8058750Y-7935400D01*
X8058750Y-9975400D02*
X8098750Y-10015400D01*
X8098750Y-9975400D02*
X8058750Y-10015400D01*
X8138750Y-5735400D02*
X8178750Y-5775400D01*
X8178750Y-5735400D02*
X8138750Y-5775400D01*
X8138750Y-7575400D02*
X8178750Y-7615400D01*
X8178750Y-7575400D02*
X8138750Y-7615400D01*
X8138750Y-13815400D02*
X8178750Y-13855400D01*
X8178750Y-13815400D02*
X8138750Y-13855400D01*
X8138750Y-14215400D02*
X8178750Y-14255400D01*
X8178750Y-14215400D02*
X8138750Y-14255400D01*
X8146100Y-6469700D02*
X8186100Y-6509700D01*
X8186100Y-6469700D02*
X8146100Y-6509700D01*
X8218750Y-12775400D02*
X8258750Y-12815400D01*
X8258750Y-12775400D02*
X8218750Y-12815400D01*
X8218750Y-13415400D02*
X8258750Y-13455400D01*
X8258750Y-13415400D02*
X8218750Y-13455400D01*
X8298750Y-10135400D02*
X8338750Y-10175400D01*
X8338750Y-10135400D02*
X8298750Y-10175400D01*
X8298750Y-12215400D02*
X8338750Y-12255400D01*
X8338750Y-12215400D02*
X8298750Y-12255400D01*
X8349300Y-5225100D02*
X8389300Y-5265100D01*
X8389300Y-5225100D02*
X8349300Y-5265100D01*
X8349300Y-7384100D02*
X8389300Y-7424100D01*
X8389300Y-7384100D02*
X8349300Y-7424100D01*
X8378750Y-10455400D02*
X8418750Y-10495400D01*
X8418750Y-10455400D02*
X8378750Y-10495400D01*
X8378750Y-10855400D02*
X8418750Y-10895400D01*
X8418750Y-10855400D02*
X8378750Y-10895400D01*
X8378750Y-11255400D02*
X8418750Y-11295400D01*
X8418750Y-11255400D02*
X8378750Y-11295400D01*
X8378750Y-12535400D02*
X8418750Y-12575400D01*
X8418750Y-12535400D02*
X8378750Y-12575400D01*
X8458750Y-4855400D02*
X8498750Y-4895400D01*
X8498750Y-4855400D02*
X8458750Y-4895400D01*
X8458750Y-7895400D02*
X8498750Y-7935400D01*
X8498750Y-7895400D02*
X8458750Y-7935400D01*
X8458750Y-14135400D02*
X8498750Y-14175400D01*
X8498750Y-14135400D02*
X8458750Y-14175400D01*
X8538750Y-9975400D02*
X8578750Y-10015400D01*
X8578750Y-9975400D02*
X8538750Y-10015400D01*
X8538750Y-11495400D02*
X8578750Y-11535400D01*
X8578750Y-11495400D02*
X8538750Y-11535400D01*
X8538750Y-12855400D02*
X8578750Y-12895400D01*
X8578750Y-12855400D02*
X8538750Y-12895400D01*
X8618750Y-5095400D02*
X8658750Y-5135400D01*
X8658750Y-5095400D02*
X8618750Y-5135400D01*
X8618750Y-10295400D02*
X8658750Y-10335400D01*
X8658750Y-10295400D02*
X8618750Y-10335400D01*
X8618750Y-10695400D02*
X8658750Y-10735400D01*
X8658750Y-10695400D02*
X8618750Y-10735400D01*
X8618750Y-11095400D02*
X8658750Y-11135400D01*
X8658750Y-11095400D02*
X8618750Y-11135400D01*
X8618750Y-12135400D02*
X8658750Y-12175400D01*
X8658750Y-12135400D02*
X8618750Y-12175400D01*
X8698750Y-11735400D02*
X8738750Y-11775400D01*
X8738750Y-11735400D02*
X8698750Y-11775400D01*
X8698750Y-12455400D02*
X8738750Y-12495400D01*
X8738750Y-12455400D02*
X8698750Y-12495400D01*
X8698750Y-13095400D02*
X8738750Y-13135400D01*
X8738750Y-13095400D02*
X8698750Y-13135400D01*
X8778750Y-5335400D02*
X8818750Y-5375400D01*
X8818750Y-5335400D02*
X8778750Y-5375400D01*
X8778750Y-5735400D02*
X8818750Y-5775400D01*
X8818750Y-5735400D02*
X8778750Y-5775400D01*
X8778750Y-6295400D02*
X8818750Y-6335400D01*
X8818750Y-6295400D02*
X8778750Y-6335400D01*
X8778750Y-7655400D02*
X8818750Y-7695400D01*
X8818750Y-7655400D02*
X8778750Y-7695400D01*
X8778750Y-8135400D02*
X8818750Y-8175400D01*
X8818750Y-8135400D02*
X8778750Y-8175400D01*
X8778750Y-8535400D02*
X8818750Y-8575400D01*
X8818750Y-8535400D02*
X8778750Y-8575400D01*
X8778750Y-8935400D02*
X8818750Y-8975400D01*
X8818750Y-8935400D02*
X8778750Y-8975400D01*
X8778750Y-9335400D02*
X8818750Y-9375400D01*
X8818750Y-9335400D02*
X8778750Y-9375400D01*
X8778750Y-9735400D02*
X8818750Y-9775400D01*
X8818750Y-9735400D02*
X8778750Y-9775400D01*
X8778750Y-11335400D02*
X8818750Y-11375400D01*
X8818750Y-11335400D02*
X8778750Y-11375400D01*
X8778750Y-13815400D02*
X8818750Y-13855400D01*
X8818750Y-13815400D02*
X8778750Y-13855400D01*
X8778750Y-14215400D02*
X8818750Y-14255400D01*
X8818750Y-14215400D02*
X8778750Y-14255400D01*
X8858750Y-4855400D02*
X8898750Y-4895400D01*
X8898750Y-4855400D02*
X8858750Y-4895400D01*
X8858750Y-6615400D02*
X8898750Y-6655400D01*
X8898750Y-6615400D02*
X8858750Y-6655400D01*
X8858750Y-11975400D02*
X8898750Y-12015400D01*
X8898750Y-11975400D02*
X8858750Y-12015400D01*
X8858750Y-12695400D02*
X8898750Y-12735400D01*
X8898750Y-12695400D02*
X8858750Y-12735400D01*
X8938750Y-5975400D02*
X8978750Y-6015400D01*
X8978750Y-5975400D02*
X8938750Y-6015400D01*
X8938750Y-6935400D02*
X8978750Y-6975400D01*
X8978750Y-6935400D02*
X8938750Y-6975400D01*
X8938750Y-11575400D02*
X8978750Y-11615400D01*
X8978750Y-11575400D02*
X8938750Y-11615400D01*
X8938750Y-12295400D02*
X8978750Y-12335400D01*
X8978750Y-12295400D02*
X8938750Y-12335400D01*
X9018750Y-5175400D02*
X9058750Y-5215400D01*
X9058750Y-5175400D02*
X9018750Y-5215400D01*
X9018750Y-10295400D02*
X9058750Y-10335400D01*
X9058750Y-10295400D02*
X9018750Y-10335400D01*
X9018750Y-11015400D02*
X9058750Y-11055400D01*
X9058750Y-11015400D02*
X9018750Y-11055400D01*
X9018750Y-13495400D02*
X9058750Y-13535400D01*
X9058750Y-13495400D02*
X9018750Y-13535400D01*
X9018750Y-13975400D02*
X9058750Y-14015400D01*
X9058750Y-13975400D02*
X9018750Y-14015400D01*
X9098750Y-5495400D02*
X9138750Y-5535400D01*
X9138750Y-5495400D02*
X9098750Y-5535400D01*
X9098750Y-6455400D02*
X9138750Y-6495400D01*
X9138750Y-6455400D02*
X9098750Y-6495400D01*
X9098750Y-11815400D02*
X9138750Y-11855400D01*
X9138750Y-11815400D02*
X9098750Y-11855400D01*
X9098750Y-12535400D02*
X9138750Y-12575400D01*
X9138750Y-12535400D02*
X9098750Y-12575400D01*
X9178750Y-5815400D02*
X9218750Y-5855400D01*
X9218750Y-5815400D02*
X9178750Y-5855400D01*
X9178750Y-7655400D02*
X9218750Y-7695400D01*
X9218750Y-7655400D02*
X9178750Y-7695400D01*
X9178750Y-8055400D02*
X9218750Y-8095400D01*
X9218750Y-8055400D02*
X9178750Y-8095400D01*
X9178750Y-8455400D02*
X9218750Y-8495400D01*
X9218750Y-8455400D02*
X9178750Y-8495400D01*
X9178750Y-9415400D02*
X9218750Y-9455400D01*
X9218750Y-9415400D02*
X9178750Y-9455400D01*
X9178750Y-9815400D02*
X9218750Y-9855400D01*
X9218750Y-9815400D02*
X9178750Y-9855400D01*
X9178750Y-10535400D02*
X9218750Y-10575400D01*
X9218750Y-10535400D02*
X9178750Y-10575400D01*
X9178750Y-12135400D02*
X9218750Y-12175400D01*
X9218750Y-12135400D02*
X9178750Y-12175400D01*
X9178750Y-13735400D02*
X9218750Y-13775400D01*
X9218750Y-13735400D02*
X9178750Y-13775400D01*
X9178750Y-14215400D02*
X9218750Y-14255400D01*
X9218750Y-14215400D02*
X9178750Y-14255400D01*
X9258750Y-6135400D02*
X9298750Y-6175400D01*
X9298750Y-6135400D02*
X9258750Y-6175400D01*
X9258750Y-10135400D02*
X9298750Y-10175400D01*
X9298750Y-10135400D02*
X9258750Y-10175400D01*
X9338750Y-5255400D02*
X9378750Y-5295400D01*
X9378750Y-5255400D02*
X9338750Y-5295400D01*
X9338750Y-7335400D02*
X9378750Y-7375400D01*
X9378750Y-7335400D02*
X9338750Y-7375400D01*
X9338750Y-11495400D02*
X9378750Y-11535400D01*
X9378750Y-11495400D02*
X9338750Y-11535400D01*
X9338750Y-12375400D02*
X9378750Y-12415400D01*
X9378750Y-12375400D02*
X9338750Y-12415400D01*
X9418750Y-5655400D02*
X9458750Y-5695400D01*
X9458750Y-5655400D02*
X9418750Y-5695400D01*
X9418750Y-9575400D02*
X9458750Y-9615400D01*
X9458750Y-9575400D02*
X9418750Y-9615400D01*
X9418750Y-11975400D02*
X9458750Y-12015400D01*
X9458750Y-11975400D02*
X9418750Y-12015400D01*
X9418750Y-13575400D02*
X9458750Y-13615400D01*
X9458750Y-13575400D02*
X9418750Y-13615400D01*
X9498750Y-5975400D02*
X9538750Y-6015400D01*
X9538750Y-5975400D02*
X9498750Y-6015400D01*
X9498750Y-6375400D02*
X9538750Y-6415400D01*
X9538750Y-6375400D02*
X9498750Y-6415400D01*
X9498750Y-9895400D02*
X9538750Y-9935400D01*
X9538750Y-9895400D02*
X9498750Y-9935400D01*
X9498750Y-10295400D02*
X9538750Y-10335400D01*
X9538750Y-10295400D02*
X9498750Y-10335400D01*
X9578750Y-14215400D02*
X9618750Y-14255400D01*
X9618750Y-14215400D02*
X9578750Y-14255400D01*
X9658750Y-13735400D02*
X9698750Y-13775400D01*
X9698750Y-13735400D02*
X9658750Y-13775400D01*
X9818750Y-13975400D02*
X9858750Y-14015400D01*
X9858750Y-13975400D02*
X9818750Y-14015400D01*
X9978750Y-14215400D02*
X10018750Y-14255400D01*
X10018750Y-14215400D02*
X9978750Y-14255400D01*
X10218750Y-14055400D02*
X10258750Y-14095400D01*
X10258750Y-14055400D02*
X10218750Y-14095400D01*
X10458750Y-14215400D02*
X10498750Y-14255400D01*
X10498750Y-14215400D02*
X10458750Y-14255400D01*
X10538750Y-13735400D02*
X10578750Y-13775400D01*
X10578750Y-13735400D02*
X10538750Y-13775400D01*
X10698750Y-13975400D02*
X10738750Y-14015400D01*
X10738750Y-13975400D02*
X10698750Y-14015400D01*
X10858750Y-13655400D02*
X10898750Y-13695400D01*
X10898750Y-13655400D02*
X10858750Y-13695400D01*
X10858750Y-14215400D02*
X10898750Y-14255400D01*
X10898750Y-14215400D02*
X10858750Y-14255400D01*
X11018750Y-13895400D02*
X11058750Y-13935400D01*
X11058750Y-13895400D02*
X11018750Y-13935400D01*
X5891700Y-10650700D02*
G75*
G03*
X5891700Y-10650700I-35000J0D01*
G01*
X5891700Y-10900700D02*
G75*
G03*
X5891700Y-10900700I-35000J0D01*
G01*
X5889700Y-12331700D02*
G75*
G03*
X5889700Y-12331700I-35000J0D01*
G01*
X5889700Y-12581700D02*
G75*
G03*
X5889700Y-12581700I-35000J0D01*
G01*
X8529300Y-11744700D02*
G75*
G03*
X8529300Y-11744700I-35000J0D01*
G01*
X8529300Y-11994700D02*
G75*
G03*
X8529300Y-11994700I-35000J0D01*
G01*
X8119300Y-10650700D02*
G75*
G03*
X8119300Y-10650700I-35000J0D01*
G01*
X8119300Y-10900700D02*
G75*
G03*
X8119300Y-10900700I-35000J0D01*
G01*
X5889700Y-6388100D02*
G75*
G03*
X5889700Y-6388100I-35000J0D01*
G01*
X5889700Y-6638100D02*
G75*
G03*
X5889700Y-6638100I-35000J0D01*
G01*
X6296100Y-11747500D02*
G75*
G03*
X6296100Y-11747500I-35000J0D01*
G01*
X6296100Y-11997500D02*
G75*
G03*
X6296100Y-11997500I-35000J0D01*
G01*
X6981900Y-11237700D02*
G75*
G03*
X6981900Y-11237700I-35000J0D01*
G01*
X6981900Y-11487700D02*
G75*
G03*
X6981900Y-11487700I-35000J0D01*
G01*
X4760700Y-11240700D02*
G75*
G03*
X4760700Y-11240700I-35000J0D01*
G01*
X4760700Y-11490700D02*
G75*
G03*
X4760700Y-11490700I-35000J0D01*
G01*
X8117300Y-12333700D02*
G75*
G03*
X8117300Y-12333700I-35000J0D01*
G01*
X8117300Y-12583700D02*
G75*
G03*
X8117300Y-12583700I-35000J0D01*
G01*
X7321300Y-11197700D02*
X7321300Y-11277700D01*
X7281300Y-11237700D02*
X7361300Y-11237700D01*
X7321300Y-11451700D02*
X7321300Y-11531700D01*
X7281300Y-11491700D02*
X7361300Y-11491700D01*
X7321300Y-11705700D02*
X7321300Y-11785700D01*
X7281300Y-11745700D02*
X7361300Y-11745700D01*
X7321300Y-11959700D02*
X7321300Y-12039700D01*
X7281300Y-11999700D02*
X7361300Y-11999700D01*
X8083300Y-11197700D02*
X8083300Y-11277700D01*
X8043300Y-11237700D02*
X8123300Y-11237700D01*
X8083300Y-11451700D02*
X8083300Y-11531700D01*
X8043300Y-11491700D02*
X8123300Y-11491700D01*
X8083300Y-11705700D02*
X8083300Y-11785700D01*
X8043300Y-11745700D02*
X8123300Y-11745700D01*
X8083300Y-11959700D02*
X8083300Y-12039700D01*
X8043300Y-11999700D02*
X8123300Y-11999700D01*
X5339500Y-5814700D02*
X5339500Y-5894700D01*
X5299500Y-5854700D02*
X5379500Y-5854700D01*
X5593500Y-5814700D02*
X5593500Y-5894700D01*
X5553500Y-5854700D02*
X5633500Y-5854700D01*
X5847500Y-5814700D02*
X5847500Y-5894700D01*
X5807500Y-5854700D02*
X5887500Y-5854700D01*
X6101500Y-5814700D02*
X6101500Y-5894700D01*
X6061500Y-5854700D02*
X6141500Y-5854700D01*
X6355500Y-5814700D02*
X6355500Y-5894700D01*
X6315500Y-5854700D02*
X6395500Y-5854700D01*
X6609500Y-5814700D02*
X6609500Y-5894700D01*
X6569500Y-5854700D02*
X6649500Y-5854700D01*
X6863500Y-5814700D02*
X6863500Y-5894700D01*
X6823500Y-5854700D02*
X6903500Y-5854700D01*
X7117500Y-5814700D02*
X7117500Y-5894700D01*
X7077500Y-5854700D02*
X7157500Y-5854700D01*
X7371500Y-5814700D02*
X7371500Y-5894700D01*
X7331500Y-5854700D02*
X7411500Y-5854700D01*
X7625500Y-5814700D02*
X7625500Y-5894700D01*
X7585500Y-5854700D02*
X7665500Y-5854700D01*
X7879500Y-5814700D02*
X7879500Y-5894700D01*
X7839500Y-5854700D02*
X7919500Y-5854700D01*
X7226300Y-4925700D02*
X7226300Y-5005700D01*
X7186300Y-4965700D02*
X7266300Y-4965700D01*
X8242300Y-4925700D02*
X8242300Y-5005700D01*
X8202300Y-4965700D02*
X8282300Y-4965700D01*
X6768300Y-12521700D02*
X6768300Y-12601700D01*
X6728300Y-12561700D02*
X6808300Y-12561700D01*
X7784300Y-12521700D02*
X7784300Y-12601700D01*
X7744300Y-12561700D02*
X7824300Y-12561700D01*
X5321300Y-6119500D02*
X5321300Y-6199500D01*
X5281300Y-6159500D02*
X5361300Y-6159500D01*
X5321300Y-7135500D02*
X5321300Y-7215500D01*
X5281300Y-7175500D02*
X5361300Y-7175500D01*
X4530700Y-12520700D02*
X4530700Y-12600700D01*
X4490700Y-12560700D02*
X4570700Y-12560700D01*
X5546700Y-12520700D02*
X5546700Y-12600700D01*
X5506700Y-12560700D02*
X5586700Y-12560700D01*
X5091700Y-11198700D02*
X5091700Y-11278700D01*
X5051700Y-11238700D02*
X5131700Y-11238700D01*
X5091700Y-11452700D02*
X5091700Y-11532700D01*
X5051700Y-11492700D02*
X5131700Y-11492700D01*
X5091700Y-11706700D02*
X5091700Y-11786700D01*
X5051700Y-11746700D02*
X5131700Y-11746700D01*
X5091700Y-11960700D02*
X5091700Y-12040700D01*
X5051700Y-12000700D02*
X5131700Y-12000700D01*
X5853700Y-11198700D02*
X5853700Y-11278700D01*
X5813700Y-11238700D02*
X5893700Y-11238700D01*
X5853700Y-11452700D02*
X5853700Y-11532700D01*
X5813700Y-11492700D02*
X5893700Y-11492700D01*
X5853700Y-11706700D02*
X5853700Y-11786700D01*
X5813700Y-11746700D02*
X5893700Y-11746700D01*
X5853700Y-11960700D02*
X5853700Y-12040700D01*
X5813700Y-12000700D02*
X5893700Y-12000700D01*
X4571500Y-5309100D02*
X4571500Y-5389100D01*
X4531500Y-5349100D02*
X4611500Y-5349100D01*
X4571500Y-5563100D02*
X4571500Y-5643100D01*
X4531500Y-5603100D02*
X4611500Y-5603100D01*
X4571500Y-5817100D02*
X4571500Y-5897100D01*
X4531500Y-5857100D02*
X4611500Y-5857100D01*
X4571500Y-6071100D02*
X4571500Y-6151100D01*
X4531500Y-6111100D02*
X4611500Y-6111100D01*
X4571500Y-6325100D02*
X4571500Y-6405100D01*
X4531500Y-6365100D02*
X4611500Y-6365100D01*
X4571500Y-6579100D02*
X4571500Y-6659100D01*
X4531500Y-6619100D02*
X4611500Y-6619100D01*
X4571500Y-6833100D02*
X4571500Y-6913100D01*
X4531500Y-6873100D02*
X4611500Y-6873100D01*
X4571500Y-7087100D02*
X4571500Y-7167100D01*
X4531500Y-7127100D02*
X4611500Y-7127100D01*
X4571500Y-7341100D02*
X4571500Y-7421100D01*
X4531500Y-7381100D02*
X4611500Y-7381100D01*
X4571500Y-7595100D02*
X4571500Y-7675100D01*
X4531500Y-7635100D02*
X4611500Y-7635100D01*
X6773300Y-10649700D02*
X6773300Y-10729700D01*
X6733300Y-10689700D02*
X6813300Y-10689700D01*
X7789300Y-10649700D02*
X7789300Y-10729700D01*
X7749300Y-10689700D02*
X7829300Y-10689700D01*
X8547100Y-5341500D02*
X8547100Y-5421500D01*
X8507100Y-5381500D02*
X8587100Y-5381500D01*
X8547100Y-5595500D02*
X8547100Y-5675500D01*
X8507100Y-5635500D02*
X8587100Y-5635500D01*
X8547100Y-5849500D02*
X8547100Y-5929500D01*
X8507100Y-5889500D02*
X8587100Y-5889500D01*
X8547100Y-6103500D02*
X8547100Y-6183500D01*
X8507100Y-6143500D02*
X8587100Y-6143500D01*
X8547100Y-6357500D02*
X8547100Y-6437500D01*
X8507100Y-6397500D02*
X8587100Y-6397500D01*
X8547100Y-6611500D02*
X8547100Y-6691500D01*
X8507100Y-6651500D02*
X8587100Y-6651500D01*
X8547100Y-6865500D02*
X8547100Y-6945500D01*
X8507100Y-6905500D02*
X8587100Y-6905500D01*
X8547100Y-7119500D02*
X8547100Y-7199500D01*
X8507100Y-7159500D02*
X8587100Y-7159500D01*
X8547100Y-7373500D02*
X8547100Y-7453500D01*
X8507100Y-7413500D02*
X8587100Y-7413500D01*
X8547100Y-7627500D02*
X8547100Y-7707500D01*
X8507100Y-7667500D02*
X8587100Y-7667500D01*
X4531700Y-10648700D02*
X4531700Y-10728700D01*
X4491700Y-10688700D02*
X4571700Y-10688700D01*
X5547700Y-10648700D02*
X5547700Y-10728700D01*
X5507700Y-10688700D02*
X5587700Y-10688700D01*
X5340500Y-7435100D02*
X5340500Y-7515100D01*
X5300500Y-7475100D02*
X5380500Y-7475100D01*
X5594500Y-7435100D02*
X5594500Y-7515100D01*
X5554500Y-7475100D02*
X5634500Y-7475100D01*
X5848500Y-7435100D02*
X5848500Y-7515100D01*
X5808500Y-7475100D02*
X5888500Y-7475100D01*
X6102500Y-7435100D02*
X6102500Y-7515100D01*
X6062500Y-7475100D02*
X6142500Y-7475100D01*
X6356500Y-7435100D02*
X6356500Y-7515100D01*
X6316500Y-7475100D02*
X6396500Y-7475100D01*
X6610500Y-7435100D02*
X6610500Y-7515100D01*
X6570500Y-7475100D02*
X6650500Y-7475100D01*
X6864500Y-7435100D02*
X6864500Y-7515100D01*
X6824500Y-7475100D02*
X6904500Y-7475100D01*
X7118500Y-7435100D02*
X7118500Y-7515100D01*
X7078500Y-7475100D02*
X7158500Y-7475100D01*
X7372500Y-7435100D02*
X7372500Y-7515100D01*
X7332500Y-7475100D02*
X7412500Y-7475100D01*
X7626500Y-7435100D02*
X7626500Y-7515100D01*
X7586500Y-7475100D02*
X7666500Y-7475100D01*
X7880500Y-7435100D02*
X7880500Y-7515100D01*
X7840500Y-7475100D02*
X7920500Y-7475100D01*
X4762500Y-4925700D02*
X4762500Y-5005700D01*
X4722500Y-4965700D02*
X4802500Y-4965700D01*
X5778500Y-4925700D02*
X5778500Y-5005700D01*
X5738500Y-4965700D02*
X5818500Y-4965700D01*
X6089720Y-4997520D02*
X6089720Y-4933880D01*
X6026080Y-4933880D01*
X6026080Y-4997520D01*
X6089720Y-4997520D01*
X6343720Y-4997520D02*
X6343720Y-4933880D01*
X6280080Y-4933880D01*
X6280080Y-4997520D01*
X6343720Y-4997520D01*
X6724720Y-4997520D02*
X6724720Y-4933880D01*
X6661080Y-4933880D01*
X6661080Y-4997520D01*
X6724720Y-4997520D01*
X6978720Y-4997520D02*
X6978720Y-4933880D01*
X6915080Y-4933880D01*
X6915080Y-4997520D01*
X6978720Y-4997520D01*
X5930900Y-10197300D02*
X5980900Y-10147300D01*
X5930900Y-10097300D01*
X5880900Y-10147300D01*
X5930900Y-10197300D01*
X6184900Y-10197300D02*
X6234900Y-10147300D01*
X6184900Y-10097300D01*
X6134900Y-10147300D01*
X6184900Y-10197300D01*
X3528300Y-7740700D02*
X3578300Y-7690700D01*
X3528300Y-7640700D01*
X3478300Y-7690700D01*
X3528300Y-7740700D01*
X3528300Y-8190700D02*
X3578300Y-8140700D01*
X3528300Y-8090700D01*
X3478300Y-8140700D01*
X3528300Y-8190700D01*
X4178300Y-7740700D02*
X4228300Y-7690700D01*
X4178300Y-7640700D01*
X4128300Y-7690700D01*
X4178300Y-7740700D01*
X4178300Y-8190700D02*
X4228300Y-8140700D01*
X4178300Y-8090700D01*
X4128300Y-8140700D01*
X4178300Y-8190700D01*
X4865072Y-8001246D02*
X4967072Y-8103246D01*
X4967072Y-8001246D02*
X4865072Y-8103246D01*
X4967072Y-8052246D02*
G75*
G03*
X4967072Y-8052246I-51000J0D01*
G01*
X4865072Y-9779246D02*
X4967072Y-9881246D01*
X4967072Y-9779246D02*
X4865072Y-9881246D01*
X4967072Y-9830246D02*
G75*
G03*
X4967072Y-9830246I-51000J0D01*
G01*
X5119072Y-8001246D02*
X5221072Y-8103246D01*
X5221072Y-8001246D02*
X5119072Y-8103246D01*
X5221072Y-8052246D02*
G75*
G03*
X5221072Y-8052246I-51000J0D01*
G01*
X5119072Y-9779246D02*
X5221072Y-9881246D01*
X5221072Y-9779246D02*
X5119072Y-9881246D01*
X5221072Y-9830246D02*
G75*
G03*
X5221072Y-9830246I-51000J0D01*
G01*
X5373072Y-8001246D02*
X5475072Y-8103246D01*
X5475072Y-8001246D02*
X5373072Y-8103246D01*
X5475072Y-8052246D02*
G75*
G03*
X5475072Y-8052246I-51000J0D01*
G01*
X5373072Y-9779246D02*
X5475072Y-9881246D01*
X5475072Y-9779246D02*
X5373072Y-9881246D01*
X5475072Y-9830246D02*
G75*
G03*
X5475072Y-9830246I-51000J0D01*
G01*
X5627072Y-8001246D02*
X5729072Y-8103246D01*
X5729072Y-8001246D02*
X5627072Y-8103246D01*
X5729072Y-8052246D02*
G75*
G03*
X5729072Y-8052246I-51000J0D01*
G01*
X5627072Y-9779246D02*
X5729072Y-9881246D01*
X5729072Y-9779246D02*
X5627072Y-9881246D01*
X5729072Y-9830246D02*
G75*
G03*
X5729072Y-9830246I-51000J0D01*
G01*
X5881072Y-8001246D02*
X5983072Y-8103246D01*
X5983072Y-8001246D02*
X5881072Y-8103246D01*
X5983072Y-8052246D02*
G75*
G03*
X5983072Y-8052246I-51000J0D01*
G01*
X5881072Y-9779246D02*
X5983072Y-9881246D01*
X5983072Y-9779246D02*
X5881072Y-9881246D01*
X5983072Y-9830246D02*
G75*
G03*
X5983072Y-9830246I-51000J0D01*
G01*
X6135072Y-8001246D02*
X6237072Y-8103246D01*
X6237072Y-8001246D02*
X6135072Y-8103246D01*
X6237072Y-8052246D02*
G75*
G03*
X6237072Y-8052246I-51000J0D01*
G01*
X6135072Y-9779246D02*
X6237072Y-9881246D01*
X6237072Y-9779246D02*
X6135072Y-9881246D01*
X6237072Y-9830246D02*
G75*
G03*
X6237072Y-9830246I-51000J0D01*
G01*
X6389072Y-8001246D02*
X6491072Y-8103246D01*
X6491072Y-8001246D02*
X6389072Y-8103246D01*
X6491072Y-8052246D02*
G75*
G03*
X6491072Y-8052246I-51000J0D01*
G01*
X6389072Y-9779246D02*
X6491072Y-9881246D01*
X6491072Y-9779246D02*
X6389072Y-9881246D01*
X6491072Y-9830246D02*
G75*
G03*
X6491072Y-9830246I-51000J0D01*
G01*
X6643072Y-8001246D02*
X6745072Y-8103246D01*
X6745072Y-8001246D02*
X6643072Y-8103246D01*
X6745072Y-8052246D02*
G75*
G03*
X6745072Y-8052246I-51000J0D01*
G01*
X6643072Y-9779246D02*
X6745072Y-9881246D01*
X6745072Y-9779246D02*
X6643072Y-9881246D01*
X6745072Y-9830246D02*
G75*
G03*
X6745072Y-9830246I-51000J0D01*
G01*
X6897072Y-8001246D02*
X6999072Y-8103246D01*
X6999072Y-8001246D02*
X6897072Y-8103246D01*
X6999072Y-8052246D02*
G75*
G03*
X6999072Y-8052246I-51000J0D01*
G01*
X6897072Y-9779246D02*
X6999072Y-9881246D01*
X6999072Y-9779246D02*
X6897072Y-9881246D01*
X6999072Y-9830246D02*
G75*
G03*
X6999072Y-9830246I-51000J0D01*
G01*
X7151072Y-8001246D02*
X7253072Y-8103246D01*
X7253072Y-8001246D02*
X7151072Y-8103246D01*
X7253072Y-8052246D02*
G75*
G03*
X7253072Y-8052246I-51000J0D01*
G01*
X7151072Y-9779246D02*
X7253072Y-9881246D01*
X7253072Y-9779246D02*
X7151072Y-9881246D01*
X7253072Y-9830246D02*
G75*
G03*
X7253072Y-9830246I-51000J0D01*
G01*
X7405072Y-8001246D02*
X7507072Y-8103246D01*
X7507072Y-8001246D02*
X7405072Y-8103246D01*
X7507072Y-8052246D02*
G75*
G03*
X7507072Y-8052246I-51000J0D01*
G01*
X7405072Y-9779246D02*
X7507072Y-9881246D01*
X7507072Y-9779246D02*
X7405072Y-9881246D01*
X7507072Y-9830246D02*
G75*
G03*
X7507072Y-9830246I-51000J0D01*
G01*
X7659072Y-8001246D02*
X7761072Y-8103246D01*
X7761072Y-8001246D02*
X7659072Y-8103246D01*
X7761072Y-8052246D02*
G75*
G03*
X7761072Y-8052246I-51000J0D01*
G01*
X7659072Y-9779246D02*
X7761072Y-9881246D01*
X7761072Y-9779246D02*
X7659072Y-9881246D01*
X7761072Y-9830246D02*
G75*
G03*
X7761072Y-9830246I-51000J0D01*
G01*
X6264100Y-13073300D02*
X6394100Y-13203300D01*
X6394100Y-13073300D02*
X6264100Y-13203300D01*
X6329100Y-13073300D02*
X6329100Y-13203300D01*
X6264100Y-13138300D02*
X6394100Y-13138300D01*
X7014100Y-13073300D02*
X7144100Y-13203300D01*
X7144100Y-13073300D02*
X7014100Y-13203300D01*
X7079100Y-13073300D02*
X7079100Y-13203300D01*
X7014100Y-13138300D02*
X7144100Y-13138300D01*
X7664100Y-13073300D02*
X7794100Y-13203300D01*
X7794100Y-13073300D02*
X7664100Y-13203300D01*
X7729100Y-13073300D02*
X7729100Y-13203300D01*
X7664100Y-13138300D02*
X7794100Y-13138300D01*
X8414100Y-13073300D02*
X8544100Y-13203300D01*
X8544100Y-13073300D02*
X8414100Y-13203300D01*
X8479100Y-13073300D02*
X8479100Y-13203300D01*
X8414100Y-13138300D02*
X8544100Y-13138300D01*
X4240300Y-13211500D02*
X4390300Y-13361500D01*
X4390300Y-13211500D02*
X4240300Y-13361500D01*
X4368334Y-13339533D02*
X4368334Y-13233466D01*
X4262267Y-13233466D01*
X4262267Y-13339533D01*
X4368334Y-13339533D01*
X4365300Y-13461500D02*
X4515300Y-13611500D01*
X4515300Y-13461500D02*
X4365300Y-13611500D01*
X4493334Y-13589533D02*
X4493334Y-13483466D01*
X4387267Y-13483466D01*
X4387267Y-13589533D01*
X4493334Y-13589533D01*
X4365300Y-13961500D02*
X4515300Y-14111500D01*
X4515300Y-13961500D02*
X4365300Y-14111500D01*
X4493334Y-14089533D02*
X4493334Y-13983466D01*
X4387267Y-13983466D01*
X4387267Y-14089533D01*
X4493334Y-14089533D01*
X5365300Y-13461500D02*
X5515300Y-13611500D01*
X5515300Y-13461500D02*
X5365300Y-13611500D01*
X5493334Y-13589533D02*
X5493334Y-13483466D01*
X5387267Y-13483466D01*
X5387267Y-13589533D01*
X5493334Y-13589533D01*
X5365300Y-13961500D02*
X5515300Y-14111500D01*
X5515300Y-13961500D02*
X5365300Y-14111500D01*
X5493334Y-14089533D02*
X5493334Y-13983466D01*
X5387267Y-13983466D01*
X5387267Y-14089533D01*
X5493334Y-14089533D01*
X5490300Y-13211500D02*
X5640300Y-13361500D01*
X5640300Y-13211500D02*
X5490300Y-13361500D01*
X5618333Y-13339533D02*
X5618333Y-13233466D01*
X5512267Y-13233466D01*
X5512267Y-13339533D01*
X5618333Y-13339533D01*
X7004100Y-13788300D02*
X7154100Y-13938300D01*
X7154100Y-13788300D02*
X7004100Y-13938300D01*
X7132133Y-13916333D02*
X7132133Y-13810266D01*
X7026066Y-13810266D01*
X7026066Y-13916333D01*
X7132133Y-13916333D01*
X8404100Y-13788300D02*
X8554100Y-13938300D01*
X8554100Y-13788300D02*
X8404100Y-13938300D01*
X8532134Y-13916333D02*
X8532134Y-13810266D01*
X8426067Y-13810266D01*
X8426067Y-13916333D01*
X8532134Y-13916333D01*
X10531100Y-2412900D02*
X10709100Y-2590900D01*
X10709100Y-2412900D02*
X10531100Y-2590900D01*
X10620100Y-2590900D02*
X10709100Y-2501900D01*
X10620100Y-2412900D01*
X10531100Y-2501900D01*
X10620100Y-2590900D01*
X10531100Y-3404900D02*
X10709100Y-3582900D01*
X10709100Y-3404900D02*
X10531100Y-3582900D01*
X10620100Y-3582900D02*
X10709100Y-3493900D01*
X10620100Y-3404900D01*
X10531100Y-3493900D01*
X10620100Y-3582900D01*
X10871100Y-2412900D02*
X11049100Y-2590900D01*
X11049100Y-2412900D02*
X10871100Y-2590900D01*
X10960100Y-2590900D02*
X11049100Y-2501900D01*
X10960100Y-2412900D01*
X10871100Y-2501900D01*
X10960100Y-2590900D01*
X10871100Y-3404900D02*
X11049100Y-3582900D01*
X11049100Y-3404900D02*
X10871100Y-3582900D01*
X10960100Y-3582900D02*
X11049100Y-3493900D01*
X10960100Y-3404900D01*
X10871100Y-3493900D01*
X10960100Y-3582900D01*
X9769100Y-2412900D02*
X9947100Y-2590900D01*
X9947100Y-2412900D02*
X9769100Y-2590900D01*
X9858100Y-2590900D02*
X9947100Y-2501900D01*
X9858100Y-2412900D01*
X9769100Y-2501900D01*
X9858100Y-2590900D01*
X9769100Y-3404900D02*
X9947100Y-3582900D01*
X9947100Y-3404900D02*
X9769100Y-3582900D01*
X9858100Y-3582900D02*
X9947100Y-3493900D01*
X9858100Y-3404900D01*
X9769100Y-3493900D01*
X9858100Y-3582900D01*
X10109100Y-2412900D02*
X10287100Y-2590900D01*
X10287100Y-2412900D02*
X10109100Y-2590900D01*
X10198100Y-2590900D02*
X10287100Y-2501900D01*
X10198100Y-2412900D01*
X10109100Y-2501900D01*
X10198100Y-2590900D01*
X10109100Y-3404900D02*
X10287100Y-3582900D01*
X10287100Y-3404900D02*
X10109100Y-3582900D01*
X10198100Y-3582900D02*
X10287100Y-3493900D01*
X10198100Y-3404900D01*
X10109100Y-3493900D01*
X10198100Y-3582900D01*
X2733300Y-2412900D02*
X2911300Y-2590900D01*
X2911300Y-2412900D02*
X2733300Y-2590900D01*
X2822300Y-2590900D02*
X2911300Y-2501900D01*
X2822300Y-2412900D01*
X2733300Y-2501900D01*
X2822300Y-2590900D01*
X2733300Y-3404900D02*
X2911300Y-3582900D01*
X2911300Y-3404900D02*
X2733300Y-3582900D01*
X2822300Y-3582900D02*
X2911300Y-3493900D01*
X2822300Y-3404900D01*
X2733300Y-3493900D01*
X2822300Y-3582900D01*
X3073300Y-2412900D02*
X3251300Y-2590900D01*
X3251300Y-2412900D02*
X3073300Y-2590900D01*
X3162300Y-2590900D02*
X3251300Y-2501900D01*
X3162300Y-2412900D01*
X3073300Y-2501900D01*
X3162300Y-2590900D01*
X3073300Y-3404900D02*
X3251300Y-3582900D01*
X3251300Y-3404900D02*
X3073300Y-3582900D01*
X3162300Y-3582900D02*
X3251300Y-3493900D01*
X3162300Y-3404900D01*
X3073300Y-3493900D01*
X3162300Y-3582900D01*
X1971300Y-2412900D02*
X2149300Y-2590900D01*
X2149300Y-2412900D02*
X1971300Y-2590900D01*
X2060300Y-2590900D02*
X2149300Y-2501900D01*
X2060300Y-2412900D01*
X1971300Y-2501900D01*
X2060300Y-2590900D01*
X1971300Y-3404900D02*
X2149300Y-3582900D01*
X2149300Y-3404900D02*
X1971300Y-3582900D01*
X2060300Y-3582900D02*
X2149300Y-3493900D01*
X2060300Y-3404900D01*
X1971300Y-3493900D01*
X2060300Y-3582900D01*
X2311300Y-2412900D02*
X2489300Y-2590900D01*
X2489300Y-2412900D02*
X2311300Y-2590900D01*
X2400300Y-2590900D02*
X2489300Y-2501900D01*
X2400300Y-2412900D01*
X2311300Y-2501900D01*
X2400300Y-2590900D01*
X2311300Y-3404900D02*
X2489300Y-3582900D01*
X2489300Y-3404900D02*
X2311300Y-3582900D01*
X2400300Y-3582900D02*
X2489300Y-3493900D01*
X2400300Y-3404900D01*
X2311300Y-3493900D01*
X2400300Y-3582900D01*
X3188500Y-6630700D02*
X3188500Y-6810700D01*
X3098500Y-6720700D02*
X3278500Y-6720700D01*
X3278500Y-6720700D02*
G75*
G03*
X3278500Y-6720700I-90000J0D01*
G01*
X3188500Y-7050700D02*
X3188500Y-7230700D01*
X3098500Y-7140700D02*
X3278500Y-7140700D01*
X3278500Y-7140700D02*
G75*
G03*
X3278500Y-7140700I-90000J0D01*
G01*
X3738500Y-6630700D02*
X3738500Y-6810700D01*
X3648500Y-6720700D02*
X3828500Y-6720700D01*
X3828500Y-6720700D02*
G75*
G03*
X3828500Y-6720700I-90000J0D01*
G01*
X3738500Y-7050700D02*
X3738500Y-7230700D01*
X3648500Y-7140700D02*
X3828500Y-7140700D01*
X3828500Y-7140700D02*
G75*
G03*
X3828500Y-7140700I-90000J0D01*
G01*
X4198500Y-3427900D02*
X4198500Y-3607900D01*
X4108500Y-3517900D02*
X4288500Y-3517900D01*
X4288500Y-3517900D02*
G75*
G03*
X4288500Y-3517900I-90000J0D01*
G01*
X4198500Y-3977900D02*
X4198500Y-4157900D01*
X4108500Y-4067900D02*
X4288500Y-4067900D01*
X4288500Y-4067900D02*
G75*
G03*
X4288500Y-4067900I-90000J0D01*
G01*
X4618500Y-3427900D02*
X4618500Y-3607900D01*
X4528500Y-3517900D02*
X4708500Y-3517900D01*
X4708500Y-3517900D02*
G75*
G03*
X4708500Y-3517900I-90000J0D01*
G01*
X4618500Y-3977900D02*
X4618500Y-4157900D01*
X4528500Y-4067900D02*
X4708500Y-4067900D01*
X4708500Y-4067900D02*
G75*
G03*
X4708500Y-4067900I-90000J0D01*
G01*
X5038500Y-3427900D02*
X5038500Y-3607900D01*
X4948500Y-3517900D02*
X5128500Y-3517900D01*
X5128500Y-3517900D02*
G75*
G03*
X5128500Y-3517900I-90000J0D01*
G01*
X5038500Y-3977900D02*
X5038500Y-4157900D01*
X4948500Y-4067900D02*
X5128500Y-4067900D01*
X5128500Y-4067900D02*
G75*
G03*
X5128500Y-4067900I-90000J0D01*
G01*
X5458500Y-3427900D02*
X5458500Y-3607900D01*
X5368500Y-3517900D02*
X5548500Y-3517900D01*
X5548500Y-3517900D02*
G75*
G03*
X5548500Y-3517900I-90000J0D01*
G01*
X5458500Y-3977900D02*
X5458500Y-4157900D01*
X5368500Y-4067900D02*
X5548500Y-4067900D01*
X5548500Y-4067900D02*
G75*
G03*
X5548500Y-4067900I-90000J0D01*
G01*
X5878500Y-3427900D02*
X5878500Y-3607900D01*
X5788500Y-3517900D02*
X5968500Y-3517900D01*
X5968500Y-3517900D02*
G75*
G03*
X5968500Y-3517900I-90000J0D01*
G01*
X5878500Y-3977900D02*
X5878500Y-4157900D01*
X5788500Y-4067900D02*
X5968500Y-4067900D01*
X5968500Y-4067900D02*
G75*
G03*
X5968500Y-4067900I-90000J0D01*
G01*
X6298500Y-3427900D02*
X6298500Y-3607900D01*
X6208500Y-3517900D02*
X6388500Y-3517900D01*
X6388500Y-3517900D02*
G75*
G03*
X6388500Y-3517900I-90000J0D01*
G01*
X6298500Y-3977900D02*
X6298500Y-4157900D01*
X6208500Y-4067900D02*
X6388500Y-4067900D01*
X6388500Y-4067900D02*
G75*
G03*
X6388500Y-4067900I-90000J0D01*
G01*
X6718500Y-3427900D02*
X6718500Y-3607900D01*
X6628500Y-3517900D02*
X6808500Y-3517900D01*
X6808500Y-3517900D02*
G75*
G03*
X6808500Y-3517900I-90000J0D01*
G01*
X6718500Y-3977900D02*
X6718500Y-4157900D01*
X6628500Y-4067900D02*
X6808500Y-4067900D01*
X6808500Y-4067900D02*
G75*
G03*
X6808500Y-4067900I-90000J0D01*
G01*
X7138500Y-3427900D02*
X7138500Y-3607900D01*
X7048500Y-3517900D02*
X7228500Y-3517900D01*
X7228500Y-3517900D02*
G75*
G03*
X7228500Y-3517900I-90000J0D01*
G01*
X7138500Y-3977900D02*
X7138500Y-4157900D01*
X7048500Y-4067900D02*
X7228500Y-4067900D01*
X7228500Y-4067900D02*
G75*
G03*
X7228500Y-4067900I-90000J0D01*
G01*
X7558500Y-3427900D02*
X7558500Y-3607900D01*
X7468500Y-3517900D02*
X7648500Y-3517900D01*
X7648500Y-3517900D02*
G75*
G03*
X7648500Y-3517900I-90000J0D01*
G01*
X7558500Y-3977900D02*
X7558500Y-4157900D01*
X7468500Y-4067900D02*
X7648500Y-4067900D01*
X7648500Y-4067900D02*
G75*
G03*
X7648500Y-4067900I-90000J0D01*
G01*
X7978500Y-3427900D02*
X7978500Y-3607900D01*
X7888500Y-3517900D02*
X8068500Y-3517900D01*
X8068500Y-3517900D02*
G75*
G03*
X8068500Y-3517900I-90000J0D01*
G01*
X7978500Y-3977900D02*
X7978500Y-4157900D01*
X7888500Y-4067900D02*
X8068500Y-4067900D01*
X8068500Y-4067900D02*
G75*
G03*
X8068500Y-4067900I-90000J0D01*
G01*
X8398500Y-3427900D02*
X8398500Y-3607900D01*
X8308500Y-3517900D02*
X8488500Y-3517900D01*
X8488500Y-3517900D02*
G75*
G03*
X8488500Y-3517900I-90000J0D01*
G01*
X8398500Y-3977900D02*
X8398500Y-4157900D01*
X8308500Y-4067900D02*
X8488500Y-4067900D01*
X8488500Y-4067900D02*
G75*
G03*
X8488500Y-4067900I-90000J0D01*
G01*
X8818500Y-3427900D02*
X8818500Y-3607900D01*
X8728500Y-3517900D02*
X8908500Y-3517900D01*
X8908500Y-3517900D02*
G75*
G03*
X8908500Y-3517900I-90000J0D01*
G01*
X8818500Y-3977900D02*
X8818500Y-4157900D01*
X8728500Y-4067900D02*
X8908500Y-4067900D01*
X8908500Y-4067900D02*
G75*
G03*
X8908500Y-4067900I-90000J0D01*
G01*
X3187500Y-8699700D02*
X3187500Y-8879700D01*
X3097500Y-8789700D02*
X3277500Y-8789700D01*
X3277500Y-8789700D02*
G75*
G03*
X3277500Y-8789700I-90000J0D01*
G01*
X3187500Y-9119700D02*
X3187500Y-9299700D01*
X3097500Y-9209700D02*
X3277500Y-9209700D01*
X3277500Y-9209700D02*
G75*
G03*
X3277500Y-9209700I-90000J0D01*
G01*
X3737500Y-8699700D02*
X3737500Y-8879700D01*
X3647500Y-8789700D02*
X3827500Y-8789700D01*
X3827500Y-8789700D02*
G75*
G03*
X3827500Y-8789700I-90000J0D01*
G01*
X3737500Y-9119700D02*
X3737500Y-9299700D01*
X3647500Y-9209700D02*
X3827500Y-9209700D01*
X3827500Y-9209700D02*
G75*
G03*
X3827500Y-9209700I-90000J0D01*
G01*
X3186500Y-10766700D02*
X3186500Y-10946700D01*
X3096500Y-10856700D02*
X3276500Y-10856700D01*
X3276500Y-10856700D02*
G75*
G03*
X3276500Y-10856700I-90000J0D01*
G01*
X3186500Y-11186700D02*
X3186500Y-11366700D01*
X3096500Y-11276700D02*
X3276500Y-11276700D01*
X3276500Y-11276700D02*
G75*
G03*
X3276500Y-11276700I-90000J0D01*
G01*
X3736500Y-10766700D02*
X3736500Y-10946700D01*
X3646500Y-10856700D02*
X3826500Y-10856700D01*
X3826500Y-10856700D02*
G75*
G03*
X3826500Y-10856700I-90000J0D01*
G01*
X3736500Y-11186700D02*
X3736500Y-11366700D01*
X3646500Y-11276700D02*
X3826500Y-11276700D01*
X3826500Y-11276700D02*
G75*
G03*
X3826500Y-11276700I-90000J0D01*
G01*
X3184500Y-12834700D02*
X3184500Y-13014700D01*
X3094500Y-12924700D02*
X3274500Y-12924700D01*
X3274500Y-12924700D02*
G75*
G03*
X3274500Y-12924700I-90000J0D01*
G01*
X3184500Y-13254700D02*
X3184500Y-13434700D01*
X3094500Y-13344700D02*
X3274500Y-13344700D01*
X3274500Y-13344700D02*
G75*
G03*
X3274500Y-13344700I-90000J0D01*
G01*
X3734500Y-12834700D02*
X3734500Y-13014700D01*
X3644500Y-12924700D02*
X3824500Y-12924700D01*
X3824500Y-12924700D02*
G75*
G03*
X3824500Y-12924700I-90000J0D01*
G01*
X3734500Y-13254700D02*
X3734500Y-13434700D01*
X3644500Y-13344700D02*
X3824500Y-13344700D01*
X3824500Y-13344700D02*
G75*
G03*
X3824500Y-13344700I-90000J0D01*
G01*
X9291700Y-12834300D02*
X9291700Y-13014300D01*
X9201700Y-12924300D02*
X9381700Y-12924300D01*
X9381700Y-12924300D02*
G75*
G03*
X9381700Y-12924300I-90000J0D01*
G01*
X9291700Y-13254300D02*
X9291700Y-13434300D01*
X9201700Y-13344300D02*
X9381700Y-13344300D01*
X9381700Y-13344300D02*
G75*
G03*
X9381700Y-13344300I-90000J0D01*
G01*
X9841700Y-12834300D02*
X9841700Y-13014300D01*
X9751700Y-12924300D02*
X9931700Y-12924300D01*
X9931700Y-12924300D02*
G75*
G03*
X9931700Y-12924300I-90000J0D01*
G01*
X9841700Y-13254300D02*
X9841700Y-13434300D01*
X9751700Y-13344300D02*
X9931700Y-13344300D01*
X9931700Y-13344300D02*
G75*
G03*
X9931700Y-13344300I-90000J0D01*
G01*
X9292700Y-10766300D02*
X9292700Y-10946300D01*
X9202700Y-10856300D02*
X9382700Y-10856300D01*
X9382700Y-10856300D02*
G75*
G03*
X9382700Y-10856300I-90000J0D01*
G01*
X9292700Y-11186300D02*
X9292700Y-11366300D01*
X9202700Y-11276300D02*
X9382700Y-11276300D01*
X9382700Y-11276300D02*
G75*
G03*
X9382700Y-11276300I-90000J0D01*
G01*
X9842700Y-10766300D02*
X9842700Y-10946300D01*
X9752700Y-10856300D02*
X9932700Y-10856300D01*
X9932700Y-10856300D02*
G75*
G03*
X9932700Y-10856300I-90000J0D01*
G01*
X9842700Y-11186300D02*
X9842700Y-11366300D01*
X9752700Y-11276300D02*
X9932700Y-11276300D01*
X9932700Y-11276300D02*
G75*
G03*
X9932700Y-11276300I-90000J0D01*
G01*
X9289700Y-4557300D02*
X9289700Y-4737300D01*
X9199700Y-4647300D02*
X9379700Y-4647300D01*
X9379700Y-4647300D02*
G75*
G03*
X9379700Y-4647300I-90000J0D01*
G01*
X9289700Y-4977300D02*
X9289700Y-5157300D01*
X9199700Y-5067300D02*
X9379700Y-5067300D01*
X9379700Y-5067300D02*
G75*
G03*
X9379700Y-5067300I-90000J0D01*
G01*
X9839700Y-4557300D02*
X9839700Y-4737300D01*
X9749700Y-4647300D02*
X9929700Y-4647300D01*
X9929700Y-4647300D02*
G75*
G03*
X9929700Y-4647300I-90000J0D01*
G01*
X9839700Y-4977300D02*
X9839700Y-5157300D01*
X9749700Y-5067300D02*
X9929700Y-5067300D01*
X9929700Y-5067300D02*
G75*
G03*
X9929700Y-5067300I-90000J0D01*
G01*
X9290700Y-8699300D02*
X9290700Y-8879300D01*
X9200700Y-8789300D02*
X9380700Y-8789300D01*
X9380700Y-8789300D02*
G75*
G03*
X9380700Y-8789300I-90000J0D01*
G01*
X9290700Y-9119300D02*
X9290700Y-9299300D01*
X9200700Y-9209300D02*
X9380700Y-9209300D01*
X9380700Y-9209300D02*
G75*
G03*
X9380700Y-9209300I-90000J0D01*
G01*
X9840700Y-8699300D02*
X9840700Y-8879300D01*
X9750700Y-8789300D02*
X9930700Y-8789300D01*
X9930700Y-8789300D02*
G75*
G03*
X9930700Y-8789300I-90000J0D01*
G01*
X9840700Y-9119300D02*
X9840700Y-9299300D01*
X9750700Y-9209300D02*
X9930700Y-9209300D01*
X9930700Y-9209300D02*
G75*
G03*
X9930700Y-9209300I-90000J0D01*
G01*
X9290700Y-6628300D02*
X9290700Y-6808300D01*
X9200700Y-6718300D02*
X9380700Y-6718300D01*
X9380700Y-6718300D02*
G75*
G03*
X9380700Y-6718300I-90000J0D01*
G01*
X9290700Y-7048300D02*
X9290700Y-7228300D01*
X9200700Y-7138300D02*
X9380700Y-7138300D01*
X9380700Y-7138300D02*
G75*
G03*
X9380700Y-7138300I-90000J0D01*
G01*
X9840700Y-6628300D02*
X9840700Y-6808300D01*
X9750700Y-6718300D02*
X9930700Y-6718300D01*
X9930700Y-6718300D02*
G75*
G03*
X9930700Y-6718300I-90000J0D01*
G01*
X9840700Y-7048300D02*
X9840700Y-7228300D01*
X9750700Y-7138300D02*
X9930700Y-7138300D01*
X9930700Y-7138300D02*
G75*
G03*
X9930700Y-7138300I-90000J0D01*
G01*
X3187500Y-4561700D02*
X3187500Y-4741700D01*
X3097500Y-4651700D02*
X3277500Y-4651700D01*
X3277500Y-4651700D02*
G75*
G03*
X3277500Y-4651700I-90000J0D01*
G01*
X3187500Y-4981700D02*
X3187500Y-5161700D01*
X3097500Y-5071700D02*
X3277500Y-5071700D01*
X3277500Y-5071700D02*
G75*
G03*
X3277500Y-5071700I-90000J0D01*
G01*
X3737500Y-4561700D02*
X3737500Y-4741700D01*
X3647500Y-4651700D02*
X3827500Y-4651700D01*
X3827500Y-4651700D02*
G75*
G03*
X3827500Y-4651700I-90000J0D01*
G01*
X3737500Y-4981700D02*
X3737500Y-5161700D01*
X3647500Y-5071700D02*
X3827500Y-5071700D01*
X3827500Y-5071700D02*
G75*
G03*
X3827500Y-5071700I-90000J0D01*
G01*
D12*
X2069628Y-14887714D02*
X2069628Y-14587714D01*
X2141057Y-14587714D01*
X2183914Y-14602000D01*
X2212486Y-14630571D01*
X2226771Y-14659143D01*
X2241057Y-14716286D01*
X2241057Y-14759143D01*
X2226771Y-14816286D01*
X2212486Y-14844857D01*
X2183914Y-14873429D01*
X2141057Y-14887714D01*
X2069628Y-14887714D01*
X2369628Y-14887714D02*
X2369628Y-14687714D01*
X2369628Y-14744857D02*
X2383914Y-14716286D01*
X2398200Y-14702000D01*
X2426771Y-14687714D01*
X2455343Y-14687714D01*
X2555343Y-14887714D02*
X2555343Y-14687714D01*
X2555343Y-14587714D02*
X2541057Y-14602000D01*
X2555343Y-14616286D01*
X2569628Y-14602000D01*
X2555343Y-14587714D01*
X2555343Y-14616286D01*
X2741057Y-14887714D02*
X2712486Y-14873429D01*
X2698200Y-14844857D01*
X2698200Y-14587714D01*
X2898200Y-14887714D02*
X2869628Y-14873429D01*
X2855343Y-14844857D01*
X2855343Y-14587714D01*
X3241057Y-14887714D02*
X3241057Y-14587714D01*
X3341057Y-14802000D01*
X3441057Y-14587714D01*
X3441057Y-14887714D01*
X3712486Y-14887714D02*
X3712486Y-14730571D01*
X3698200Y-14702000D01*
X3669628Y-14687714D01*
X3612486Y-14687714D01*
X3583914Y-14702000D01*
X3712486Y-14873429D02*
X3683914Y-14887714D01*
X3612486Y-14887714D01*
X3583914Y-14873429D01*
X3569628Y-14844857D01*
X3569628Y-14816286D01*
X3583914Y-14787714D01*
X3612486Y-14773429D01*
X3683914Y-14773429D01*
X3712486Y-14759143D01*
X3855343Y-14687714D02*
X3855343Y-14987714D01*
X3855343Y-14702000D02*
X3883914Y-14687714D01*
X3941057Y-14687714D01*
X3969628Y-14702000D01*
X3983914Y-14716286D01*
X3998200Y-14744857D01*
X3998200Y-14830571D01*
X3983914Y-14859143D01*
X3969628Y-14873429D01*
X3941057Y-14887714D01*
X3883914Y-14887714D01*
X3855343Y-14873429D01*
X4126771Y-14859143D02*
X4141057Y-14873429D01*
X4126771Y-14887714D01*
X4112486Y-14873429D01*
X4126771Y-14859143D01*
X4126771Y-14887714D01*
X4126771Y-14702000D02*
X4141057Y-14716286D01*
X4126771Y-14730571D01*
X4112486Y-14716286D01*
X4126771Y-14702000D01*
X4126771Y-14730571D01*
X1743200Y-15362000D02*
X1783200Y-15402000D01*
X1783200Y-15362000D02*
X1743200Y-15402000D01*
X2126771Y-15217714D02*
X2155343Y-15217714D01*
X2183914Y-15232000D01*
X2198200Y-15246286D01*
X2212486Y-15274857D01*
X2226771Y-15332000D01*
X2226771Y-15403429D01*
X2212486Y-15460571D01*
X2198200Y-15489143D01*
X2183914Y-15503429D01*
X2155343Y-15517714D01*
X2126771Y-15517714D01*
X2098200Y-15503429D01*
X2083914Y-15489143D01*
X2069628Y-15460571D01*
X2055343Y-15403429D01*
X2055343Y-15332000D01*
X2069628Y-15274857D01*
X2083914Y-15246286D01*
X2098200Y-15232000D01*
X2126771Y-15217714D01*
X2355343Y-15489143D02*
X2369628Y-15503429D01*
X2355343Y-15517714D01*
X2341057Y-15503429D01*
X2355343Y-15489143D01*
X2355343Y-15517714D01*
X2626771Y-15317714D02*
X2626771Y-15517714D01*
X2555343Y-15203429D02*
X2483914Y-15417714D01*
X2669628Y-15417714D01*
X2841057Y-15217714D02*
X2869628Y-15217714D01*
X2898200Y-15232000D01*
X2912486Y-15246286D01*
X2926771Y-15274857D01*
X2941057Y-15332000D01*
X2941057Y-15403429D01*
X2926771Y-15460571D01*
X2912486Y-15489143D01*
X2898200Y-15503429D01*
X2869628Y-15517714D01*
X2841057Y-15517714D01*
X2812486Y-15503429D01*
X2798200Y-15489143D01*
X2783914Y-15460571D01*
X2769628Y-15403429D01*
X2769628Y-15332000D01*
X2783914Y-15274857D01*
X2798200Y-15246286D01*
X2812486Y-15232000D01*
X2841057Y-15217714D01*
X3069628Y-15517714D02*
X3069628Y-15317714D01*
X3069628Y-15346286D02*
X3083914Y-15332000D01*
X3112486Y-15317714D01*
X3155343Y-15317714D01*
X3183914Y-15332000D01*
X3198200Y-15360571D01*
X3198200Y-15517714D01*
X3198200Y-15360571D02*
X3212486Y-15332000D01*
X3241057Y-15317714D01*
X3283914Y-15317714D01*
X3312486Y-15332000D01*
X3326771Y-15360571D01*
X3326771Y-15517714D01*
X3469628Y-15517714D02*
X3469628Y-15317714D01*
X3469628Y-15346286D02*
X3483914Y-15332000D01*
X3512486Y-15317714D01*
X3555343Y-15317714D01*
X3583914Y-15332000D01*
X3598200Y-15360571D01*
X3598200Y-15517714D01*
X3598200Y-15360571D02*
X3612486Y-15332000D01*
X3641057Y-15317714D01*
X3683914Y-15317714D01*
X3712486Y-15332000D01*
X3726771Y-15360571D01*
X3726771Y-15517714D01*
X4312486Y-15203429D02*
X4055343Y-15589143D01*
X4698200Y-15217714D02*
X4726771Y-15217714D01*
X4755343Y-15232000D01*
X4769628Y-15246286D01*
X4783914Y-15274857D01*
X4798200Y-15332000D01*
X4798200Y-15403429D01*
X4783914Y-15460571D01*
X4769628Y-15489143D01*
X4755343Y-15503429D01*
X4726771Y-15517714D01*
X4698200Y-15517714D01*
X4669628Y-15503429D01*
X4655343Y-15489143D01*
X4641057Y-15460571D01*
X4626771Y-15403429D01*
X4626771Y-15332000D01*
X4641057Y-15274857D01*
X4655343Y-15246286D01*
X4669628Y-15232000D01*
X4698200Y-15217714D01*
X4926771Y-15489143D02*
X4941057Y-15503429D01*
X4926771Y-15517714D01*
X4912486Y-15503429D01*
X4926771Y-15489143D01*
X4926771Y-15517714D01*
X5126771Y-15217714D02*
X5155343Y-15217714D01*
X5183914Y-15232000D01*
X5198200Y-15246286D01*
X5212486Y-15274857D01*
X5226771Y-15332000D01*
X5226771Y-15403429D01*
X5212486Y-15460571D01*
X5198200Y-15489143D01*
X5183914Y-15503429D01*
X5155343Y-15517714D01*
X5126771Y-15517714D01*
X5098200Y-15503429D01*
X5083914Y-15489143D01*
X5069628Y-15460571D01*
X5055343Y-15403429D01*
X5055343Y-15332000D01*
X5069628Y-15274857D01*
X5083914Y-15246286D01*
X5098200Y-15232000D01*
X5126771Y-15217714D01*
X5512486Y-15517714D02*
X5341057Y-15517714D01*
X5426771Y-15517714D02*
X5426771Y-15217714D01*
X5398200Y-15260571D01*
X5369628Y-15289143D01*
X5341057Y-15303429D01*
X5769628Y-15217714D02*
X5712486Y-15217714D01*
X5683914Y-15232000D01*
X5669628Y-15246286D01*
X5641057Y-15289143D01*
X5626771Y-15346286D01*
X5626771Y-15460571D01*
X5641057Y-15489143D01*
X5655343Y-15503429D01*
X5683914Y-15517714D01*
X5741057Y-15517714D01*
X5769628Y-15503429D01*
X5783914Y-15489143D01*
X5798200Y-15460571D01*
X5798200Y-15389143D01*
X5783914Y-15360571D01*
X5769628Y-15346286D01*
X5741057Y-15332000D01*
X5683914Y-15332000D01*
X5655343Y-15346286D01*
X5641057Y-15360571D01*
X5626771Y-15389143D01*
X5912486Y-15217714D02*
X5912486Y-15274857D01*
X6026771Y-15217714D02*
X6026771Y-15274857D01*
X6469628Y-15632000D02*
X6455343Y-15617714D01*
X6426771Y-15574857D01*
X6412486Y-15546286D01*
X6398200Y-15503429D01*
X6383914Y-15432000D01*
X6383914Y-15374857D01*
X6398200Y-15303429D01*
X6412486Y-15260571D01*
X6426771Y-15232000D01*
X6455343Y-15189143D01*
X6469628Y-15174857D01*
X6712486Y-15317714D02*
X6712486Y-15517714D01*
X6641057Y-15203429D02*
X6569628Y-15417714D01*
X6755343Y-15417714D01*
X7026771Y-15517714D02*
X6855343Y-15517714D01*
X6941057Y-15517714D02*
X6941057Y-15217714D01*
X6912486Y-15260571D01*
X6883914Y-15289143D01*
X6855343Y-15303429D01*
X7126771Y-15217714D02*
X7326771Y-15217714D01*
X7198200Y-15517714D01*
X7669628Y-15517714D02*
X7669628Y-15217714D01*
X7798200Y-15517714D02*
X7798200Y-15360571D01*
X7783914Y-15332000D01*
X7755343Y-15317714D01*
X7712486Y-15317714D01*
X7683914Y-15332000D01*
X7669628Y-15346286D01*
X7983914Y-15517714D02*
X7955343Y-15503429D01*
X7941057Y-15489143D01*
X7926771Y-15460571D01*
X7926771Y-15374857D01*
X7941057Y-15346286D01*
X7955343Y-15332000D01*
X7983914Y-15317714D01*
X8026771Y-15317714D01*
X8055343Y-15332000D01*
X8069628Y-15346286D01*
X8083914Y-15374857D01*
X8083914Y-15460571D01*
X8069628Y-15489143D01*
X8055343Y-15503429D01*
X8026771Y-15517714D01*
X7983914Y-15517714D01*
X8255343Y-15517714D02*
X8226771Y-15503429D01*
X8212486Y-15474857D01*
X8212486Y-15217714D01*
X8483914Y-15503429D02*
X8455343Y-15517714D01*
X8398200Y-15517714D01*
X8369628Y-15503429D01*
X8355343Y-15474857D01*
X8355343Y-15360571D01*
X8369628Y-15332000D01*
X8398200Y-15317714D01*
X8455343Y-15317714D01*
X8483914Y-15332000D01*
X8498200Y-15360571D01*
X8498200Y-15389143D01*
X8355343Y-15417714D01*
X8612486Y-15503429D02*
X8641057Y-15517714D01*
X8698200Y-15517714D01*
X8726771Y-15503429D01*
X8741057Y-15474857D01*
X8741057Y-15460571D01*
X8726771Y-15432000D01*
X8698200Y-15417714D01*
X8655343Y-15417714D01*
X8626771Y-15403429D01*
X8612486Y-15374857D01*
X8612486Y-15360571D01*
X8626771Y-15332000D01*
X8655343Y-15317714D01*
X8698200Y-15317714D01*
X8726771Y-15332000D01*
X8841057Y-15632000D02*
X8855343Y-15617714D01*
X8883914Y-15574857D01*
X8898200Y-15546286D01*
X8912486Y-15503429D01*
X8926771Y-15432000D01*
X8926771Y-15374857D01*
X8912486Y-15303429D01*
X8898200Y-15260571D01*
X8883914Y-15232000D01*
X8855343Y-15189143D01*
X8841057Y-15174857D01*
X1783200Y-15778000D02*
G75*
G03*
X1783200Y-15778000I-35000J0D01*
G01*
X2126771Y-15613714D02*
X2155343Y-15613714D01*
X2183914Y-15628000D01*
X2198200Y-15642286D01*
X2212486Y-15670857D01*
X2226771Y-15728000D01*
X2226771Y-15799429D01*
X2212486Y-15856571D01*
X2198200Y-15885143D01*
X2183914Y-15899429D01*
X2155343Y-15913714D01*
X2126771Y-15913714D01*
X2098200Y-15899429D01*
X2083914Y-15885143D01*
X2069628Y-15856571D01*
X2055343Y-15799429D01*
X2055343Y-15728000D01*
X2069628Y-15670857D01*
X2083914Y-15642286D01*
X2098200Y-15628000D01*
X2126771Y-15613714D01*
X2355343Y-15885143D02*
X2369628Y-15899429D01*
X2355343Y-15913714D01*
X2341057Y-15899429D01*
X2355343Y-15885143D01*
X2355343Y-15913714D01*
X2469628Y-15613714D02*
X2669628Y-15613714D01*
X2541057Y-15913714D01*
X2841057Y-15613714D02*
X2869628Y-15613714D01*
X2898200Y-15628000D01*
X2912486Y-15642286D01*
X2926771Y-15670857D01*
X2941057Y-15728000D01*
X2941057Y-15799429D01*
X2926771Y-15856571D01*
X2912486Y-15885143D01*
X2898200Y-15899429D01*
X2869628Y-15913714D01*
X2841057Y-15913714D01*
X2812486Y-15899429D01*
X2798200Y-15885143D01*
X2783914Y-15856571D01*
X2769628Y-15799429D01*
X2769628Y-15728000D01*
X2783914Y-15670857D01*
X2798200Y-15642286D01*
X2812486Y-15628000D01*
X2841057Y-15613714D01*
X3069628Y-15913714D02*
X3069628Y-15713714D01*
X3069628Y-15742286D02*
X3083914Y-15728000D01*
X3112486Y-15713714D01*
X3155343Y-15713714D01*
X3183914Y-15728000D01*
X3198200Y-15756571D01*
X3198200Y-15913714D01*
X3198200Y-15756571D02*
X3212486Y-15728000D01*
X3241057Y-15713714D01*
X3283914Y-15713714D01*
X3312486Y-15728000D01*
X3326771Y-15756571D01*
X3326771Y-15913714D01*
X3469628Y-15913714D02*
X3469628Y-15713714D01*
X3469628Y-15742286D02*
X3483914Y-15728000D01*
X3512486Y-15713714D01*
X3555343Y-15713714D01*
X3583914Y-15728000D01*
X3598200Y-15756571D01*
X3598200Y-15913714D01*
X3598200Y-15756571D02*
X3612486Y-15728000D01*
X3641057Y-15713714D01*
X3683914Y-15713714D01*
X3712486Y-15728000D01*
X3726771Y-15756571D01*
X3726771Y-15913714D01*
X4312486Y-15599429D02*
X4055343Y-15985143D01*
X4698200Y-15613714D02*
X4726771Y-15613714D01*
X4755343Y-15628000D01*
X4769628Y-15642286D01*
X4783914Y-15670857D01*
X4798200Y-15728000D01*
X4798200Y-15799429D01*
X4783914Y-15856571D01*
X4769628Y-15885143D01*
X4755343Y-15899429D01*
X4726771Y-15913714D01*
X4698200Y-15913714D01*
X4669628Y-15899429D01*
X4655343Y-15885143D01*
X4641057Y-15856571D01*
X4626771Y-15799429D01*
X4626771Y-15728000D01*
X4641057Y-15670857D01*
X4655343Y-15642286D01*
X4669628Y-15628000D01*
X4698200Y-15613714D01*
X4926771Y-15885143D02*
X4941057Y-15899429D01*
X4926771Y-15913714D01*
X4912486Y-15899429D01*
X4926771Y-15885143D01*
X4926771Y-15913714D01*
X5126771Y-15613714D02*
X5155343Y-15613714D01*
X5183914Y-15628000D01*
X5198200Y-15642286D01*
X5212486Y-15670857D01*
X5226771Y-15728000D01*
X5226771Y-15799429D01*
X5212486Y-15856571D01*
X5198200Y-15885143D01*
X5183914Y-15899429D01*
X5155343Y-15913714D01*
X5126771Y-15913714D01*
X5098200Y-15899429D01*
X5083914Y-15885143D01*
X5069628Y-15856571D01*
X5055343Y-15799429D01*
X5055343Y-15728000D01*
X5069628Y-15670857D01*
X5083914Y-15642286D01*
X5098200Y-15628000D01*
X5126771Y-15613714D01*
X5341057Y-15642286D02*
X5355343Y-15628000D01*
X5383914Y-15613714D01*
X5455343Y-15613714D01*
X5483914Y-15628000D01*
X5498200Y-15642286D01*
X5512486Y-15670857D01*
X5512486Y-15699429D01*
X5498200Y-15742286D01*
X5326771Y-15913714D01*
X5512486Y-15913714D01*
X5683914Y-15742286D02*
X5655343Y-15728000D01*
X5641057Y-15713714D01*
X5626771Y-15685143D01*
X5626771Y-15670857D01*
X5641057Y-15642286D01*
X5655343Y-15628000D01*
X5683914Y-15613714D01*
X5741057Y-15613714D01*
X5769628Y-15628000D01*
X5783914Y-15642286D01*
X5798200Y-15670857D01*
X5798200Y-15685143D01*
X5783914Y-15713714D01*
X5769628Y-15728000D01*
X5741057Y-15742286D01*
X5683914Y-15742286D01*
X5655343Y-15756571D01*
X5641057Y-15770857D01*
X5626771Y-15799429D01*
X5626771Y-15856571D01*
X5641057Y-15885143D01*
X5655343Y-15899429D01*
X5683914Y-15913714D01*
X5741057Y-15913714D01*
X5769628Y-15899429D01*
X5783914Y-15885143D01*
X5798200Y-15856571D01*
X5798200Y-15799429D01*
X5783914Y-15770857D01*
X5769628Y-15756571D01*
X5741057Y-15742286D01*
X5912486Y-15613714D02*
X5912486Y-15670857D01*
X6026771Y-15613714D02*
X6026771Y-15670857D01*
X6469628Y-16028000D02*
X6455343Y-16013714D01*
X6426771Y-15970857D01*
X6412486Y-15942286D01*
X6398200Y-15899429D01*
X6383914Y-15828000D01*
X6383914Y-15770857D01*
X6398200Y-15699429D01*
X6412486Y-15656571D01*
X6426771Y-15628000D01*
X6455343Y-15585143D01*
X6469628Y-15570857D01*
X6741057Y-15913714D02*
X6569628Y-15913714D01*
X6655343Y-15913714D02*
X6655343Y-15613714D01*
X6626771Y-15656571D01*
X6598200Y-15685143D01*
X6569628Y-15699429D01*
X6912486Y-15742286D02*
X6883914Y-15728000D01*
X6869628Y-15713714D01*
X6855343Y-15685143D01*
X6855343Y-15670857D01*
X6869628Y-15642286D01*
X6883914Y-15628000D01*
X6912486Y-15613714D01*
X6969628Y-15613714D01*
X6998200Y-15628000D01*
X7012486Y-15642286D01*
X7026771Y-15670857D01*
X7026771Y-15685143D01*
X7012486Y-15713714D01*
X6998200Y-15728000D01*
X6969628Y-15742286D01*
X6912486Y-15742286D01*
X6883914Y-15756571D01*
X6869628Y-15770857D01*
X6855343Y-15799429D01*
X6855343Y-15856571D01*
X6869628Y-15885143D01*
X6883914Y-15899429D01*
X6912486Y-15913714D01*
X6969628Y-15913714D01*
X6998200Y-15899429D01*
X7012486Y-15885143D01*
X7026771Y-15856571D01*
X7026771Y-15799429D01*
X7012486Y-15770857D01*
X6998200Y-15756571D01*
X6969628Y-15742286D01*
X7383914Y-15913714D02*
X7383914Y-15613714D01*
X7512486Y-15913714D02*
X7512486Y-15756571D01*
X7498200Y-15728000D01*
X7469628Y-15713714D01*
X7426771Y-15713714D01*
X7398200Y-15728000D01*
X7383914Y-15742286D01*
X7698200Y-15913714D02*
X7669628Y-15899429D01*
X7655343Y-15885143D01*
X7641057Y-15856571D01*
X7641057Y-15770857D01*
X7655343Y-15742286D01*
X7669628Y-15728000D01*
X7698200Y-15713714D01*
X7741057Y-15713714D01*
X7769628Y-15728000D01*
X7783914Y-15742286D01*
X7798200Y-15770857D01*
X7798200Y-15856571D01*
X7783914Y-15885143D01*
X7769628Y-15899429D01*
X7741057Y-15913714D01*
X7698200Y-15913714D01*
X7969628Y-15913714D02*
X7941057Y-15899429D01*
X7926771Y-15870857D01*
X7926771Y-15613714D01*
X8198200Y-15899429D02*
X8169628Y-15913714D01*
X8112486Y-15913714D01*
X8083914Y-15899429D01*
X8069628Y-15870857D01*
X8069628Y-15756571D01*
X8083914Y-15728000D01*
X8112486Y-15713714D01*
X8169628Y-15713714D01*
X8198200Y-15728000D01*
X8212486Y-15756571D01*
X8212486Y-15785143D01*
X8069628Y-15813714D01*
X8326771Y-15899429D02*
X8355343Y-15913714D01*
X8412486Y-15913714D01*
X8441057Y-15899429D01*
X8455343Y-15870857D01*
X8455343Y-15856571D01*
X8441057Y-15828000D01*
X8412486Y-15813714D01*
X8369628Y-15813714D01*
X8341057Y-15799429D01*
X8326771Y-15770857D01*
X8326771Y-15756571D01*
X8341057Y-15728000D01*
X8369628Y-15713714D01*
X8412486Y-15713714D01*
X8441057Y-15728000D01*
X8555343Y-16028000D02*
X8569628Y-16013714D01*
X8598200Y-15970857D01*
X8612486Y-15942286D01*
X8626771Y-15899429D01*
X8641057Y-15828000D01*
X8641057Y-15770857D01*
X8626771Y-15699429D01*
X8612486Y-15656571D01*
X8598200Y-15628000D01*
X8569628Y-15585143D01*
X8555343Y-15570857D01*
X1743200Y-16134000D02*
X1743200Y-16214000D01*
X1703200Y-16174000D02*
X1783200Y-16174000D01*
X2126771Y-16009714D02*
X2155343Y-16009714D01*
X2183914Y-16024000D01*
X2198200Y-16038286D01*
X2212486Y-16066857D01*
X2226771Y-16124000D01*
X2226771Y-16195429D01*
X2212486Y-16252571D01*
X2198200Y-16281143D01*
X2183914Y-16295429D01*
X2155343Y-16309714D01*
X2126771Y-16309714D01*
X2098200Y-16295429D01*
X2083914Y-16281143D01*
X2069628Y-16252571D01*
X2055343Y-16195429D01*
X2055343Y-16124000D01*
X2069628Y-16066857D01*
X2083914Y-16038286D01*
X2098200Y-16024000D01*
X2126771Y-16009714D01*
X2355343Y-16281143D02*
X2369628Y-16295429D01*
X2355343Y-16309714D01*
X2341057Y-16295429D01*
X2355343Y-16281143D01*
X2355343Y-16309714D01*
X2541057Y-16138286D02*
X2512486Y-16124000D01*
X2498200Y-16109714D01*
X2483914Y-16081143D01*
X2483914Y-16066857D01*
X2498200Y-16038286D01*
X2512486Y-16024000D01*
X2541057Y-16009714D01*
X2598200Y-16009714D01*
X2626771Y-16024000D01*
X2641057Y-16038286D01*
X2655343Y-16066857D01*
X2655343Y-16081143D01*
X2641057Y-16109714D01*
X2626771Y-16124000D01*
X2598200Y-16138286D01*
X2541057Y-16138286D01*
X2512486Y-16152571D01*
X2498200Y-16166857D01*
X2483914Y-16195429D01*
X2483914Y-16252571D01*
X2498200Y-16281143D01*
X2512486Y-16295429D01*
X2541057Y-16309714D01*
X2598200Y-16309714D01*
X2626771Y-16295429D01*
X2641057Y-16281143D01*
X2655343Y-16252571D01*
X2655343Y-16195429D01*
X2641057Y-16166857D01*
X2626771Y-16152571D01*
X2598200Y-16138286D01*
X2841057Y-16009714D02*
X2869628Y-16009714D01*
X2898200Y-16024000D01*
X2912486Y-16038286D01*
X2926771Y-16066857D01*
X2941057Y-16124000D01*
X2941057Y-16195429D01*
X2926771Y-16252571D01*
X2912486Y-16281143D01*
X2898200Y-16295429D01*
X2869628Y-16309714D01*
X2841057Y-16309714D01*
X2812486Y-16295429D01*
X2798200Y-16281143D01*
X2783914Y-16252571D01*
X2769628Y-16195429D01*
X2769628Y-16124000D01*
X2783914Y-16066857D01*
X2798200Y-16038286D01*
X2812486Y-16024000D01*
X2841057Y-16009714D01*
X3069628Y-16309714D02*
X3069628Y-16109714D01*
X3069628Y-16138286D02*
X3083914Y-16124000D01*
X3112486Y-16109714D01*
X3155343Y-16109714D01*
X3183914Y-16124000D01*
X3198200Y-16152571D01*
X3198200Y-16309714D01*
X3198200Y-16152571D02*
X3212486Y-16124000D01*
X3241057Y-16109714D01*
X3283914Y-16109714D01*
X3312486Y-16124000D01*
X3326771Y-16152571D01*
X3326771Y-16309714D01*
X3469628Y-16309714D02*
X3469628Y-16109714D01*
X3469628Y-16138286D02*
X3483914Y-16124000D01*
X3512486Y-16109714D01*
X3555343Y-16109714D01*
X3583914Y-16124000D01*
X3598200Y-16152571D01*
X3598200Y-16309714D01*
X3598200Y-16152571D02*
X3612486Y-16124000D01*
X3641057Y-16109714D01*
X3683914Y-16109714D01*
X3712486Y-16124000D01*
X3726771Y-16152571D01*
X3726771Y-16309714D01*
X4312486Y-15995429D02*
X4055343Y-16381143D01*
X4698200Y-16009714D02*
X4726771Y-16009714D01*
X4755343Y-16024000D01*
X4769628Y-16038286D01*
X4783914Y-16066857D01*
X4798200Y-16124000D01*
X4798200Y-16195429D01*
X4783914Y-16252571D01*
X4769628Y-16281143D01*
X4755343Y-16295429D01*
X4726771Y-16309714D01*
X4698200Y-16309714D01*
X4669628Y-16295429D01*
X4655343Y-16281143D01*
X4641057Y-16252571D01*
X4626771Y-16195429D01*
X4626771Y-16124000D01*
X4641057Y-16066857D01*
X4655343Y-16038286D01*
X4669628Y-16024000D01*
X4698200Y-16009714D01*
X4926771Y-16281143D02*
X4941057Y-16295429D01*
X4926771Y-16309714D01*
X4912486Y-16295429D01*
X4926771Y-16281143D01*
X4926771Y-16309714D01*
X5126771Y-16009714D02*
X5155343Y-16009714D01*
X5183914Y-16024000D01*
X5198200Y-16038286D01*
X5212486Y-16066857D01*
X5226771Y-16124000D01*
X5226771Y-16195429D01*
X5212486Y-16252571D01*
X5198200Y-16281143D01*
X5183914Y-16295429D01*
X5155343Y-16309714D01*
X5126771Y-16309714D01*
X5098200Y-16295429D01*
X5083914Y-16281143D01*
X5069628Y-16252571D01*
X5055343Y-16195429D01*
X5055343Y-16124000D01*
X5069628Y-16066857D01*
X5083914Y-16038286D01*
X5098200Y-16024000D01*
X5126771Y-16009714D01*
X5326771Y-16009714D02*
X5512486Y-16009714D01*
X5412486Y-16124000D01*
X5455343Y-16124000D01*
X5483914Y-16138286D01*
X5498200Y-16152571D01*
X5512486Y-16181143D01*
X5512486Y-16252571D01*
X5498200Y-16281143D01*
X5483914Y-16295429D01*
X5455343Y-16309714D01*
X5369628Y-16309714D01*
X5341057Y-16295429D01*
X5326771Y-16281143D01*
X5798200Y-16309714D02*
X5626771Y-16309714D01*
X5712486Y-16309714D02*
X5712486Y-16009714D01*
X5683914Y-16052571D01*
X5655343Y-16081143D01*
X5626771Y-16095429D01*
X5912486Y-16009714D02*
X5912486Y-16066857D01*
X6026771Y-16009714D02*
X6026771Y-16066857D01*
X6469628Y-16424000D02*
X6455343Y-16409714D01*
X6426771Y-16366857D01*
X6412486Y-16338286D01*
X6398200Y-16295429D01*
X6383914Y-16224000D01*
X6383914Y-16166857D01*
X6398200Y-16095429D01*
X6412486Y-16052571D01*
X6426771Y-16024000D01*
X6455343Y-15981143D01*
X6469628Y-15966857D01*
X6555343Y-16009714D02*
X6755343Y-16009714D01*
X6626771Y-16309714D01*
X6855343Y-16038286D02*
X6869628Y-16024000D01*
X6898200Y-16009714D01*
X6969628Y-16009714D01*
X6998200Y-16024000D01*
X7012486Y-16038286D01*
X7026771Y-16066857D01*
X7026771Y-16095429D01*
X7012486Y-16138286D01*
X6841057Y-16309714D01*
X7026771Y-16309714D01*
X7383914Y-16309714D02*
X7383914Y-16009714D01*
X7512486Y-16309714D02*
X7512486Y-16152571D01*
X7498200Y-16124000D01*
X7469628Y-16109714D01*
X7426771Y-16109714D01*
X7398200Y-16124000D01*
X7383914Y-16138286D01*
X7698200Y-16309714D02*
X7669628Y-16295429D01*
X7655343Y-16281143D01*
X7641057Y-16252571D01*
X7641057Y-16166857D01*
X7655343Y-16138286D01*
X7669628Y-16124000D01*
X7698200Y-16109714D01*
X7741057Y-16109714D01*
X7769628Y-16124000D01*
X7783914Y-16138286D01*
X7798200Y-16166857D01*
X7798200Y-16252571D01*
X7783914Y-16281143D01*
X7769628Y-16295429D01*
X7741057Y-16309714D01*
X7698200Y-16309714D01*
X7969628Y-16309714D02*
X7941057Y-16295429D01*
X7926771Y-16266857D01*
X7926771Y-16009714D01*
X8198200Y-16295429D02*
X8169628Y-16309714D01*
X8112486Y-16309714D01*
X8083914Y-16295429D01*
X8069628Y-16266857D01*
X8069628Y-16152571D01*
X8083914Y-16124000D01*
X8112486Y-16109714D01*
X8169628Y-16109714D01*
X8198200Y-16124000D01*
X8212486Y-16152571D01*
X8212486Y-16181143D01*
X8069628Y-16209714D01*
X8326771Y-16295429D02*
X8355343Y-16309714D01*
X8412486Y-16309714D01*
X8441057Y-16295429D01*
X8455343Y-16266857D01*
X8455343Y-16252571D01*
X8441057Y-16224000D01*
X8412486Y-16209714D01*
X8369628Y-16209714D01*
X8341057Y-16195429D01*
X8326771Y-16166857D01*
X8326771Y-16152571D01*
X8341057Y-16124000D01*
X8369628Y-16109714D01*
X8412486Y-16109714D01*
X8441057Y-16124000D01*
X8555343Y-16424000D02*
X8569628Y-16409714D01*
X8598200Y-16366857D01*
X8612486Y-16338286D01*
X8626771Y-16295429D01*
X8641057Y-16224000D01*
X8641057Y-16166857D01*
X8626771Y-16095429D01*
X8612486Y-16052571D01*
X8598200Y-16024000D01*
X8569628Y-15981143D01*
X8555343Y-15966857D01*
X1770020Y-16601820D02*
X1770020Y-16538180D01*
X1706380Y-16538180D01*
X1706380Y-16601820D01*
X1770020Y-16601820D01*
X2126771Y-16405714D02*
X2155343Y-16405714D01*
X2183914Y-16420000D01*
X2198200Y-16434286D01*
X2212486Y-16462857D01*
X2226771Y-16520000D01*
X2226771Y-16591429D01*
X2212486Y-16648571D01*
X2198200Y-16677143D01*
X2183914Y-16691429D01*
X2155343Y-16705714D01*
X2126771Y-16705714D01*
X2098200Y-16691429D01*
X2083914Y-16677143D01*
X2069628Y-16648571D01*
X2055343Y-16591429D01*
X2055343Y-16520000D01*
X2069628Y-16462857D01*
X2083914Y-16434286D01*
X2098200Y-16420000D01*
X2126771Y-16405714D01*
X2355343Y-16677143D02*
X2369628Y-16691429D01*
X2355343Y-16705714D01*
X2341057Y-16691429D01*
X2355343Y-16677143D01*
X2355343Y-16705714D01*
X2512486Y-16705714D02*
X2569628Y-16705714D01*
X2598200Y-16691429D01*
X2612486Y-16677143D01*
X2641057Y-16634286D01*
X2655343Y-16577143D01*
X2655343Y-16462857D01*
X2641057Y-16434286D01*
X2626771Y-16420000D01*
X2598200Y-16405714D01*
X2541057Y-16405714D01*
X2512486Y-16420000D01*
X2498200Y-16434286D01*
X2483914Y-16462857D01*
X2483914Y-16534286D01*
X2498200Y-16562857D01*
X2512486Y-16577143D01*
X2541057Y-16591429D01*
X2598200Y-16591429D01*
X2626771Y-16577143D01*
X2641057Y-16562857D01*
X2655343Y-16534286D01*
X2841057Y-16405714D02*
X2869628Y-16405714D01*
X2898200Y-16420000D01*
X2912486Y-16434286D01*
X2926771Y-16462857D01*
X2941057Y-16520000D01*
X2941057Y-16591429D01*
X2926771Y-16648571D01*
X2912486Y-16677143D01*
X2898200Y-16691429D01*
X2869628Y-16705714D01*
X2841057Y-16705714D01*
X2812486Y-16691429D01*
X2798200Y-16677143D01*
X2783914Y-16648571D01*
X2769628Y-16591429D01*
X2769628Y-16520000D01*
X2783914Y-16462857D01*
X2798200Y-16434286D01*
X2812486Y-16420000D01*
X2841057Y-16405714D01*
X3069628Y-16705714D02*
X3069628Y-16505714D01*
X3069628Y-16534286D02*
X3083914Y-16520000D01*
X3112486Y-16505714D01*
X3155343Y-16505714D01*
X3183914Y-16520000D01*
X3198200Y-16548571D01*
X3198200Y-16705714D01*
X3198200Y-16548571D02*
X3212486Y-16520000D01*
X3241057Y-16505714D01*
X3283914Y-16505714D01*
X3312486Y-16520000D01*
X3326771Y-16548571D01*
X3326771Y-16705714D01*
X3469628Y-16705714D02*
X3469628Y-16505714D01*
X3469628Y-16534286D02*
X3483914Y-16520000D01*
X3512486Y-16505714D01*
X3555343Y-16505714D01*
X3583914Y-16520000D01*
X3598200Y-16548571D01*
X3598200Y-16705714D01*
X3598200Y-16548571D02*
X3612486Y-16520000D01*
X3641057Y-16505714D01*
X3683914Y-16505714D01*
X3712486Y-16520000D01*
X3726771Y-16548571D01*
X3726771Y-16705714D01*
X4312486Y-16391429D02*
X4055343Y-16777143D01*
X4698200Y-16405714D02*
X4726771Y-16405714D01*
X4755343Y-16420000D01*
X4769628Y-16434286D01*
X4783914Y-16462857D01*
X4798200Y-16520000D01*
X4798200Y-16591429D01*
X4783914Y-16648571D01*
X4769628Y-16677143D01*
X4755343Y-16691429D01*
X4726771Y-16705714D01*
X4698200Y-16705714D01*
X4669628Y-16691429D01*
X4655343Y-16677143D01*
X4641057Y-16648571D01*
X4626771Y-16591429D01*
X4626771Y-16520000D01*
X4641057Y-16462857D01*
X4655343Y-16434286D01*
X4669628Y-16420000D01*
X4698200Y-16405714D01*
X4926771Y-16677143D02*
X4941057Y-16691429D01*
X4926771Y-16705714D01*
X4912486Y-16691429D01*
X4926771Y-16677143D01*
X4926771Y-16705714D01*
X5126771Y-16405714D02*
X5155343Y-16405714D01*
X5183914Y-16420000D01*
X5198200Y-16434286D01*
X5212486Y-16462857D01*
X5226771Y-16520000D01*
X5226771Y-16591429D01*
X5212486Y-16648571D01*
X5198200Y-16677143D01*
X5183914Y-16691429D01*
X5155343Y-16705714D01*
X5126771Y-16705714D01*
X5098200Y-16691429D01*
X5083914Y-16677143D01*
X5069628Y-16648571D01*
X5055343Y-16591429D01*
X5055343Y-16520000D01*
X5069628Y-16462857D01*
X5083914Y-16434286D01*
X5098200Y-16420000D01*
X5126771Y-16405714D01*
X5326771Y-16405714D02*
X5512486Y-16405714D01*
X5412486Y-16520000D01*
X5455343Y-16520000D01*
X5483914Y-16534286D01*
X5498200Y-16548571D01*
X5512486Y-16577143D01*
X5512486Y-16648571D01*
X5498200Y-16677143D01*
X5483914Y-16691429D01*
X5455343Y-16705714D01*
X5369628Y-16705714D01*
X5341057Y-16691429D01*
X5326771Y-16677143D01*
X5783914Y-16405714D02*
X5641057Y-16405714D01*
X5626771Y-16548571D01*
X5641057Y-16534286D01*
X5669628Y-16520000D01*
X5741057Y-16520000D01*
X5769628Y-16534286D01*
X5783914Y-16548571D01*
X5798200Y-16577143D01*
X5798200Y-16648571D01*
X5783914Y-16677143D01*
X5769628Y-16691429D01*
X5741057Y-16705714D01*
X5669628Y-16705714D01*
X5641057Y-16691429D01*
X5626771Y-16677143D01*
X5912486Y-16405714D02*
X5912486Y-16462857D01*
X6026771Y-16405714D02*
X6026771Y-16462857D01*
X6469628Y-16820000D02*
X6455343Y-16805714D01*
X6426771Y-16762857D01*
X6412486Y-16734286D01*
X6398200Y-16691429D01*
X6383914Y-16620000D01*
X6383914Y-16562857D01*
X6398200Y-16491429D01*
X6412486Y-16448571D01*
X6426771Y-16420000D01*
X6455343Y-16377143D01*
X6469628Y-16362857D01*
X6712486Y-16505714D02*
X6712486Y-16705714D01*
X6641057Y-16391429D02*
X6569628Y-16605714D01*
X6755343Y-16605714D01*
X7098200Y-16705714D02*
X7098200Y-16405714D01*
X7226771Y-16705714D02*
X7226771Y-16548571D01*
X7212486Y-16520000D01*
X7183914Y-16505714D01*
X7141057Y-16505714D01*
X7112486Y-16520000D01*
X7098200Y-16534286D01*
X7412486Y-16705714D02*
X7383914Y-16691429D01*
X7369628Y-16677143D01*
X7355343Y-16648571D01*
X7355343Y-16562857D01*
X7369628Y-16534286D01*
X7383914Y-16520000D01*
X7412486Y-16505714D01*
X7455343Y-16505714D01*
X7483914Y-16520000D01*
X7498200Y-16534286D01*
X7512486Y-16562857D01*
X7512486Y-16648571D01*
X7498200Y-16677143D01*
X7483914Y-16691429D01*
X7455343Y-16705714D01*
X7412486Y-16705714D01*
X7683914Y-16705714D02*
X7655343Y-16691429D01*
X7641057Y-16662857D01*
X7641057Y-16405714D01*
X7912486Y-16691429D02*
X7883914Y-16705714D01*
X7826771Y-16705714D01*
X7798200Y-16691429D01*
X7783914Y-16662857D01*
X7783914Y-16548571D01*
X7798200Y-16520000D01*
X7826771Y-16505714D01*
X7883914Y-16505714D01*
X7912486Y-16520000D01*
X7926771Y-16548571D01*
X7926771Y-16577143D01*
X7783914Y-16605714D01*
X8041057Y-16691429D02*
X8069628Y-16705714D01*
X8126771Y-16705714D01*
X8155343Y-16691429D01*
X8169628Y-16662857D01*
X8169628Y-16648571D01*
X8155343Y-16620000D01*
X8126771Y-16605714D01*
X8083914Y-16605714D01*
X8055343Y-16591429D01*
X8041057Y-16562857D01*
X8041057Y-16548571D01*
X8055343Y-16520000D01*
X8083914Y-16505714D01*
X8126771Y-16505714D01*
X8155343Y-16520000D01*
X8269628Y-16820000D02*
X8283914Y-16805714D01*
X8312486Y-16762857D01*
X8326771Y-16734286D01*
X8341057Y-16691429D01*
X8355343Y-16620000D01*
X8355343Y-16562857D01*
X8341057Y-16491429D01*
X8326771Y-16448571D01*
X8312486Y-16420000D01*
X8283914Y-16377143D01*
X8269628Y-16362857D01*
X1733200Y-17016000D02*
X1783200Y-16966000D01*
X1733200Y-16916000D01*
X1683200Y-16966000D01*
X1733200Y-17016000D01*
X2226771Y-17101714D02*
X2055343Y-17101714D01*
X2141057Y-17101714D02*
X2141057Y-16801714D01*
X2112486Y-16844572D01*
X2083914Y-16873143D01*
X2055343Y-16887429D01*
X2355343Y-17073143D02*
X2369628Y-17087429D01*
X2355343Y-17101714D01*
X2341057Y-17087429D01*
X2355343Y-17073143D01*
X2355343Y-17101714D01*
X2555343Y-16801714D02*
X2583914Y-16801714D01*
X2612486Y-16816000D01*
X2626771Y-16830286D01*
X2641057Y-16858857D01*
X2655343Y-16916000D01*
X2655343Y-16987429D01*
X2641057Y-17044572D01*
X2626771Y-17073143D01*
X2612486Y-17087429D01*
X2583914Y-17101714D01*
X2555343Y-17101714D01*
X2526771Y-17087429D01*
X2512486Y-17073143D01*
X2498200Y-17044572D01*
X2483914Y-16987429D01*
X2483914Y-16916000D01*
X2498200Y-16858857D01*
X2512486Y-16830286D01*
X2526771Y-16816000D01*
X2555343Y-16801714D01*
X2841057Y-16801714D02*
X2869628Y-16801714D01*
X2898200Y-16816000D01*
X2912486Y-16830286D01*
X2926771Y-16858857D01*
X2941057Y-16916000D01*
X2941057Y-16987429D01*
X2926771Y-17044572D01*
X2912486Y-17073143D01*
X2898200Y-17087429D01*
X2869628Y-17101714D01*
X2841057Y-17101714D01*
X2812486Y-17087429D01*
X2798200Y-17073143D01*
X2783914Y-17044572D01*
X2769628Y-16987429D01*
X2769628Y-16916000D01*
X2783914Y-16858857D01*
X2798200Y-16830286D01*
X2812486Y-16816000D01*
X2841057Y-16801714D01*
X3069628Y-17101714D02*
X3069628Y-16901714D01*
X3069628Y-16930286D02*
X3083914Y-16916000D01*
X3112486Y-16901714D01*
X3155343Y-16901714D01*
X3183914Y-16916000D01*
X3198200Y-16944572D01*
X3198200Y-17101714D01*
X3198200Y-16944572D02*
X3212486Y-16916000D01*
X3241057Y-16901714D01*
X3283914Y-16901714D01*
X3312486Y-16916000D01*
X3326771Y-16944572D01*
X3326771Y-17101714D01*
X3469628Y-17101714D02*
X3469628Y-16901714D01*
X3469628Y-16930286D02*
X3483914Y-16916000D01*
X3512486Y-16901714D01*
X3555343Y-16901714D01*
X3583914Y-16916000D01*
X3598200Y-16944572D01*
X3598200Y-17101714D01*
X3598200Y-16944572D02*
X3612486Y-16916000D01*
X3641057Y-16901714D01*
X3683914Y-16901714D01*
X3712486Y-16916000D01*
X3726771Y-16944572D01*
X3726771Y-17101714D01*
X4312486Y-16787429D02*
X4055343Y-17173143D01*
X4698200Y-16801714D02*
X4726771Y-16801714D01*
X4755343Y-16816000D01*
X4769628Y-16830286D01*
X4783914Y-16858857D01*
X4798200Y-16916000D01*
X4798200Y-16987429D01*
X4783914Y-17044572D01*
X4769628Y-17073143D01*
X4755343Y-17087429D01*
X4726771Y-17101714D01*
X4698200Y-17101714D01*
X4669628Y-17087429D01*
X4655343Y-17073143D01*
X4641057Y-17044572D01*
X4626771Y-16987429D01*
X4626771Y-16916000D01*
X4641057Y-16858857D01*
X4655343Y-16830286D01*
X4669628Y-16816000D01*
X4698200Y-16801714D01*
X4926771Y-17073143D02*
X4941057Y-17087429D01*
X4926771Y-17101714D01*
X4912486Y-17087429D01*
X4926771Y-17073143D01*
X4926771Y-17101714D01*
X5126771Y-16801714D02*
X5155343Y-16801714D01*
X5183914Y-16816000D01*
X5198200Y-16830286D01*
X5212486Y-16858857D01*
X5226771Y-16916000D01*
X5226771Y-16987429D01*
X5212486Y-17044572D01*
X5198200Y-17073143D01*
X5183914Y-17087429D01*
X5155343Y-17101714D01*
X5126771Y-17101714D01*
X5098200Y-17087429D01*
X5083914Y-17073143D01*
X5069628Y-17044572D01*
X5055343Y-16987429D01*
X5055343Y-16916000D01*
X5069628Y-16858857D01*
X5083914Y-16830286D01*
X5098200Y-16816000D01*
X5126771Y-16801714D01*
X5326771Y-16801714D02*
X5512486Y-16801714D01*
X5412486Y-16916000D01*
X5455343Y-16916000D01*
X5483914Y-16930286D01*
X5498200Y-16944572D01*
X5512486Y-16973143D01*
X5512486Y-17044572D01*
X5498200Y-17073143D01*
X5483914Y-17087429D01*
X5455343Y-17101714D01*
X5369628Y-17101714D01*
X5341057Y-17087429D01*
X5326771Y-17073143D01*
X5655343Y-17101714D02*
X5712486Y-17101714D01*
X5741057Y-17087429D01*
X5755343Y-17073143D01*
X5783914Y-17030286D01*
X5798200Y-16973143D01*
X5798200Y-16858857D01*
X5783914Y-16830286D01*
X5769628Y-16816000D01*
X5741057Y-16801714D01*
X5683914Y-16801714D01*
X5655343Y-16816000D01*
X5641057Y-16830286D01*
X5626771Y-16858857D01*
X5626771Y-16930286D01*
X5641057Y-16958857D01*
X5655343Y-16973143D01*
X5683914Y-16987429D01*
X5741057Y-16987429D01*
X5769628Y-16973143D01*
X5783914Y-16958857D01*
X5798200Y-16930286D01*
X5912486Y-16801714D02*
X5912486Y-16858857D01*
X6026771Y-16801714D02*
X6026771Y-16858857D01*
X6469628Y-17216000D02*
X6455343Y-17201714D01*
X6426771Y-17158857D01*
X6412486Y-17130286D01*
X6398200Y-17087429D01*
X6383914Y-17016000D01*
X6383914Y-16958857D01*
X6398200Y-16887429D01*
X6412486Y-16844572D01*
X6426771Y-16816000D01*
X6455343Y-16773143D01*
X6469628Y-16758857D01*
X6712486Y-16801714D02*
X6655343Y-16801714D01*
X6626771Y-16816000D01*
X6612486Y-16830286D01*
X6583914Y-16873143D01*
X6569628Y-16930286D01*
X6569628Y-17044572D01*
X6583914Y-17073143D01*
X6598200Y-17087429D01*
X6626771Y-17101714D01*
X6683914Y-17101714D01*
X6712486Y-17087429D01*
X6726771Y-17073143D01*
X6741057Y-17044572D01*
X6741057Y-16973143D01*
X6726771Y-16944572D01*
X6712486Y-16930286D01*
X6683914Y-16916000D01*
X6626771Y-16916000D01*
X6598200Y-16930286D01*
X6583914Y-16944572D01*
X6569628Y-16973143D01*
X7098200Y-17101714D02*
X7098200Y-16801714D01*
X7226771Y-17101714D02*
X7226771Y-16944572D01*
X7212486Y-16916000D01*
X7183914Y-16901714D01*
X7141057Y-16901714D01*
X7112486Y-16916000D01*
X7098200Y-16930286D01*
X7412486Y-17101714D02*
X7383914Y-17087429D01*
X7369628Y-17073143D01*
X7355343Y-17044572D01*
X7355343Y-16958857D01*
X7369628Y-16930286D01*
X7383914Y-16916000D01*
X7412486Y-16901714D01*
X7455343Y-16901714D01*
X7483914Y-16916000D01*
X7498200Y-16930286D01*
X7512486Y-16958857D01*
X7512486Y-17044572D01*
X7498200Y-17073143D01*
X7483914Y-17087429D01*
X7455343Y-17101714D01*
X7412486Y-17101714D01*
X7683914Y-17101714D02*
X7655343Y-17087429D01*
X7641057Y-17058857D01*
X7641057Y-16801714D01*
X7912486Y-17087429D02*
X7883914Y-17101714D01*
X7826771Y-17101714D01*
X7798200Y-17087429D01*
X7783914Y-17058857D01*
X7783914Y-16944572D01*
X7798200Y-16916000D01*
X7826771Y-16901714D01*
X7883914Y-16901714D01*
X7912486Y-16916000D01*
X7926771Y-16944572D01*
X7926771Y-16973143D01*
X7783914Y-17001714D01*
X8041057Y-17087429D02*
X8069628Y-17101714D01*
X8126771Y-17101714D01*
X8155343Y-17087429D01*
X8169628Y-17058857D01*
X8169628Y-17044572D01*
X8155343Y-17016000D01*
X8126771Y-17001714D01*
X8083914Y-17001714D01*
X8055343Y-16987429D01*
X8041057Y-16958857D01*
X8041057Y-16944572D01*
X8055343Y-16916000D01*
X8083914Y-16901714D01*
X8126771Y-16901714D01*
X8155343Y-16916000D01*
X8269628Y-17216000D02*
X8283914Y-17201714D01*
X8312486Y-17158857D01*
X8326771Y-17130286D01*
X8341057Y-17087429D01*
X8355343Y-17016000D01*
X8355343Y-16958857D01*
X8341057Y-16887429D01*
X8326771Y-16844572D01*
X8312486Y-16816000D01*
X8283914Y-16773143D01*
X8269628Y-16758857D01*
X1681200Y-17311000D02*
X1783200Y-17413000D01*
X1783200Y-17311000D02*
X1681200Y-17413000D01*
X1783200Y-17362000D02*
G75*
G03*
X1783200Y-17362000I-51000J0D01*
G01*
X2226771Y-17497714D02*
X2055343Y-17497714D01*
X2141057Y-17497714D02*
X2141057Y-17197714D01*
X2112486Y-17240572D01*
X2083914Y-17269143D01*
X2055343Y-17283429D01*
X2355343Y-17469143D02*
X2369628Y-17483429D01*
X2355343Y-17497714D01*
X2341057Y-17483429D01*
X2355343Y-17469143D01*
X2355343Y-17497714D01*
X2555343Y-17197714D02*
X2583914Y-17197714D01*
X2612486Y-17212000D01*
X2626771Y-17226286D01*
X2641057Y-17254857D01*
X2655343Y-17312000D01*
X2655343Y-17383429D01*
X2641057Y-17440572D01*
X2626771Y-17469143D01*
X2612486Y-17483429D01*
X2583914Y-17497714D01*
X2555343Y-17497714D01*
X2526771Y-17483429D01*
X2512486Y-17469143D01*
X2498200Y-17440572D01*
X2483914Y-17383429D01*
X2483914Y-17312000D01*
X2498200Y-17254857D01*
X2512486Y-17226286D01*
X2526771Y-17212000D01*
X2555343Y-17197714D01*
X2769628Y-17226286D02*
X2783914Y-17212000D01*
X2812486Y-17197714D01*
X2883914Y-17197714D01*
X2912486Y-17212000D01*
X2926771Y-17226286D01*
X2941057Y-17254857D01*
X2941057Y-17283429D01*
X2926771Y-17326286D01*
X2755343Y-17497714D01*
X2941057Y-17497714D01*
X3069628Y-17497714D02*
X3069628Y-17297714D01*
X3069628Y-17326286D02*
X3083914Y-17312000D01*
X3112486Y-17297714D01*
X3155343Y-17297714D01*
X3183914Y-17312000D01*
X3198200Y-17340572D01*
X3198200Y-17497714D01*
X3198200Y-17340572D02*
X3212486Y-17312000D01*
X3241057Y-17297714D01*
X3283914Y-17297714D01*
X3312486Y-17312000D01*
X3326771Y-17340572D01*
X3326771Y-17497714D01*
X3469628Y-17497714D02*
X3469628Y-17297714D01*
X3469628Y-17326286D02*
X3483914Y-17312000D01*
X3512486Y-17297714D01*
X3555343Y-17297714D01*
X3583914Y-17312000D01*
X3598200Y-17340572D01*
X3598200Y-17497714D01*
X3598200Y-17340572D02*
X3612486Y-17312000D01*
X3641057Y-17297714D01*
X3683914Y-17297714D01*
X3712486Y-17312000D01*
X3726771Y-17340572D01*
X3726771Y-17497714D01*
X4312486Y-17183429D02*
X4055343Y-17569143D01*
X4698200Y-17197714D02*
X4726771Y-17197714D01*
X4755343Y-17212000D01*
X4769628Y-17226286D01*
X4783914Y-17254857D01*
X4798200Y-17312000D01*
X4798200Y-17383429D01*
X4783914Y-17440572D01*
X4769628Y-17469143D01*
X4755343Y-17483429D01*
X4726771Y-17497714D01*
X4698200Y-17497714D01*
X4669628Y-17483429D01*
X4655343Y-17469143D01*
X4641057Y-17440572D01*
X4626771Y-17383429D01*
X4626771Y-17312000D01*
X4641057Y-17254857D01*
X4655343Y-17226286D01*
X4669628Y-17212000D01*
X4698200Y-17197714D01*
X4926771Y-17469143D02*
X4941057Y-17483429D01*
X4926771Y-17497714D01*
X4912486Y-17483429D01*
X4926771Y-17469143D01*
X4926771Y-17497714D01*
X5126771Y-17197714D02*
X5155343Y-17197714D01*
X5183914Y-17212000D01*
X5198200Y-17226286D01*
X5212486Y-17254857D01*
X5226771Y-17312000D01*
X5226771Y-17383429D01*
X5212486Y-17440572D01*
X5198200Y-17469143D01*
X5183914Y-17483429D01*
X5155343Y-17497714D01*
X5126771Y-17497714D01*
X5098200Y-17483429D01*
X5083914Y-17469143D01*
X5069628Y-17440572D01*
X5055343Y-17383429D01*
X5055343Y-17312000D01*
X5069628Y-17254857D01*
X5083914Y-17226286D01*
X5098200Y-17212000D01*
X5126771Y-17197714D01*
X5483914Y-17297714D02*
X5483914Y-17497714D01*
X5412486Y-17183429D02*
X5341057Y-17397714D01*
X5526771Y-17397714D01*
X5698200Y-17197714D02*
X5726771Y-17197714D01*
X5755343Y-17212000D01*
X5769628Y-17226286D01*
X5783914Y-17254857D01*
X5798200Y-17312000D01*
X5798200Y-17383429D01*
X5783914Y-17440572D01*
X5769628Y-17469143D01*
X5755343Y-17483429D01*
X5726771Y-17497714D01*
X5698200Y-17497714D01*
X5669628Y-17483429D01*
X5655343Y-17469143D01*
X5641057Y-17440572D01*
X5626771Y-17383429D01*
X5626771Y-17312000D01*
X5641057Y-17254857D01*
X5655343Y-17226286D01*
X5669628Y-17212000D01*
X5698200Y-17197714D01*
X5912486Y-17197714D02*
X5912486Y-17254857D01*
X6026771Y-17197714D02*
X6026771Y-17254857D01*
X6469628Y-17612000D02*
X6455343Y-17597714D01*
X6426771Y-17554857D01*
X6412486Y-17526286D01*
X6398200Y-17483429D01*
X6383914Y-17412000D01*
X6383914Y-17354857D01*
X6398200Y-17283429D01*
X6412486Y-17240572D01*
X6426771Y-17212000D01*
X6455343Y-17169143D01*
X6469628Y-17154857D01*
X6569628Y-17226286D02*
X6583914Y-17212000D01*
X6612486Y-17197714D01*
X6683914Y-17197714D01*
X6712486Y-17212000D01*
X6726771Y-17226286D01*
X6741057Y-17254857D01*
X6741057Y-17283429D01*
X6726771Y-17326286D01*
X6555343Y-17497714D01*
X6741057Y-17497714D01*
X6998200Y-17297714D02*
X6998200Y-17497714D01*
X6926771Y-17183429D02*
X6855343Y-17397714D01*
X7041057Y-17397714D01*
X7383914Y-17497714D02*
X7383914Y-17197714D01*
X7512486Y-17497714D02*
X7512486Y-17340572D01*
X7498200Y-17312000D01*
X7469628Y-17297714D01*
X7426771Y-17297714D01*
X7398200Y-17312000D01*
X7383914Y-17326286D01*
X7698200Y-17497714D02*
X7669628Y-17483429D01*
X7655343Y-17469143D01*
X7641057Y-17440572D01*
X7641057Y-17354857D01*
X7655343Y-17326286D01*
X7669628Y-17312000D01*
X7698200Y-17297714D01*
X7741057Y-17297714D01*
X7769628Y-17312000D01*
X7783914Y-17326286D01*
X7798200Y-17354857D01*
X7798200Y-17440572D01*
X7783914Y-17469143D01*
X7769628Y-17483429D01*
X7741057Y-17497714D01*
X7698200Y-17497714D01*
X7969628Y-17497714D02*
X7941057Y-17483429D01*
X7926771Y-17454857D01*
X7926771Y-17197714D01*
X8198200Y-17483429D02*
X8169628Y-17497714D01*
X8112486Y-17497714D01*
X8083914Y-17483429D01*
X8069628Y-17454857D01*
X8069628Y-17340572D01*
X8083914Y-17312000D01*
X8112486Y-17297714D01*
X8169628Y-17297714D01*
X8198200Y-17312000D01*
X8212486Y-17340572D01*
X8212486Y-17369143D01*
X8069628Y-17397714D01*
X8326771Y-17483429D02*
X8355343Y-17497714D01*
X8412486Y-17497714D01*
X8441057Y-17483429D01*
X8455343Y-17454857D01*
X8455343Y-17440572D01*
X8441057Y-17412000D01*
X8412486Y-17397714D01*
X8369628Y-17397714D01*
X8341057Y-17383429D01*
X8326771Y-17354857D01*
X8326771Y-17340572D01*
X8341057Y-17312000D01*
X8369628Y-17297714D01*
X8412486Y-17297714D01*
X8441057Y-17312000D01*
X8555343Y-17612000D02*
X8569628Y-17597714D01*
X8598200Y-17554857D01*
X8612486Y-17526286D01*
X8626771Y-17483429D01*
X8641057Y-17412000D01*
X8641057Y-17354857D01*
X8626771Y-17283429D01*
X8612486Y-17240572D01*
X8598200Y-17212000D01*
X8569628Y-17169143D01*
X8555343Y-17154857D01*
X1653200Y-17693000D02*
X1783200Y-17823000D01*
X1783200Y-17693000D02*
X1653200Y-17823000D01*
X1718200Y-17693000D02*
X1718200Y-17823000D01*
X1653200Y-17758000D02*
X1783200Y-17758000D01*
X2226771Y-17893714D02*
X2055343Y-17893714D01*
X2141057Y-17893714D02*
X2141057Y-17593714D01*
X2112486Y-17636572D01*
X2083914Y-17665143D01*
X2055343Y-17679429D01*
X2355343Y-17865143D02*
X2369628Y-17879429D01*
X2355343Y-17893714D01*
X2341057Y-17879429D01*
X2355343Y-17865143D01*
X2355343Y-17893714D01*
X2469628Y-17593714D02*
X2655343Y-17593714D01*
X2555343Y-17708000D01*
X2598200Y-17708000D01*
X2626771Y-17722286D01*
X2641057Y-17736572D01*
X2655343Y-17765143D01*
X2655343Y-17836572D01*
X2641057Y-17865143D01*
X2626771Y-17879429D01*
X2598200Y-17893714D01*
X2512486Y-17893714D01*
X2483914Y-17879429D01*
X2469628Y-17865143D01*
X2841057Y-17593714D02*
X2869628Y-17593714D01*
X2898200Y-17608000D01*
X2912486Y-17622286D01*
X2926771Y-17650857D01*
X2941057Y-17708000D01*
X2941057Y-17779429D01*
X2926771Y-17836572D01*
X2912486Y-17865143D01*
X2898200Y-17879429D01*
X2869628Y-17893714D01*
X2841057Y-17893714D01*
X2812486Y-17879429D01*
X2798200Y-17865143D01*
X2783914Y-17836572D01*
X2769628Y-17779429D01*
X2769628Y-17708000D01*
X2783914Y-17650857D01*
X2798200Y-17622286D01*
X2812486Y-17608000D01*
X2841057Y-17593714D01*
X3069628Y-17893714D02*
X3069628Y-17693714D01*
X3069628Y-17722286D02*
X3083914Y-17708000D01*
X3112486Y-17693714D01*
X3155343Y-17693714D01*
X3183914Y-17708000D01*
X3198200Y-17736572D01*
X3198200Y-17893714D01*
X3198200Y-17736572D02*
X3212486Y-17708000D01*
X3241057Y-17693714D01*
X3283914Y-17693714D01*
X3312486Y-17708000D01*
X3326771Y-17736572D01*
X3326771Y-17893714D01*
X3469628Y-17893714D02*
X3469628Y-17693714D01*
X3469628Y-17722286D02*
X3483914Y-17708000D01*
X3512486Y-17693714D01*
X3555343Y-17693714D01*
X3583914Y-17708000D01*
X3598200Y-17736572D01*
X3598200Y-17893714D01*
X3598200Y-17736572D02*
X3612486Y-17708000D01*
X3641057Y-17693714D01*
X3683914Y-17693714D01*
X3712486Y-17708000D01*
X3726771Y-17736572D01*
X3726771Y-17893714D01*
X4312486Y-17579429D02*
X4055343Y-17965143D01*
X4698200Y-17593714D02*
X4726771Y-17593714D01*
X4755343Y-17608000D01*
X4769628Y-17622286D01*
X4783914Y-17650857D01*
X4798200Y-17708000D01*
X4798200Y-17779429D01*
X4783914Y-17836572D01*
X4769628Y-17865143D01*
X4755343Y-17879429D01*
X4726771Y-17893714D01*
X4698200Y-17893714D01*
X4669628Y-17879429D01*
X4655343Y-17865143D01*
X4641057Y-17836572D01*
X4626771Y-17779429D01*
X4626771Y-17708000D01*
X4641057Y-17650857D01*
X4655343Y-17622286D01*
X4669628Y-17608000D01*
X4698200Y-17593714D01*
X4926771Y-17865143D02*
X4941057Y-17879429D01*
X4926771Y-17893714D01*
X4912486Y-17879429D01*
X4926771Y-17865143D01*
X4926771Y-17893714D01*
X5126771Y-17593714D02*
X5155343Y-17593714D01*
X5183914Y-17608000D01*
X5198200Y-17622286D01*
X5212486Y-17650857D01*
X5226771Y-17708000D01*
X5226771Y-17779429D01*
X5212486Y-17836572D01*
X5198200Y-17865143D01*
X5183914Y-17879429D01*
X5155343Y-17893714D01*
X5126771Y-17893714D01*
X5098200Y-17879429D01*
X5083914Y-17865143D01*
X5069628Y-17836572D01*
X5055343Y-17779429D01*
X5055343Y-17708000D01*
X5069628Y-17650857D01*
X5083914Y-17622286D01*
X5098200Y-17608000D01*
X5126771Y-17593714D01*
X5498200Y-17593714D02*
X5355343Y-17593714D01*
X5341057Y-17736572D01*
X5355343Y-17722286D01*
X5383914Y-17708000D01*
X5455343Y-17708000D01*
X5483914Y-17722286D01*
X5498200Y-17736572D01*
X5512486Y-17765143D01*
X5512486Y-17836572D01*
X5498200Y-17865143D01*
X5483914Y-17879429D01*
X5455343Y-17893714D01*
X5383914Y-17893714D01*
X5355343Y-17879429D01*
X5341057Y-17865143D01*
X5798200Y-17893714D02*
X5626771Y-17893714D01*
X5712486Y-17893714D02*
X5712486Y-17593714D01*
X5683914Y-17636572D01*
X5655343Y-17665143D01*
X5626771Y-17679429D01*
X5912486Y-17593714D02*
X5912486Y-17650857D01*
X6026771Y-17593714D02*
X6026771Y-17650857D01*
X6469628Y-18008000D02*
X6455343Y-17993714D01*
X6426771Y-17950857D01*
X6412486Y-17922286D01*
X6398200Y-17879429D01*
X6383914Y-17808000D01*
X6383914Y-17750857D01*
X6398200Y-17679429D01*
X6412486Y-17636572D01*
X6426771Y-17608000D01*
X6455343Y-17565143D01*
X6469628Y-17550857D01*
X6712486Y-17693714D02*
X6712486Y-17893714D01*
X6641057Y-17579429D02*
X6569628Y-17793714D01*
X6755343Y-17793714D01*
X7098200Y-17893714D02*
X7098200Y-17593714D01*
X7226771Y-17893714D02*
X7226771Y-17736572D01*
X7212486Y-17708000D01*
X7183914Y-17693714D01*
X7141057Y-17693714D01*
X7112486Y-17708000D01*
X7098200Y-17722286D01*
X7412486Y-17893714D02*
X7383914Y-17879429D01*
X7369628Y-17865143D01*
X7355343Y-17836572D01*
X7355343Y-17750857D01*
X7369628Y-17722286D01*
X7383914Y-17708000D01*
X7412486Y-17693714D01*
X7455343Y-17693714D01*
X7483914Y-17708000D01*
X7498200Y-17722286D01*
X7512486Y-17750857D01*
X7512486Y-17836572D01*
X7498200Y-17865143D01*
X7483914Y-17879429D01*
X7455343Y-17893714D01*
X7412486Y-17893714D01*
X7683914Y-17893714D02*
X7655343Y-17879429D01*
X7641057Y-17850857D01*
X7641057Y-17593714D01*
X7912486Y-17879429D02*
X7883914Y-17893714D01*
X7826771Y-17893714D01*
X7798200Y-17879429D01*
X7783914Y-17850857D01*
X7783914Y-17736572D01*
X7798200Y-17708000D01*
X7826771Y-17693714D01*
X7883914Y-17693714D01*
X7912486Y-17708000D01*
X7926771Y-17736572D01*
X7926771Y-17765143D01*
X7783914Y-17793714D01*
X8041057Y-17879429D02*
X8069628Y-17893714D01*
X8126771Y-17893714D01*
X8155343Y-17879429D01*
X8169628Y-17850857D01*
X8169628Y-17836572D01*
X8155343Y-17808000D01*
X8126771Y-17793714D01*
X8083914Y-17793714D01*
X8055343Y-17779429D01*
X8041057Y-17750857D01*
X8041057Y-17736572D01*
X8055343Y-17708000D01*
X8083914Y-17693714D01*
X8126771Y-17693714D01*
X8155343Y-17708000D01*
X8269628Y-18008000D02*
X8283914Y-17993714D01*
X8312486Y-17950857D01*
X8326771Y-17922286D01*
X8341057Y-17879429D01*
X8355343Y-17808000D01*
X8355343Y-17750857D01*
X8341057Y-17679429D01*
X8326771Y-17636572D01*
X8312486Y-17608000D01*
X8283914Y-17565143D01*
X8269628Y-17550857D01*
X1633200Y-18079000D02*
X1783200Y-18229000D01*
X1783200Y-18079000D02*
X1633200Y-18229000D01*
X1761233Y-18207034D02*
X1761233Y-18100967D01*
X1655166Y-18100967D01*
X1655166Y-18207034D01*
X1761233Y-18207034D01*
X2226771Y-18289714D02*
X2055343Y-18289714D01*
X2141057Y-18289714D02*
X2141057Y-17989714D01*
X2112486Y-18032572D01*
X2083914Y-18061143D01*
X2055343Y-18075429D01*
X2355343Y-18261143D02*
X2369628Y-18275429D01*
X2355343Y-18289714D01*
X2341057Y-18275429D01*
X2355343Y-18261143D01*
X2355343Y-18289714D01*
X2641057Y-17989714D02*
X2498200Y-17989714D01*
X2483914Y-18132572D01*
X2498200Y-18118286D01*
X2526771Y-18104000D01*
X2598200Y-18104000D01*
X2626771Y-18118286D01*
X2641057Y-18132572D01*
X2655343Y-18161143D01*
X2655343Y-18232572D01*
X2641057Y-18261143D01*
X2626771Y-18275429D01*
X2598200Y-18289714D01*
X2526771Y-18289714D01*
X2498200Y-18275429D01*
X2483914Y-18261143D01*
X2841057Y-17989714D02*
X2869628Y-17989714D01*
X2898200Y-18004000D01*
X2912486Y-18018286D01*
X2926771Y-18046857D01*
X2941057Y-18104000D01*
X2941057Y-18175429D01*
X2926771Y-18232572D01*
X2912486Y-18261143D01*
X2898200Y-18275429D01*
X2869628Y-18289714D01*
X2841057Y-18289714D01*
X2812486Y-18275429D01*
X2798200Y-18261143D01*
X2783914Y-18232572D01*
X2769628Y-18175429D01*
X2769628Y-18104000D01*
X2783914Y-18046857D01*
X2798200Y-18018286D01*
X2812486Y-18004000D01*
X2841057Y-17989714D01*
X3069628Y-18289714D02*
X3069628Y-18089714D01*
X3069628Y-18118286D02*
X3083914Y-18104000D01*
X3112486Y-18089714D01*
X3155343Y-18089714D01*
X3183914Y-18104000D01*
X3198200Y-18132572D01*
X3198200Y-18289714D01*
X3198200Y-18132572D02*
X3212486Y-18104000D01*
X3241057Y-18089714D01*
X3283914Y-18089714D01*
X3312486Y-18104000D01*
X3326771Y-18132572D01*
X3326771Y-18289714D01*
X3469628Y-18289714D02*
X3469628Y-18089714D01*
X3469628Y-18118286D02*
X3483914Y-18104000D01*
X3512486Y-18089714D01*
X3555343Y-18089714D01*
X3583914Y-18104000D01*
X3598200Y-18132572D01*
X3598200Y-18289714D01*
X3598200Y-18132572D02*
X3612486Y-18104000D01*
X3641057Y-18089714D01*
X3683914Y-18089714D01*
X3712486Y-18104000D01*
X3726771Y-18132572D01*
X3726771Y-18289714D01*
X4312486Y-17975429D02*
X4055343Y-18361143D01*
X4698200Y-17989714D02*
X4726771Y-17989714D01*
X4755343Y-18004000D01*
X4769628Y-18018286D01*
X4783914Y-18046857D01*
X4798200Y-18104000D01*
X4798200Y-18175429D01*
X4783914Y-18232572D01*
X4769628Y-18261143D01*
X4755343Y-18275429D01*
X4726771Y-18289714D01*
X4698200Y-18289714D01*
X4669628Y-18275429D01*
X4655343Y-18261143D01*
X4641057Y-18232572D01*
X4626771Y-18175429D01*
X4626771Y-18104000D01*
X4641057Y-18046857D01*
X4655343Y-18018286D01*
X4669628Y-18004000D01*
X4698200Y-17989714D01*
X4926771Y-18261143D02*
X4941057Y-18275429D01*
X4926771Y-18289714D01*
X4912486Y-18275429D01*
X4926771Y-18261143D01*
X4926771Y-18289714D01*
X5126771Y-17989714D02*
X5155343Y-17989714D01*
X5183914Y-18004000D01*
X5198200Y-18018286D01*
X5212486Y-18046857D01*
X5226771Y-18104000D01*
X5226771Y-18175429D01*
X5212486Y-18232572D01*
X5198200Y-18261143D01*
X5183914Y-18275429D01*
X5155343Y-18289714D01*
X5126771Y-18289714D01*
X5098200Y-18275429D01*
X5083914Y-18261143D01*
X5069628Y-18232572D01*
X5055343Y-18175429D01*
X5055343Y-18104000D01*
X5069628Y-18046857D01*
X5083914Y-18018286D01*
X5098200Y-18004000D01*
X5126771Y-17989714D01*
X5498200Y-17989714D02*
X5355343Y-17989714D01*
X5341057Y-18132572D01*
X5355343Y-18118286D01*
X5383914Y-18104000D01*
X5455343Y-18104000D01*
X5483914Y-18118286D01*
X5498200Y-18132572D01*
X5512486Y-18161143D01*
X5512486Y-18232572D01*
X5498200Y-18261143D01*
X5483914Y-18275429D01*
X5455343Y-18289714D01*
X5383914Y-18289714D01*
X5355343Y-18275429D01*
X5341057Y-18261143D01*
X5655343Y-18289714D02*
X5712486Y-18289714D01*
X5741057Y-18275429D01*
X5755343Y-18261143D01*
X5783914Y-18218286D01*
X5798200Y-18161143D01*
X5798200Y-18046857D01*
X5783914Y-18018286D01*
X5769628Y-18004000D01*
X5741057Y-17989714D01*
X5683914Y-17989714D01*
X5655343Y-18004000D01*
X5641057Y-18018286D01*
X5626771Y-18046857D01*
X5626771Y-18118286D01*
X5641057Y-18146857D01*
X5655343Y-18161143D01*
X5683914Y-18175429D01*
X5741057Y-18175429D01*
X5769628Y-18161143D01*
X5783914Y-18146857D01*
X5798200Y-18118286D01*
X5912486Y-17989714D02*
X5912486Y-18046857D01*
X6026771Y-17989714D02*
X6026771Y-18046857D01*
X6469628Y-18404000D02*
X6455343Y-18389714D01*
X6426771Y-18346857D01*
X6412486Y-18318286D01*
X6398200Y-18275429D01*
X6383914Y-18204000D01*
X6383914Y-18146857D01*
X6398200Y-18075429D01*
X6412486Y-18032572D01*
X6426771Y-18004000D01*
X6455343Y-17961143D01*
X6469628Y-17946857D01*
X6626771Y-18118286D02*
X6598200Y-18104000D01*
X6583914Y-18089714D01*
X6569628Y-18061143D01*
X6569628Y-18046857D01*
X6583914Y-18018286D01*
X6598200Y-18004000D01*
X6626771Y-17989714D01*
X6683914Y-17989714D01*
X6712486Y-18004000D01*
X6726771Y-18018286D01*
X6741057Y-18046857D01*
X6741057Y-18061143D01*
X6726771Y-18089714D01*
X6712486Y-18104000D01*
X6683914Y-18118286D01*
X6626771Y-18118286D01*
X6598200Y-18132572D01*
X6583914Y-18146857D01*
X6569628Y-18175429D01*
X6569628Y-18232572D01*
X6583914Y-18261143D01*
X6598200Y-18275429D01*
X6626771Y-18289714D01*
X6683914Y-18289714D01*
X6712486Y-18275429D01*
X6726771Y-18261143D01*
X6741057Y-18232572D01*
X6741057Y-18175429D01*
X6726771Y-18146857D01*
X6712486Y-18132572D01*
X6683914Y-18118286D01*
X7098200Y-18289714D02*
X7098200Y-17989714D01*
X7226771Y-18289714D02*
X7226771Y-18132572D01*
X7212486Y-18104000D01*
X7183914Y-18089714D01*
X7141057Y-18089714D01*
X7112486Y-18104000D01*
X7098200Y-18118286D01*
X7412486Y-18289714D02*
X7383914Y-18275429D01*
X7369628Y-18261143D01*
X7355343Y-18232572D01*
X7355343Y-18146857D01*
X7369628Y-18118286D01*
X7383914Y-18104000D01*
X7412486Y-18089714D01*
X7455343Y-18089714D01*
X7483914Y-18104000D01*
X7498200Y-18118286D01*
X7512486Y-18146857D01*
X7512486Y-18232572D01*
X7498200Y-18261143D01*
X7483914Y-18275429D01*
X7455343Y-18289714D01*
X7412486Y-18289714D01*
X7683914Y-18289714D02*
X7655343Y-18275429D01*
X7641057Y-18246857D01*
X7641057Y-17989714D01*
X7912486Y-18275429D02*
X7883914Y-18289714D01*
X7826771Y-18289714D01*
X7798200Y-18275429D01*
X7783914Y-18246857D01*
X7783914Y-18132572D01*
X7798200Y-18104000D01*
X7826771Y-18089714D01*
X7883914Y-18089714D01*
X7912486Y-18104000D01*
X7926771Y-18132572D01*
X7926771Y-18161143D01*
X7783914Y-18189714D01*
X8041057Y-18275429D02*
X8069628Y-18289714D01*
X8126771Y-18289714D01*
X8155343Y-18275429D01*
X8169628Y-18246857D01*
X8169628Y-18232572D01*
X8155343Y-18204000D01*
X8126771Y-18189714D01*
X8083914Y-18189714D01*
X8055343Y-18175429D01*
X8041057Y-18146857D01*
X8041057Y-18132572D01*
X8055343Y-18104000D01*
X8083914Y-18089714D01*
X8126771Y-18089714D01*
X8155343Y-18104000D01*
X8269628Y-18404000D02*
X8283914Y-18389714D01*
X8312486Y-18346857D01*
X8326771Y-18318286D01*
X8341057Y-18275429D01*
X8355343Y-18204000D01*
X8355343Y-18146857D01*
X8341057Y-18075429D01*
X8326771Y-18032572D01*
X8312486Y-18004000D01*
X8283914Y-17961143D01*
X8269628Y-17946857D01*
X1605200Y-18461000D02*
X1783200Y-18639000D01*
X1783200Y-18461000D02*
X1605200Y-18639000D01*
X1694200Y-18639000D02*
X1783200Y-18550000D01*
X1694200Y-18461000D01*
X1605200Y-18550000D01*
X1694200Y-18639000D01*
X2226771Y-18685714D02*
X2055343Y-18685714D01*
X2141057Y-18685714D02*
X2141057Y-18385714D01*
X2112486Y-18428572D01*
X2083914Y-18457143D01*
X2055343Y-18471429D01*
X2355343Y-18657143D02*
X2369628Y-18671429D01*
X2355343Y-18685714D01*
X2341057Y-18671429D01*
X2355343Y-18657143D01*
X2355343Y-18685714D01*
X2469628Y-18385714D02*
X2669628Y-18385714D01*
X2541057Y-18685714D01*
X2826771Y-18514286D02*
X2798200Y-18500000D01*
X2783914Y-18485714D01*
X2769628Y-18457143D01*
X2769628Y-18442857D01*
X2783914Y-18414286D01*
X2798200Y-18400000D01*
X2826771Y-18385714D01*
X2883914Y-18385714D01*
X2912486Y-18400000D01*
X2926771Y-18414286D01*
X2941057Y-18442857D01*
X2941057Y-18457143D01*
X2926771Y-18485714D01*
X2912486Y-18500000D01*
X2883914Y-18514286D01*
X2826771Y-18514286D01*
X2798200Y-18528572D01*
X2783914Y-18542857D01*
X2769628Y-18571429D01*
X2769628Y-18628572D01*
X2783914Y-18657143D01*
X2798200Y-18671429D01*
X2826771Y-18685714D01*
X2883914Y-18685714D01*
X2912486Y-18671429D01*
X2926771Y-18657143D01*
X2941057Y-18628572D01*
X2941057Y-18571429D01*
X2926771Y-18542857D01*
X2912486Y-18528572D01*
X2883914Y-18514286D01*
X3069628Y-18685714D02*
X3069628Y-18485714D01*
X3069628Y-18514286D02*
X3083914Y-18500000D01*
X3112486Y-18485714D01*
X3155343Y-18485714D01*
X3183914Y-18500000D01*
X3198200Y-18528572D01*
X3198200Y-18685714D01*
X3198200Y-18528572D02*
X3212486Y-18500000D01*
X3241057Y-18485714D01*
X3283914Y-18485714D01*
X3312486Y-18500000D01*
X3326771Y-18528572D01*
X3326771Y-18685714D01*
X3469628Y-18685714D02*
X3469628Y-18485714D01*
X3469628Y-18514286D02*
X3483914Y-18500000D01*
X3512486Y-18485714D01*
X3555343Y-18485714D01*
X3583914Y-18500000D01*
X3598200Y-18528572D01*
X3598200Y-18685714D01*
X3598200Y-18528572D02*
X3612486Y-18500000D01*
X3641057Y-18485714D01*
X3683914Y-18485714D01*
X3712486Y-18500000D01*
X3726771Y-18528572D01*
X3726771Y-18685714D01*
X4312486Y-18371429D02*
X4055343Y-18757143D01*
X4698200Y-18385714D02*
X4726771Y-18385714D01*
X4755343Y-18400000D01*
X4769628Y-18414286D01*
X4783914Y-18442857D01*
X4798200Y-18500000D01*
X4798200Y-18571429D01*
X4783914Y-18628572D01*
X4769628Y-18657143D01*
X4755343Y-18671429D01*
X4726771Y-18685714D01*
X4698200Y-18685714D01*
X4669628Y-18671429D01*
X4655343Y-18657143D01*
X4641057Y-18628572D01*
X4626771Y-18571429D01*
X4626771Y-18500000D01*
X4641057Y-18442857D01*
X4655343Y-18414286D01*
X4669628Y-18400000D01*
X4698200Y-18385714D01*
X4926771Y-18657143D02*
X4941057Y-18671429D01*
X4926771Y-18685714D01*
X4912486Y-18671429D01*
X4926771Y-18657143D01*
X4926771Y-18685714D01*
X5126771Y-18385714D02*
X5155343Y-18385714D01*
X5183914Y-18400000D01*
X5198200Y-18414286D01*
X5212486Y-18442857D01*
X5226771Y-18500000D01*
X5226771Y-18571429D01*
X5212486Y-18628572D01*
X5198200Y-18657143D01*
X5183914Y-18671429D01*
X5155343Y-18685714D01*
X5126771Y-18685714D01*
X5098200Y-18671429D01*
X5083914Y-18657143D01*
X5069628Y-18628572D01*
X5055343Y-18571429D01*
X5055343Y-18500000D01*
X5069628Y-18442857D01*
X5083914Y-18414286D01*
X5098200Y-18400000D01*
X5126771Y-18385714D01*
X5326771Y-18385714D02*
X5526771Y-18385714D01*
X5398200Y-18685714D01*
X5698200Y-18385714D02*
X5726771Y-18385714D01*
X5755343Y-18400000D01*
X5769628Y-18414286D01*
X5783914Y-18442857D01*
X5798200Y-18500000D01*
X5798200Y-18571429D01*
X5783914Y-18628572D01*
X5769628Y-18657143D01*
X5755343Y-18671429D01*
X5726771Y-18685714D01*
X5698200Y-18685714D01*
X5669628Y-18671429D01*
X5655343Y-18657143D01*
X5641057Y-18628572D01*
X5626771Y-18571429D01*
X5626771Y-18500000D01*
X5641057Y-18442857D01*
X5655343Y-18414286D01*
X5669628Y-18400000D01*
X5698200Y-18385714D01*
X5912486Y-18385714D02*
X5912486Y-18442857D01*
X6026771Y-18385714D02*
X6026771Y-18442857D01*
X6469628Y-18800000D02*
X6455343Y-18785714D01*
X6426771Y-18742857D01*
X6412486Y-18714286D01*
X6398200Y-18671429D01*
X6383914Y-18600000D01*
X6383914Y-18542857D01*
X6398200Y-18471429D01*
X6412486Y-18428572D01*
X6426771Y-18400000D01*
X6455343Y-18357143D01*
X6469628Y-18342857D01*
X6741057Y-18685714D02*
X6569628Y-18685714D01*
X6655343Y-18685714D02*
X6655343Y-18385714D01*
X6626771Y-18428572D01*
X6598200Y-18457143D01*
X6569628Y-18471429D01*
X6998200Y-18385714D02*
X6941057Y-18385714D01*
X6912486Y-18400000D01*
X6898200Y-18414286D01*
X6869628Y-18457143D01*
X6855343Y-18514286D01*
X6855343Y-18628572D01*
X6869628Y-18657143D01*
X6883914Y-18671429D01*
X6912486Y-18685714D01*
X6969628Y-18685714D01*
X6998200Y-18671429D01*
X7012486Y-18657143D01*
X7026771Y-18628572D01*
X7026771Y-18557143D01*
X7012486Y-18528572D01*
X6998200Y-18514286D01*
X6969628Y-18500000D01*
X6912486Y-18500000D01*
X6883914Y-18514286D01*
X6869628Y-18528572D01*
X6855343Y-18557143D01*
X7383914Y-18685714D02*
X7383914Y-18385714D01*
X7512486Y-18685714D02*
X7512486Y-18528572D01*
X7498200Y-18500000D01*
X7469628Y-18485714D01*
X7426771Y-18485714D01*
X7398200Y-18500000D01*
X7383914Y-18514286D01*
X7698200Y-18685714D02*
X7669628Y-18671429D01*
X7655343Y-18657143D01*
X7641057Y-18628572D01*
X7641057Y-18542857D01*
X7655343Y-18514286D01*
X7669628Y-18500000D01*
X7698200Y-18485714D01*
X7741057Y-18485714D01*
X7769628Y-18500000D01*
X7783914Y-18514286D01*
X7798200Y-18542857D01*
X7798200Y-18628572D01*
X7783914Y-18657143D01*
X7769628Y-18671429D01*
X7741057Y-18685714D01*
X7698200Y-18685714D01*
X7969628Y-18685714D02*
X7941057Y-18671429D01*
X7926771Y-18642857D01*
X7926771Y-18385714D01*
X8198200Y-18671429D02*
X8169628Y-18685714D01*
X8112486Y-18685714D01*
X8083914Y-18671429D01*
X8069628Y-18642857D01*
X8069628Y-18528572D01*
X8083914Y-18500000D01*
X8112486Y-18485714D01*
X8169628Y-18485714D01*
X8198200Y-18500000D01*
X8212486Y-18528572D01*
X8212486Y-18557143D01*
X8069628Y-18585714D01*
X8326771Y-18671429D02*
X8355343Y-18685714D01*
X8412486Y-18685714D01*
X8441057Y-18671429D01*
X8455343Y-18642857D01*
X8455343Y-18628572D01*
X8441057Y-18600000D01*
X8412486Y-18585714D01*
X8369628Y-18585714D01*
X8341057Y-18571429D01*
X8326771Y-18542857D01*
X8326771Y-18528572D01*
X8341057Y-18500000D01*
X8369628Y-18485714D01*
X8412486Y-18485714D01*
X8441057Y-18500000D01*
X8555343Y-18800000D02*
X8569628Y-18785714D01*
X8598200Y-18742857D01*
X8612486Y-18714286D01*
X8626771Y-18671429D01*
X8641057Y-18600000D01*
X8641057Y-18542857D01*
X8626771Y-18471429D01*
X8612486Y-18428572D01*
X8598200Y-18400000D01*
X8569628Y-18357143D01*
X8555343Y-18342857D01*
X1693200Y-18856000D02*
X1693200Y-19036000D01*
X1603200Y-18946000D02*
X1783200Y-18946000D01*
X1783200Y-18946000D02*
G75*
G03*
X1783200Y-18946000I-90000J0D01*
G01*
X2226771Y-19081714D02*
X2055343Y-19081714D01*
X2141057Y-19081714D02*
X2141057Y-18781714D01*
X2112486Y-18824572D01*
X2083914Y-18853143D01*
X2055343Y-18867429D01*
X2355343Y-19053143D02*
X2369628Y-19067429D01*
X2355343Y-19081714D01*
X2341057Y-19067429D01*
X2355343Y-19053143D01*
X2355343Y-19081714D01*
X2541057Y-18910286D02*
X2512486Y-18896000D01*
X2498200Y-18881714D01*
X2483914Y-18853143D01*
X2483914Y-18838857D01*
X2498200Y-18810286D01*
X2512486Y-18796000D01*
X2541057Y-18781714D01*
X2598200Y-18781714D01*
X2626771Y-18796000D01*
X2641057Y-18810286D01*
X2655343Y-18838857D01*
X2655343Y-18853143D01*
X2641057Y-18881714D01*
X2626771Y-18896000D01*
X2598200Y-18910286D01*
X2541057Y-18910286D01*
X2512486Y-18924572D01*
X2498200Y-18938857D01*
X2483914Y-18967429D01*
X2483914Y-19024572D01*
X2498200Y-19053143D01*
X2512486Y-19067429D01*
X2541057Y-19081714D01*
X2598200Y-19081714D01*
X2626771Y-19067429D01*
X2641057Y-19053143D01*
X2655343Y-19024572D01*
X2655343Y-18967429D01*
X2641057Y-18938857D01*
X2626771Y-18924572D01*
X2598200Y-18910286D01*
X2841057Y-18781714D02*
X2869628Y-18781714D01*
X2898200Y-18796000D01*
X2912486Y-18810286D01*
X2926771Y-18838857D01*
X2941057Y-18896000D01*
X2941057Y-18967429D01*
X2926771Y-19024572D01*
X2912486Y-19053143D01*
X2898200Y-19067429D01*
X2869628Y-19081714D01*
X2841057Y-19081714D01*
X2812486Y-19067429D01*
X2798200Y-19053143D01*
X2783914Y-19024572D01*
X2769628Y-18967429D01*
X2769628Y-18896000D01*
X2783914Y-18838857D01*
X2798200Y-18810286D01*
X2812486Y-18796000D01*
X2841057Y-18781714D01*
X3069628Y-19081714D02*
X3069628Y-18881714D01*
X3069628Y-18910286D02*
X3083914Y-18896000D01*
X3112486Y-18881714D01*
X3155343Y-18881714D01*
X3183914Y-18896000D01*
X3198200Y-18924572D01*
X3198200Y-19081714D01*
X3198200Y-18924572D02*
X3212486Y-18896000D01*
X3241057Y-18881714D01*
X3283914Y-18881714D01*
X3312486Y-18896000D01*
X3326771Y-18924572D01*
X3326771Y-19081714D01*
X3469628Y-19081714D02*
X3469628Y-18881714D01*
X3469628Y-18910286D02*
X3483914Y-18896000D01*
X3512486Y-18881714D01*
X3555343Y-18881714D01*
X3583914Y-18896000D01*
X3598200Y-18924572D01*
X3598200Y-19081714D01*
X3598200Y-18924572D02*
X3612486Y-18896000D01*
X3641057Y-18881714D01*
X3683914Y-18881714D01*
X3712486Y-18896000D01*
X3726771Y-18924572D01*
X3726771Y-19081714D01*
X4312486Y-18767429D02*
X4055343Y-19153143D01*
X4698200Y-18781714D02*
X4726771Y-18781714D01*
X4755343Y-18796000D01*
X4769628Y-18810286D01*
X4783914Y-18838857D01*
X4798200Y-18896000D01*
X4798200Y-18967429D01*
X4783914Y-19024572D01*
X4769628Y-19053143D01*
X4755343Y-19067429D01*
X4726771Y-19081714D01*
X4698200Y-19081714D01*
X4669628Y-19067429D01*
X4655343Y-19053143D01*
X4641057Y-19024572D01*
X4626771Y-18967429D01*
X4626771Y-18896000D01*
X4641057Y-18838857D01*
X4655343Y-18810286D01*
X4669628Y-18796000D01*
X4698200Y-18781714D01*
X4926771Y-19053143D02*
X4941057Y-19067429D01*
X4926771Y-19081714D01*
X4912486Y-19067429D01*
X4926771Y-19053143D01*
X4926771Y-19081714D01*
X5126771Y-18781714D02*
X5155343Y-18781714D01*
X5183914Y-18796000D01*
X5198200Y-18810286D01*
X5212486Y-18838857D01*
X5226771Y-18896000D01*
X5226771Y-18967429D01*
X5212486Y-19024572D01*
X5198200Y-19053143D01*
X5183914Y-19067429D01*
X5155343Y-19081714D01*
X5126771Y-19081714D01*
X5098200Y-19067429D01*
X5083914Y-19053143D01*
X5069628Y-19024572D01*
X5055343Y-18967429D01*
X5055343Y-18896000D01*
X5069628Y-18838857D01*
X5083914Y-18810286D01*
X5098200Y-18796000D01*
X5126771Y-18781714D01*
X5326771Y-18781714D02*
X5526771Y-18781714D01*
X5398200Y-19081714D01*
X5798200Y-19081714D02*
X5626771Y-19081714D01*
X5712486Y-19081714D02*
X5712486Y-18781714D01*
X5683914Y-18824572D01*
X5655343Y-18853143D01*
X5626771Y-18867429D01*
X5912486Y-18781714D02*
X5912486Y-18838857D01*
X6026771Y-18781714D02*
X6026771Y-18838857D01*
X6469628Y-19196000D02*
X6455343Y-19181714D01*
X6426771Y-19138857D01*
X6412486Y-19110286D01*
X6398200Y-19067429D01*
X6383914Y-18996000D01*
X6383914Y-18938857D01*
X6398200Y-18867429D01*
X6412486Y-18824572D01*
X6426771Y-18796000D01*
X6455343Y-18753143D01*
X6469628Y-18738857D01*
X6712486Y-18781714D02*
X6655343Y-18781714D01*
X6626771Y-18796000D01*
X6612486Y-18810286D01*
X6583914Y-18853143D01*
X6569628Y-18910286D01*
X6569628Y-19024572D01*
X6583914Y-19053143D01*
X6598200Y-19067429D01*
X6626771Y-19081714D01*
X6683914Y-19081714D01*
X6712486Y-19067429D01*
X6726771Y-19053143D01*
X6741057Y-19024572D01*
X6741057Y-18953143D01*
X6726771Y-18924572D01*
X6712486Y-18910286D01*
X6683914Y-18896000D01*
X6626771Y-18896000D01*
X6598200Y-18910286D01*
X6583914Y-18924572D01*
X6569628Y-18953143D01*
X6998200Y-18881714D02*
X6998200Y-19081714D01*
X6926771Y-18767429D02*
X6855343Y-18981714D01*
X7041057Y-18981714D01*
X7383914Y-19081714D02*
X7383914Y-18781714D01*
X7512486Y-19081714D02*
X7512486Y-18924572D01*
X7498200Y-18896000D01*
X7469628Y-18881714D01*
X7426771Y-18881714D01*
X7398200Y-18896000D01*
X7383914Y-18910286D01*
X7698200Y-19081714D02*
X7669628Y-19067429D01*
X7655343Y-19053143D01*
X7641057Y-19024572D01*
X7641057Y-18938857D01*
X7655343Y-18910286D01*
X7669628Y-18896000D01*
X7698200Y-18881714D01*
X7741057Y-18881714D01*
X7769628Y-18896000D01*
X7783914Y-18910286D01*
X7798200Y-18938857D01*
X7798200Y-19024572D01*
X7783914Y-19053143D01*
X7769628Y-19067429D01*
X7741057Y-19081714D01*
X7698200Y-19081714D01*
X7969628Y-19081714D02*
X7941057Y-19067429D01*
X7926771Y-19038857D01*
X7926771Y-18781714D01*
X8198200Y-19067429D02*
X8169628Y-19081714D01*
X8112486Y-19081714D01*
X8083914Y-19067429D01*
X8069628Y-19038857D01*
X8069628Y-18924572D01*
X8083914Y-18896000D01*
X8112486Y-18881714D01*
X8169628Y-18881714D01*
X8198200Y-18896000D01*
X8212486Y-18924572D01*
X8212486Y-18953143D01*
X8069628Y-18981714D01*
X8326771Y-19067429D02*
X8355343Y-19081714D01*
X8412486Y-19081714D01*
X8441057Y-19067429D01*
X8455343Y-19038857D01*
X8455343Y-19024572D01*
X8441057Y-18996000D01*
X8412486Y-18981714D01*
X8369628Y-18981714D01*
X8341057Y-18967429D01*
X8326771Y-18938857D01*
X8326771Y-18924572D01*
X8341057Y-18896000D01*
X8369628Y-18881714D01*
X8412486Y-18881714D01*
X8441057Y-18896000D01*
X8555343Y-19196000D02*
X8569628Y-19181714D01*
X8598200Y-19138857D01*
X8612486Y-19110286D01*
X8626771Y-19067429D01*
X8641057Y-18996000D01*
X8641057Y-18938857D01*
X8626771Y-18867429D01*
X8612486Y-18824572D01*
X8598200Y-18796000D01*
X8569628Y-18753143D01*
X8555343Y-18738857D01*
M02*
