M48
; DRILL file {KiCad (5.1.8-0-10_14)} date Saturday, March 27, 2021 at 01:16:14 PM
; FORMAT={-:-/ absolute / inch / decimal}
; #@! TF.CreationDate,2021-03-27T13:16:14-04:00
; #@! TF.GenerationSoftware,Kicad,Pcbnew,(5.1.8-0-10_14)
; #@! TF.FileFunction,NonPlated,1,2,NPTH
FMAT,2
INCH
T1C0.0787
T2C0.1260
T3C0.1358
%
G90
G05
T2
X1.435Y-5.505
X3.695Y-1.595
X3.695Y-5.505
X1.435Y-1.605
X1.0892Y-4.0971
X1.0892Y-4.6168
X1.0884Y-4.9113
X1.0884Y-5.431
X4.04Y-4.9111
X4.04Y-5.4308
X4.0404Y-4.097
X4.0404Y-4.6167
X4.0393Y-1.6525
X4.0393Y-2.1722
X4.0396Y-3.2832
X4.0396Y-3.8029
X4.0396Y-2.4678
X4.0396Y-2.9875
X1.0896Y-1.6542
X1.0896Y-2.1739
X1.09Y-2.4688
X1.09Y-2.9885
X1.4758Y-1.2196
X3.649Y-1.2196
X1.0896Y-3.2833
X1.0896Y-3.803
T3
X2.3973Y-5.3202
X3.4327Y-5.3202
T1
G00X1.8663Y-5.5498
M15
G01X1.8663Y-5.5026
M16
G05
G00X2.0237Y-5.5498
M15
G01X2.0237Y-5.5026
M16
G05
T0
M30
