%TF.GenerationSoftware,KiCad,Pcbnew,(5.1.8-0-10_14)*%
%TF.CreationDate,2021-03-27T13:16:03-04:00*%
%TF.ProjectId,muse,6d757365-2e6b-4696-9361-645f70636258,rev?*%
%TF.SameCoordinates,Original*%
%TF.FileFunction,Legend,Top*%
%TF.FilePolarity,Positive*%
%FSLAX46Y46*%
G04 Gerber Fmt 4.6, Leading zero omitted, Abs format (unit mm)*
G04 Created by KiCad (PCBNEW (5.1.8-0-10_14)) date 2021-03-27 13:16:03*
%MOMM*%
%LPD*%
G01*
G04 APERTURE LIST*
%ADD10C,0.300000*%
%ADD11C,0.250000*%
%ADD12C,0.350000*%
%ADD13C,0.750000*%
%ADD14C,0.120000*%
%ADD15C,0.100000*%
%ADD16C,0.150000*%
G04 APERTURE END LIST*
D10*
X36224666Y-26102333D02*
X36224666Y-27102333D01*
X36224666Y-26602333D02*
X34474666Y-26602333D01*
X34724666Y-26769000D01*
X34891333Y-26935666D01*
X34974666Y-27102333D01*
X34641333Y-25435666D02*
X34558000Y-25352333D01*
X34474666Y-25185666D01*
X34474666Y-24769000D01*
X34558000Y-24602333D01*
X34641333Y-24519000D01*
X34808000Y-24435666D01*
X34974666Y-24435666D01*
X35224666Y-24519000D01*
X36224666Y-25519000D01*
X36224666Y-24435666D01*
X34474666Y-23935666D02*
X36224666Y-23352333D01*
X34474666Y-22769000D01*
X95660666Y-26102333D02*
X95660666Y-27102333D01*
X95660666Y-26602333D02*
X93910666Y-26602333D01*
X94160666Y-26769000D01*
X94327333Y-26935666D01*
X94410666Y-27102333D01*
X94077333Y-25435666D02*
X93994000Y-25352333D01*
X93910666Y-25185666D01*
X93910666Y-24769000D01*
X93994000Y-24602333D01*
X94077333Y-24519000D01*
X94244000Y-24435666D01*
X94410666Y-24435666D01*
X94660666Y-24519000D01*
X95660666Y-25519000D01*
X95660666Y-24435666D01*
X93910666Y-23935666D02*
X95660666Y-23352333D01*
X93910666Y-22769000D01*
X108505666Y-39046666D02*
X107672333Y-39046666D01*
X107589000Y-39880000D01*
X107672333Y-39796666D01*
X107839000Y-39713333D01*
X108255666Y-39713333D01*
X108422333Y-39796666D01*
X108505666Y-39880000D01*
X108589000Y-40046666D01*
X108589000Y-40463333D01*
X108505666Y-40630000D01*
X108422333Y-40713333D01*
X108255666Y-40796666D01*
X107839000Y-40796666D01*
X107672333Y-40713333D01*
X107589000Y-40630000D01*
X109089000Y-39046666D02*
X109672333Y-40796666D01*
X110255666Y-39046666D01*
X21129666Y-39046666D02*
X20296333Y-39046666D01*
X20213000Y-39880000D01*
X20296333Y-39796666D01*
X20463000Y-39713333D01*
X20879666Y-39713333D01*
X21046333Y-39796666D01*
X21129666Y-39880000D01*
X21213000Y-40046666D01*
X21213000Y-40463333D01*
X21129666Y-40630000D01*
X21046333Y-40713333D01*
X20879666Y-40796666D01*
X20463000Y-40796666D01*
X20296333Y-40713333D01*
X20213000Y-40630000D01*
X21713000Y-39046666D02*
X22296333Y-40796666D01*
X22879666Y-39046666D01*
X56799000Y-46641000D02*
X64389000Y-46641000D01*
X58245666Y-45876666D02*
X58245666Y-44126666D01*
X58912333Y-44126666D01*
X59079000Y-44210000D01*
X59162333Y-44293333D01*
X59245666Y-44460000D01*
X59245666Y-44710000D01*
X59162333Y-44876666D01*
X59079000Y-44960000D01*
X58912333Y-45043333D01*
X58245666Y-45043333D01*
X59829000Y-44126666D02*
X60245666Y-45876666D01*
X60579000Y-44626666D01*
X60912333Y-45876666D01*
X61329000Y-44126666D01*
X62995666Y-45876666D02*
X62412333Y-45043333D01*
X61995666Y-45876666D02*
X61995666Y-44126666D01*
X62662333Y-44126666D01*
X62829000Y-44210000D01*
X62912333Y-44293333D01*
X62995666Y-44460000D01*
X62995666Y-44710000D01*
X62912333Y-44876666D01*
X62829000Y-44960000D01*
X62662333Y-45043333D01*
X61995666Y-45043333D01*
X65943000Y-46641000D02*
X73533000Y-46641000D01*
X66931333Y-45793333D02*
X67181333Y-45876666D01*
X67598000Y-45876666D01*
X67764666Y-45793333D01*
X67848000Y-45710000D01*
X67931333Y-45543333D01*
X67931333Y-45376666D01*
X67848000Y-45210000D01*
X67764666Y-45126666D01*
X67598000Y-45043333D01*
X67264666Y-44960000D01*
X67098000Y-44876666D01*
X67014666Y-44793333D01*
X66931333Y-44626666D01*
X66931333Y-44460000D01*
X67014666Y-44293333D01*
X67098000Y-44210000D01*
X67264666Y-44126666D01*
X67681333Y-44126666D01*
X67931333Y-44210000D01*
X68431333Y-44126666D02*
X69431333Y-44126666D01*
X68931333Y-45876666D02*
X68931333Y-44126666D01*
X70598000Y-44960000D02*
X70848000Y-45043333D01*
X70931333Y-45126666D01*
X71014666Y-45293333D01*
X71014666Y-45543333D01*
X70931333Y-45710000D01*
X70848000Y-45793333D01*
X70681333Y-45876666D01*
X70014666Y-45876666D01*
X70014666Y-44126666D01*
X70598000Y-44126666D01*
X70764666Y-44210000D01*
X70848000Y-44293333D01*
X70931333Y-44460000D01*
X70931333Y-44626666D01*
X70848000Y-44793333D01*
X70764666Y-44876666D01*
X70598000Y-44960000D01*
X70014666Y-44960000D01*
X72098000Y-45043333D02*
X72098000Y-45876666D01*
X71514666Y-44126666D02*
X72098000Y-45043333D01*
X72681333Y-44126666D01*
D11*
X37796476Y-84258476D02*
X37379809Y-83663238D01*
X37082190Y-84258476D02*
X37082190Y-83008476D01*
X37558380Y-83008476D01*
X37677428Y-83068000D01*
X37736952Y-83127523D01*
X37796476Y-83246571D01*
X37796476Y-83425142D01*
X37736952Y-83544190D01*
X37677428Y-83603714D01*
X37558380Y-83663238D01*
X37082190Y-83663238D01*
X38272666Y-84198952D02*
X38451238Y-84258476D01*
X38748857Y-84258476D01*
X38867904Y-84198952D01*
X38927428Y-84139428D01*
X38986952Y-84020380D01*
X38986952Y-83901333D01*
X38927428Y-83782285D01*
X38867904Y-83722761D01*
X38748857Y-83663238D01*
X38510761Y-83603714D01*
X38391714Y-83544190D01*
X38332190Y-83484666D01*
X38272666Y-83365619D01*
X38272666Y-83246571D01*
X38332190Y-83127523D01*
X38391714Y-83068000D01*
X38510761Y-83008476D01*
X38808380Y-83008476D01*
X38986952Y-83068000D01*
X39344095Y-83008476D02*
X40058380Y-83008476D01*
X39701238Y-84258476D02*
X39701238Y-83008476D01*
D10*
X32415000Y-125889000D02*
X32415000Y-122841000D01*
X32415000Y-125889000D02*
X42575000Y-125889000D01*
X34225666Y-125156666D02*
X33392333Y-125156666D01*
X33392333Y-123406666D01*
X34809000Y-124240000D02*
X35392333Y-124240000D01*
X35642333Y-125156666D02*
X34809000Y-125156666D01*
X34809000Y-123406666D01*
X35642333Y-123406666D01*
X36392333Y-125156666D02*
X36392333Y-123406666D01*
X36809000Y-123406666D01*
X37059000Y-123490000D01*
X37225666Y-123656666D01*
X37309000Y-123823333D01*
X37392333Y-124156666D01*
X37392333Y-124406666D01*
X37309000Y-124740000D01*
X37225666Y-124906666D01*
X37059000Y-125073333D01*
X36809000Y-125156666D01*
X36392333Y-125156666D01*
X40309000Y-125156666D02*
X39475666Y-125156666D01*
X39475666Y-123406666D01*
X41642333Y-123990000D02*
X41642333Y-125156666D01*
X41225666Y-123323333D02*
X40809000Y-124573333D01*
X41892333Y-124573333D01*
X32415000Y-119539000D02*
X32415000Y-116491000D01*
X32415000Y-119539000D02*
X42575000Y-119539000D01*
X34225666Y-118806666D02*
X33392333Y-118806666D01*
X33392333Y-117056666D01*
X34809000Y-117890000D02*
X35392333Y-117890000D01*
X35642333Y-118806666D02*
X34809000Y-118806666D01*
X34809000Y-117056666D01*
X35642333Y-117056666D01*
X36392333Y-118806666D02*
X36392333Y-117056666D01*
X36809000Y-117056666D01*
X37059000Y-117140000D01*
X37225666Y-117306666D01*
X37309000Y-117473333D01*
X37392333Y-117806666D01*
X37392333Y-118056666D01*
X37309000Y-118390000D01*
X37225666Y-118556666D01*
X37059000Y-118723333D01*
X36809000Y-118806666D01*
X36392333Y-118806666D01*
X40309000Y-118806666D02*
X39475666Y-118806666D01*
X39475666Y-117056666D01*
X40725666Y-117056666D02*
X41809000Y-117056666D01*
X41225666Y-117723333D01*
X41475666Y-117723333D01*
X41642333Y-117806666D01*
X41725666Y-117890000D01*
X41809000Y-118056666D01*
X41809000Y-118473333D01*
X41725666Y-118640000D01*
X41642333Y-118723333D01*
X41475666Y-118806666D01*
X40975666Y-118806666D01*
X40809000Y-118723333D01*
X40725666Y-118640000D01*
X32161000Y-98965000D02*
X32161000Y-95917000D01*
X32161000Y-98965000D02*
X42321000Y-98965000D01*
X33971666Y-98232666D02*
X33138333Y-98232666D01*
X33138333Y-96482666D01*
X34555000Y-97316000D02*
X35138333Y-97316000D01*
X35388333Y-98232666D02*
X34555000Y-98232666D01*
X34555000Y-96482666D01*
X35388333Y-96482666D01*
X36138333Y-98232666D02*
X36138333Y-96482666D01*
X36555000Y-96482666D01*
X36805000Y-96566000D01*
X36971666Y-96732666D01*
X37055000Y-96899333D01*
X37138333Y-97232666D01*
X37138333Y-97482666D01*
X37055000Y-97816000D01*
X36971666Y-97982666D01*
X36805000Y-98149333D01*
X36555000Y-98232666D01*
X36138333Y-98232666D01*
X40055000Y-98232666D02*
X39221666Y-98232666D01*
X39221666Y-96482666D01*
X40555000Y-96649333D02*
X40638333Y-96566000D01*
X40805000Y-96482666D01*
X41221666Y-96482666D01*
X41388333Y-96566000D01*
X41471666Y-96649333D01*
X41555000Y-96816000D01*
X41555000Y-96982666D01*
X41471666Y-97232666D01*
X40471666Y-98232666D01*
X41555000Y-98232666D01*
X32161000Y-63913000D02*
X32161000Y-60865000D01*
X32161000Y-63913000D02*
X42321000Y-63913000D01*
X33971666Y-63180666D02*
X33138333Y-63180666D01*
X33138333Y-61430666D01*
X34555000Y-62264000D02*
X35138333Y-62264000D01*
X35388333Y-63180666D02*
X34555000Y-63180666D01*
X34555000Y-61430666D01*
X35388333Y-61430666D01*
X36138333Y-63180666D02*
X36138333Y-61430666D01*
X36555000Y-61430666D01*
X36805000Y-61514000D01*
X36971666Y-61680666D01*
X37055000Y-61847333D01*
X37138333Y-62180666D01*
X37138333Y-62430666D01*
X37055000Y-62764000D01*
X36971666Y-62930666D01*
X36805000Y-63097333D01*
X36555000Y-63180666D01*
X36138333Y-63180666D01*
X40055000Y-63180666D02*
X39221666Y-63180666D01*
X39221666Y-61430666D01*
X41555000Y-63180666D02*
X40555000Y-63180666D01*
X41055000Y-63180666D02*
X41055000Y-61430666D01*
X40888333Y-61680666D01*
X40721666Y-61847333D01*
X40555000Y-61930666D01*
X32321000Y-57425000D02*
X42481000Y-57425000D01*
X32321000Y-57425000D02*
X32321000Y-54377000D01*
X34131666Y-56692666D02*
X33298333Y-56692666D01*
X33298333Y-54942666D01*
X34715000Y-55776000D02*
X35298333Y-55776000D01*
X35548333Y-56692666D02*
X34715000Y-56692666D01*
X34715000Y-54942666D01*
X35548333Y-54942666D01*
X36298333Y-56692666D02*
X36298333Y-54942666D01*
X36715000Y-54942666D01*
X36965000Y-55026000D01*
X37131666Y-55192666D01*
X37215000Y-55359333D01*
X37298333Y-55692666D01*
X37298333Y-55942666D01*
X37215000Y-56276000D01*
X37131666Y-56442666D01*
X36965000Y-56609333D01*
X36715000Y-56692666D01*
X36298333Y-56692666D01*
X40215000Y-56692666D02*
X39381666Y-56692666D01*
X39381666Y-54942666D01*
X41131666Y-54942666D02*
X41298333Y-54942666D01*
X41465000Y-55026000D01*
X41548333Y-55109333D01*
X41631666Y-55276000D01*
X41715000Y-55609333D01*
X41715000Y-56026000D01*
X41631666Y-56359333D01*
X41548333Y-56526000D01*
X41465000Y-56609333D01*
X41298333Y-56692666D01*
X41131666Y-56692666D01*
X40965000Y-56609333D01*
X40881666Y-56526000D01*
X40798333Y-56359333D01*
X40715000Y-56026000D01*
X40715000Y-55609333D01*
X40798333Y-55276000D01*
X40881666Y-55109333D01*
X40965000Y-55026000D01*
X41131666Y-54942666D01*
X87947000Y-125497000D02*
X98107000Y-125497000D01*
X98107000Y-125497000D02*
X98107000Y-122449000D01*
X89273000Y-124764666D02*
X88439666Y-124764666D01*
X88439666Y-123014666D01*
X89856333Y-123848000D02*
X90439666Y-123848000D01*
X90689666Y-124764666D02*
X89856333Y-124764666D01*
X89856333Y-123014666D01*
X90689666Y-123014666D01*
X91439666Y-124764666D02*
X91439666Y-123014666D01*
X91856333Y-123014666D01*
X92106333Y-123098000D01*
X92273000Y-123264666D01*
X92356333Y-123431333D01*
X92439666Y-123764666D01*
X92439666Y-124014666D01*
X92356333Y-124348000D01*
X92273000Y-124514666D01*
X92106333Y-124681333D01*
X91856333Y-124764666D01*
X91439666Y-124764666D01*
X95523000Y-124764666D02*
X94939666Y-123931333D01*
X94523000Y-124764666D02*
X94523000Y-123014666D01*
X95189666Y-123014666D01*
X95356333Y-123098000D01*
X95439666Y-123181333D01*
X95523000Y-123348000D01*
X95523000Y-123598000D01*
X95439666Y-123764666D01*
X95356333Y-123848000D01*
X95189666Y-123931333D01*
X94523000Y-123931333D01*
X97023000Y-123598000D02*
X97023000Y-124764666D01*
X96606333Y-122931333D02*
X96189666Y-124181333D01*
X97273000Y-124181333D01*
X87947000Y-119147000D02*
X98107000Y-119147000D01*
X98107000Y-119147000D02*
X98107000Y-116099000D01*
X89273000Y-118414666D02*
X88439666Y-118414666D01*
X88439666Y-116664666D01*
X89856333Y-117498000D02*
X90439666Y-117498000D01*
X90689666Y-118414666D02*
X89856333Y-118414666D01*
X89856333Y-116664666D01*
X90689666Y-116664666D01*
X91439666Y-118414666D02*
X91439666Y-116664666D01*
X91856333Y-116664666D01*
X92106333Y-116748000D01*
X92273000Y-116914666D01*
X92356333Y-117081333D01*
X92439666Y-117414666D01*
X92439666Y-117664666D01*
X92356333Y-117998000D01*
X92273000Y-118164666D01*
X92106333Y-118331333D01*
X91856333Y-118414666D01*
X91439666Y-118414666D01*
X95523000Y-118414666D02*
X94939666Y-117581333D01*
X94523000Y-118414666D02*
X94523000Y-116664666D01*
X95189666Y-116664666D01*
X95356333Y-116748000D01*
X95439666Y-116831333D01*
X95523000Y-116998000D01*
X95523000Y-117248000D01*
X95439666Y-117414666D01*
X95356333Y-117498000D01*
X95189666Y-117581333D01*
X94523000Y-117581333D01*
X96106333Y-116664666D02*
X97189666Y-116664666D01*
X96606333Y-117331333D01*
X96856333Y-117331333D01*
X97023000Y-117414666D01*
X97106333Y-117498000D01*
X97189666Y-117664666D01*
X97189666Y-118081333D01*
X97106333Y-118248000D01*
X97023000Y-118331333D01*
X96856333Y-118414666D01*
X96356333Y-118414666D01*
X96189666Y-118331333D01*
X96106333Y-118248000D01*
X87947000Y-98573000D02*
X98107000Y-98573000D01*
X98107000Y-98573000D02*
X98107000Y-95525000D01*
X89273000Y-97840666D02*
X88439666Y-97840666D01*
X88439666Y-96090666D01*
X89856333Y-96924000D02*
X90439666Y-96924000D01*
X90689666Y-97840666D02*
X89856333Y-97840666D01*
X89856333Y-96090666D01*
X90689666Y-96090666D01*
X91439666Y-97840666D02*
X91439666Y-96090666D01*
X91856333Y-96090666D01*
X92106333Y-96174000D01*
X92273000Y-96340666D01*
X92356333Y-96507333D01*
X92439666Y-96840666D01*
X92439666Y-97090666D01*
X92356333Y-97424000D01*
X92273000Y-97590666D01*
X92106333Y-97757333D01*
X91856333Y-97840666D01*
X91439666Y-97840666D01*
X95523000Y-97840666D02*
X94939666Y-97007333D01*
X94523000Y-97840666D02*
X94523000Y-96090666D01*
X95189666Y-96090666D01*
X95356333Y-96174000D01*
X95439666Y-96257333D01*
X95523000Y-96424000D01*
X95523000Y-96674000D01*
X95439666Y-96840666D01*
X95356333Y-96924000D01*
X95189666Y-97007333D01*
X94523000Y-97007333D01*
X96189666Y-96257333D02*
X96273000Y-96174000D01*
X96439666Y-96090666D01*
X96856333Y-96090666D01*
X97023000Y-96174000D01*
X97106333Y-96257333D01*
X97189666Y-96424000D01*
X97189666Y-96590666D01*
X97106333Y-96840666D01*
X96106333Y-97840666D01*
X97189666Y-97840666D01*
X87947000Y-77745000D02*
X98107000Y-77745000D01*
X98107000Y-77745000D02*
X98107000Y-74697000D01*
X89273000Y-77012666D02*
X88439666Y-77012666D01*
X88439666Y-75262666D01*
X89856333Y-76096000D02*
X90439666Y-76096000D01*
X90689666Y-77012666D02*
X89856333Y-77012666D01*
X89856333Y-75262666D01*
X90689666Y-75262666D01*
X91439666Y-77012666D02*
X91439666Y-75262666D01*
X91856333Y-75262666D01*
X92106333Y-75346000D01*
X92273000Y-75512666D01*
X92356333Y-75679333D01*
X92439666Y-76012666D01*
X92439666Y-76262666D01*
X92356333Y-76596000D01*
X92273000Y-76762666D01*
X92106333Y-76929333D01*
X91856333Y-77012666D01*
X91439666Y-77012666D01*
X95523000Y-77012666D02*
X94939666Y-76179333D01*
X94523000Y-77012666D02*
X94523000Y-75262666D01*
X95189666Y-75262666D01*
X95356333Y-75346000D01*
X95439666Y-75429333D01*
X95523000Y-75596000D01*
X95523000Y-75846000D01*
X95439666Y-76012666D01*
X95356333Y-76096000D01*
X95189666Y-76179333D01*
X94523000Y-76179333D01*
X97189666Y-77012666D02*
X96189666Y-77012666D01*
X96689666Y-77012666D02*
X96689666Y-75262666D01*
X96523000Y-75512666D01*
X96356333Y-75679333D01*
X96189666Y-75762666D01*
X98171000Y-57023000D02*
X98171000Y-53975000D01*
X88011000Y-57023000D02*
X98171000Y-57023000D01*
X89337000Y-56290666D02*
X88503666Y-56290666D01*
X88503666Y-54540666D01*
X89920333Y-55374000D02*
X90503666Y-55374000D01*
X90753666Y-56290666D02*
X89920333Y-56290666D01*
X89920333Y-54540666D01*
X90753666Y-54540666D01*
X91503666Y-56290666D02*
X91503666Y-54540666D01*
X91920333Y-54540666D01*
X92170333Y-54624000D01*
X92337000Y-54790666D01*
X92420333Y-54957333D01*
X92503666Y-55290666D01*
X92503666Y-55540666D01*
X92420333Y-55874000D01*
X92337000Y-56040666D01*
X92170333Y-56207333D01*
X91920333Y-56290666D01*
X91503666Y-56290666D01*
X95587000Y-56290666D02*
X95003666Y-55457333D01*
X94587000Y-56290666D02*
X94587000Y-54540666D01*
X95253666Y-54540666D01*
X95420333Y-54624000D01*
X95503666Y-54707333D01*
X95587000Y-54874000D01*
X95587000Y-55124000D01*
X95503666Y-55290666D01*
X95420333Y-55374000D01*
X95253666Y-55457333D01*
X94587000Y-55457333D01*
X96670333Y-54540666D02*
X96837000Y-54540666D01*
X97003666Y-54624000D01*
X97087000Y-54707333D01*
X97170333Y-54874000D01*
X97253666Y-55207333D01*
X97253666Y-55624000D01*
X97170333Y-55957333D01*
X97087000Y-56124000D01*
X97003666Y-56207333D01*
X96837000Y-56290666D01*
X96670333Y-56290666D01*
X96503666Y-56207333D01*
X96420333Y-56124000D01*
X96337000Y-55957333D01*
X96253666Y-55624000D01*
X96253666Y-55207333D01*
X96337000Y-54874000D01*
X96420333Y-54707333D01*
X96503666Y-54624000D01*
X96670333Y-54540666D01*
D12*
X83318857Y-95811285D02*
X83318857Y-94697000D01*
X83318857Y-95254142D02*
X85268857Y-95254142D01*
X84990285Y-95068428D01*
X84804571Y-94882714D01*
X84711714Y-94697000D01*
X83504571Y-96647000D02*
X83411714Y-96739857D01*
X83318857Y-96647000D01*
X83411714Y-96554142D01*
X83504571Y-96647000D01*
X83318857Y-96647000D01*
X85268857Y-97389857D02*
X85268857Y-98597000D01*
X84526000Y-97947000D01*
X84526000Y-98225571D01*
X84433142Y-98411285D01*
X84340285Y-98504142D01*
X84154571Y-98597000D01*
X83690285Y-98597000D01*
X83504571Y-98504142D01*
X83411714Y-98411285D01*
X83318857Y-98225571D01*
X83318857Y-97668428D01*
X83411714Y-97482714D01*
X83504571Y-97389857D01*
X85351857Y-92376714D02*
X83351857Y-93091000D01*
X85351857Y-93805285D01*
D13*
X83351857Y-80328142D02*
X85351857Y-80328142D01*
X85066142Y-80328142D02*
X85209000Y-80471000D01*
X85351857Y-80756714D01*
X85351857Y-81185285D01*
X85209000Y-81471000D01*
X84923285Y-81613857D01*
X83351857Y-81613857D01*
X84923285Y-81613857D02*
X85209000Y-81756714D01*
X85351857Y-82042428D01*
X85351857Y-82471000D01*
X85209000Y-82756714D01*
X84923285Y-82899571D01*
X83351857Y-82899571D01*
X85351857Y-85613857D02*
X83351857Y-85613857D01*
X85351857Y-84328142D02*
X83780428Y-84328142D01*
X83494714Y-84471000D01*
X83351857Y-84756714D01*
X83351857Y-85185285D01*
X83494714Y-85471000D01*
X83637571Y-85613857D01*
X83494714Y-86899571D02*
X83351857Y-87185285D01*
X83351857Y-87756714D01*
X83494714Y-88042428D01*
X83780428Y-88185285D01*
X83923285Y-88185285D01*
X84209000Y-88042428D01*
X84351857Y-87756714D01*
X84351857Y-87328142D01*
X84494714Y-87042428D01*
X84780428Y-86899571D01*
X84923285Y-86899571D01*
X85209000Y-87042428D01*
X85351857Y-87328142D01*
X85351857Y-87756714D01*
X85209000Y-88042428D01*
X83494714Y-90613857D02*
X83351857Y-90328142D01*
X83351857Y-89756714D01*
X83494714Y-89471000D01*
X83780428Y-89328142D01*
X84923285Y-89328142D01*
X85209000Y-89471000D01*
X85351857Y-89756714D01*
X85351857Y-90328142D01*
X85209000Y-90613857D01*
X84923285Y-90756714D01*
X84637571Y-90756714D01*
X84351857Y-89328142D01*
D14*
%TO.C,C9*%
X60167000Y-62711000D02*
X60167000Y-67551000D01*
X56927000Y-62711000D02*
X56927000Y-67551000D01*
X60167000Y-62711000D02*
X56927000Y-62711000D01*
X60167000Y-67551000D02*
X56927000Y-67551000D01*
%TO.C,C8*%
X45637000Y-116077000D02*
X45637000Y-111237000D01*
X48877000Y-116077000D02*
X48877000Y-111237000D01*
X45637000Y-116077000D02*
X48877000Y-116077000D01*
X45637000Y-111237000D02*
X48877000Y-111237000D01*
%TO.C,C7*%
X67849000Y-116047000D02*
X67849000Y-111207000D01*
X71089000Y-116047000D02*
X71089000Y-111207000D01*
X67849000Y-116047000D02*
X71089000Y-116047000D01*
X67849000Y-111207000D02*
X71089000Y-111207000D01*
%TO.C,C6*%
X64231000Y-116305000D02*
X64231000Y-121145000D01*
X60991000Y-116305000D02*
X60991000Y-121145000D01*
X64231000Y-116305000D02*
X60991000Y-116305000D01*
X64231000Y-121145000D02*
X60991000Y-121145000D01*
%TO.C,C5*%
X86563000Y-116277000D02*
X86563000Y-121117000D01*
X83323000Y-116277000D02*
X83323000Y-121117000D01*
X86563000Y-116277000D02*
X83323000Y-116277000D01*
X86563000Y-121117000D02*
X83323000Y-121117000D01*
%TO.C,C4*%
X56947000Y-110177000D02*
X56947000Y-105337000D01*
X60187000Y-110177000D02*
X60187000Y-105337000D01*
X56947000Y-110177000D02*
X60187000Y-110177000D01*
X56947000Y-105337000D02*
X60187000Y-105337000D01*
%TO.C,C3*%
X79223000Y-110177000D02*
X79223000Y-105337000D01*
X82463000Y-110177000D02*
X82463000Y-105337000D01*
X79223000Y-110177000D02*
X82463000Y-110177000D01*
X79223000Y-105337000D02*
X82463000Y-105337000D01*
%TO.C,C2*%
X60167000Y-122147000D02*
X60167000Y-126987000D01*
X56927000Y-122147000D02*
X56927000Y-126987000D01*
X60167000Y-122147000D02*
X56927000Y-122147000D01*
X60167000Y-126987000D02*
X56927000Y-126987000D01*
%TO.C,C1*%
X82443000Y-122167000D02*
X82443000Y-127007000D01*
X79203000Y-122167000D02*
X79203000Y-127007000D01*
X82443000Y-122167000D02*
X79203000Y-122167000D01*
X82443000Y-127007000D02*
X79203000Y-127007000D01*
D15*
%TO.C,CON2*%
X56803000Y-140265000D02*
X56803000Y-140265000D01*
X56803000Y-140365000D02*
X56803000Y-140365000D01*
X52903000Y-146865000D02*
X52903000Y-143865000D01*
X45903000Y-146865000D02*
X52903000Y-146865000D01*
X45903000Y-143965000D02*
X45903000Y-146865000D01*
X44603000Y-132865000D02*
X54203000Y-132865000D01*
X56403000Y-143865000D02*
X56403000Y-134165000D01*
X42403000Y-143865000D02*
X56403000Y-143865000D01*
X42403000Y-134165000D02*
X42403000Y-143865000D01*
X56803000Y-140265000D02*
G75*
G02*
X56803000Y-140365000I0J-50000D01*
G01*
X56803000Y-140365000D02*
G75*
G02*
X56803000Y-140265000I0J50000D01*
G01*
D14*
%TO.C,U4*%
X60608000Y-66675000D02*
X60608000Y-70275000D01*
X60608000Y-66675000D02*
X60608000Y-64475000D01*
X68678000Y-66675000D02*
X68678000Y-68875000D01*
X68678000Y-66675000D02*
X68678000Y-64475000D01*
D16*
%TO.C,U3*%
X78370720Y-79252460D02*
X81400720Y-80776460D01*
X78370720Y-99572460D02*
X81400720Y-98048460D01*
X81400720Y-98048460D02*
X81400720Y-80776460D01*
X45260260Y-79252460D02*
X78370720Y-79252460D01*
X45260720Y-99572460D02*
X78370720Y-99572460D01*
X45260260Y-85399260D02*
X45260260Y-79252460D01*
X45260720Y-93425660D02*
X45260720Y-99572460D01*
X43355260Y-93425660D02*
X45260260Y-93425660D01*
X43355260Y-85399260D02*
X45260260Y-85399260D01*
X43355260Y-93425660D02*
X43355260Y-85399260D01*
D14*
%TO.C,U2*%
X53727000Y-111057000D02*
X52477000Y-111057000D01*
X52477000Y-111057000D02*
X52477000Y-121337000D01*
X52477000Y-121337000D02*
X56977000Y-121337000D01*
X56977000Y-121337000D02*
X56977000Y-111057000D01*
X56977000Y-111057000D02*
X55727000Y-111057000D01*
X55727000Y-111057000D02*
G75*
G02*
X53727000Y-111057000I-1000000J0D01*
G01*
%TO.C,U1*%
X76023000Y-111047000D02*
X74773000Y-111047000D01*
X74773000Y-111047000D02*
X74773000Y-121327000D01*
X74773000Y-121327000D02*
X79273000Y-121327000D01*
X79273000Y-121327000D02*
X79273000Y-111047000D01*
X79273000Y-111047000D02*
X78023000Y-111047000D01*
X78023000Y-111047000D02*
G75*
G02*
X76023000Y-111047000I-1000000J0D01*
G01*
%TO.C,SW1*%
X35413000Y-80497000D02*
X35413000Y-77817000D01*
X41653000Y-77817000D02*
X41653000Y-80497000D01*
X41503000Y-82277000D02*
X35563000Y-82277000D01*
X41503000Y-76037000D02*
X35563000Y-76037000D01*
X39947214Y-79157000D02*
G75*
G03*
X39947214Y-79157000I-1414214J0D01*
G01*
%TO.C,RN4*%
X86871000Y-55085000D02*
X84071000Y-55085000D01*
X86871000Y-78115000D02*
X86871000Y-52375000D01*
X84071000Y-78115000D02*
X86871000Y-78115000D01*
X84071000Y-52375000D02*
X84071000Y-78115000D01*
X86871000Y-52375000D02*
X84071000Y-52375000D01*
%TO.C,RN3*%
X47115000Y-54761000D02*
X44315000Y-54761000D01*
X47115000Y-77791000D02*
X47115000Y-52051000D01*
X44315000Y-77791000D02*
X47115000Y-77791000D01*
X44315000Y-52051000D02*
X44315000Y-77791000D01*
X47115000Y-52051000D02*
X44315000Y-52051000D01*
%TO.C,RN2*%
X77525000Y-59947000D02*
X77525000Y-57147000D01*
X51955000Y-59947000D02*
X80235000Y-59947000D01*
X51955000Y-57147000D02*
X51955000Y-59947000D01*
X80235000Y-57147000D02*
X51955000Y-57147000D01*
X80235000Y-59947000D02*
X80235000Y-57147000D01*
%TO.C,RN1*%
X77535000Y-76151000D02*
X77535000Y-73351000D01*
X51965000Y-76151000D02*
X80245000Y-76151000D01*
X51965000Y-73351000D02*
X51965000Y-76151000D01*
X80245000Y-73351000D02*
X51965000Y-73351000D01*
X80245000Y-76151000D02*
X80245000Y-73351000D01*
%TO.C,R7*%
X53213000Y-62635000D02*
X53213000Y-63405000D01*
X53213000Y-70715000D02*
X53213000Y-69945000D01*
X51843000Y-63405000D02*
X51843000Y-69945000D01*
X54583000Y-63405000D02*
X51843000Y-63405000D01*
X54583000Y-69945000D02*
X54583000Y-63405000D01*
X51843000Y-69945000D02*
X54583000Y-69945000D01*
%TO.C,R6*%
X81383000Y-49657000D02*
X80613000Y-49657000D01*
X73303000Y-49657000D02*
X74073000Y-49657000D01*
X80613000Y-48287000D02*
X74073000Y-48287000D01*
X80613000Y-51027000D02*
X80613000Y-48287000D01*
X74073000Y-51027000D02*
X80613000Y-51027000D01*
X74073000Y-48287000D02*
X74073000Y-51027000D01*
%TO.C,R5*%
X48665000Y-49657000D02*
X49435000Y-49657000D01*
X56745000Y-49657000D02*
X55975000Y-49657000D01*
X49435000Y-51027000D02*
X55975000Y-51027000D01*
X49435000Y-48287000D02*
X49435000Y-51027000D01*
X55975000Y-48287000D02*
X49435000Y-48287000D01*
X55975000Y-51027000D02*
X55975000Y-48287000D01*
%TO.C,R4*%
X46357000Y-106887000D02*
X47127000Y-106887000D01*
X54437000Y-106887000D02*
X53667000Y-106887000D01*
X47127000Y-108257000D02*
X53667000Y-108257000D01*
X47127000Y-105517000D02*
X47127000Y-108257000D01*
X53667000Y-105517000D02*
X47127000Y-105517000D01*
X53667000Y-108257000D02*
X53667000Y-105517000D01*
%TO.C,R3*%
X68773000Y-106897000D02*
X69543000Y-106897000D01*
X76853000Y-106897000D02*
X76083000Y-106897000D01*
X69543000Y-108267000D02*
X76083000Y-108267000D01*
X69543000Y-105527000D02*
X69543000Y-108267000D01*
X76083000Y-105527000D02*
X69543000Y-105527000D01*
X76083000Y-108267000D02*
X76083000Y-105527000D01*
%TO.C,R2*%
X54427000Y-125607000D02*
X53657000Y-125607000D01*
X46347000Y-125607000D02*
X47117000Y-125607000D01*
X53657000Y-124237000D02*
X47117000Y-124237000D01*
X53657000Y-126977000D02*
X53657000Y-124237000D01*
X47117000Y-126977000D02*
X53657000Y-126977000D01*
X47117000Y-124237000D02*
X47117000Y-126977000D01*
%TO.C,R1*%
X68723000Y-125617000D02*
X69493000Y-125617000D01*
X76803000Y-125617000D02*
X76033000Y-125617000D01*
X69493000Y-126987000D02*
X76033000Y-126987000D01*
X69493000Y-124247000D02*
X69493000Y-126987000D01*
X76033000Y-124247000D02*
X69493000Y-124247000D01*
X76033000Y-126987000D02*
X76033000Y-124247000D01*
%TO.C,J12*%
X112407000Y-48573000D02*
X112407000Y-43663000D01*
X112407000Y-43663000D02*
X105807000Y-43663000D01*
X105807000Y-43663000D02*
X105807000Y-38663000D01*
X105807000Y-38663000D02*
X99387000Y-38663000D01*
X99387000Y-38663000D02*
X99387000Y-44473000D01*
X112407000Y-48573000D02*
X112407000Y-53483000D01*
X112407000Y-53483000D02*
X105807000Y-53483000D01*
X105807000Y-53483000D02*
X105807000Y-58483000D01*
X105807000Y-58483000D02*
X99387000Y-58483000D01*
X99387000Y-58483000D02*
X99387000Y-52673000D01*
X96287000Y-46173000D02*
X95007000Y-46173000D01*
X96287000Y-46773000D02*
X95007000Y-46773000D01*
X96287000Y-50373000D02*
X95007000Y-50373000D01*
X96287000Y-50973000D02*
X95007000Y-50973000D01*
X99397000Y-48083000D02*
X99397000Y-49063000D01*
X98397000Y-44473000D02*
X98097000Y-43873000D01*
X98097000Y-43873000D02*
X98697000Y-43873000D01*
X98697000Y-43873000D02*
X98397000Y-44473000D01*
%TO.C,J11*%
X112417000Y-69283000D02*
X112417000Y-64373000D01*
X112417000Y-64373000D02*
X105817000Y-64373000D01*
X105817000Y-64373000D02*
X105817000Y-59373000D01*
X105817000Y-59373000D02*
X99397000Y-59373000D01*
X99397000Y-59373000D02*
X99397000Y-65183000D01*
X112417000Y-69283000D02*
X112417000Y-74193000D01*
X112417000Y-74193000D02*
X105817000Y-74193000D01*
X105817000Y-74193000D02*
X105817000Y-79193000D01*
X105817000Y-79193000D02*
X99397000Y-79193000D01*
X99397000Y-79193000D02*
X99397000Y-73383000D01*
X96297000Y-66883000D02*
X95017000Y-66883000D01*
X96297000Y-67483000D02*
X95017000Y-67483000D01*
X96297000Y-71083000D02*
X95017000Y-71083000D01*
X96297000Y-71683000D02*
X95017000Y-71683000D01*
X99407000Y-68793000D02*
X99407000Y-69773000D01*
X98407000Y-65183000D02*
X98107000Y-64583000D01*
X98107000Y-64583000D02*
X98707000Y-64583000D01*
X98707000Y-64583000D02*
X98407000Y-65183000D01*
%TO.C,J10*%
X112417000Y-89993000D02*
X112417000Y-85083000D01*
X112417000Y-85083000D02*
X105817000Y-85083000D01*
X105817000Y-85083000D02*
X105817000Y-80083000D01*
X105817000Y-80083000D02*
X99397000Y-80083000D01*
X99397000Y-80083000D02*
X99397000Y-85893000D01*
X112417000Y-89993000D02*
X112417000Y-94903000D01*
X112417000Y-94903000D02*
X105817000Y-94903000D01*
X105817000Y-94903000D02*
X105817000Y-99903000D01*
X105817000Y-99903000D02*
X99397000Y-99903000D01*
X99397000Y-99903000D02*
X99397000Y-94093000D01*
X96297000Y-87593000D02*
X95017000Y-87593000D01*
X96297000Y-88193000D02*
X95017000Y-88193000D01*
X96297000Y-91793000D02*
X95017000Y-91793000D01*
X96297000Y-92393000D02*
X95017000Y-92393000D01*
X99407000Y-89503000D02*
X99407000Y-90483000D01*
X98407000Y-85893000D02*
X98107000Y-85293000D01*
X98107000Y-85293000D02*
X98707000Y-85293000D01*
X98707000Y-85293000D02*
X98407000Y-85893000D01*
%TO.C,J9*%
X112437000Y-110663000D02*
X112437000Y-105753000D01*
X112437000Y-105753000D02*
X105837000Y-105753000D01*
X105837000Y-105753000D02*
X105837000Y-100753000D01*
X105837000Y-100753000D02*
X99417000Y-100753000D01*
X99417000Y-100753000D02*
X99417000Y-106563000D01*
X112437000Y-110663000D02*
X112437000Y-115573000D01*
X112437000Y-115573000D02*
X105837000Y-115573000D01*
X105837000Y-115573000D02*
X105837000Y-120573000D01*
X105837000Y-120573000D02*
X99417000Y-120573000D01*
X99417000Y-120573000D02*
X99417000Y-114763000D01*
X96317000Y-108263000D02*
X95037000Y-108263000D01*
X96317000Y-108863000D02*
X95037000Y-108863000D01*
X96317000Y-112463000D02*
X95037000Y-112463000D01*
X96317000Y-113063000D02*
X95037000Y-113063000D01*
X99427000Y-110173000D02*
X99427000Y-111153000D01*
X98427000Y-106563000D02*
X98127000Y-105963000D01*
X98127000Y-105963000D02*
X98727000Y-105963000D01*
X98727000Y-105963000D02*
X98427000Y-106563000D01*
%TO.C,J8*%
X112427000Y-131343000D02*
X112427000Y-126433000D01*
X112427000Y-126433000D02*
X105827000Y-126433000D01*
X105827000Y-126433000D02*
X105827000Y-121433000D01*
X105827000Y-121433000D02*
X99407000Y-121433000D01*
X99407000Y-121433000D02*
X99407000Y-127243000D01*
X112427000Y-131343000D02*
X112427000Y-136253000D01*
X112427000Y-136253000D02*
X105827000Y-136253000D01*
X105827000Y-136253000D02*
X105827000Y-141253000D01*
X105827000Y-141253000D02*
X99407000Y-141253000D01*
X99407000Y-141253000D02*
X99407000Y-135443000D01*
X96307000Y-128943000D02*
X95027000Y-128943000D01*
X96307000Y-129543000D02*
X95027000Y-129543000D01*
X96307000Y-133143000D02*
X95027000Y-133143000D01*
X96307000Y-133743000D02*
X95027000Y-133743000D01*
X99417000Y-130853000D02*
X99417000Y-131833000D01*
X98417000Y-127243000D02*
X98117000Y-126643000D01*
X98117000Y-126643000D02*
X98717000Y-126643000D01*
X98717000Y-126643000D02*
X98417000Y-127243000D01*
%TO.C,J7*%
X17835000Y-131347000D02*
X17835000Y-136257000D01*
X17835000Y-136257000D02*
X24435000Y-136257000D01*
X24435000Y-136257000D02*
X24435000Y-141257000D01*
X24435000Y-141257000D02*
X30855000Y-141257000D01*
X30855000Y-141257000D02*
X30855000Y-135447000D01*
X17835000Y-131347000D02*
X17835000Y-126437000D01*
X17835000Y-126437000D02*
X24435000Y-126437000D01*
X24435000Y-126437000D02*
X24435000Y-121437000D01*
X24435000Y-121437000D02*
X30855000Y-121437000D01*
X30855000Y-121437000D02*
X30855000Y-127247000D01*
X33955000Y-133747000D02*
X35235000Y-133747000D01*
X33955000Y-133147000D02*
X35235000Y-133147000D01*
X33955000Y-129547000D02*
X35235000Y-129547000D01*
X33955000Y-128947000D02*
X35235000Y-128947000D01*
X30845000Y-131837000D02*
X30845000Y-130857000D01*
X31845000Y-135447000D02*
X32145000Y-136047000D01*
X32145000Y-136047000D02*
X31545000Y-136047000D01*
X31545000Y-136047000D02*
X31845000Y-135447000D01*
%TO.C,J6*%
X17855000Y-110667000D02*
X17855000Y-115577000D01*
X17855000Y-115577000D02*
X24455000Y-115577000D01*
X24455000Y-115577000D02*
X24455000Y-120577000D01*
X24455000Y-120577000D02*
X30875000Y-120577000D01*
X30875000Y-120577000D02*
X30875000Y-114767000D01*
X17855000Y-110667000D02*
X17855000Y-105757000D01*
X17855000Y-105757000D02*
X24455000Y-105757000D01*
X24455000Y-105757000D02*
X24455000Y-100757000D01*
X24455000Y-100757000D02*
X30875000Y-100757000D01*
X30875000Y-100757000D02*
X30875000Y-106567000D01*
X33975000Y-113067000D02*
X35255000Y-113067000D01*
X33975000Y-112467000D02*
X35255000Y-112467000D01*
X33975000Y-108867000D02*
X35255000Y-108867000D01*
X33975000Y-108267000D02*
X35255000Y-108267000D01*
X30865000Y-111157000D02*
X30865000Y-110177000D01*
X31865000Y-114767000D02*
X32165000Y-115367000D01*
X32165000Y-115367000D02*
X31565000Y-115367000D01*
X31565000Y-115367000D02*
X31865000Y-114767000D01*
%TO.C,J5*%
X17865000Y-89997000D02*
X17865000Y-94907000D01*
X17865000Y-94907000D02*
X24465000Y-94907000D01*
X24465000Y-94907000D02*
X24465000Y-99907000D01*
X24465000Y-99907000D02*
X30885000Y-99907000D01*
X30885000Y-99907000D02*
X30885000Y-94097000D01*
X17865000Y-89997000D02*
X17865000Y-85087000D01*
X17865000Y-85087000D02*
X24465000Y-85087000D01*
X24465000Y-85087000D02*
X24465000Y-80087000D01*
X24465000Y-80087000D02*
X30885000Y-80087000D01*
X30885000Y-80087000D02*
X30885000Y-85897000D01*
X33985000Y-92397000D02*
X35265000Y-92397000D01*
X33985000Y-91797000D02*
X35265000Y-91797000D01*
X33985000Y-88197000D02*
X35265000Y-88197000D01*
X33985000Y-87597000D02*
X35265000Y-87597000D01*
X30875000Y-90487000D02*
X30875000Y-89507000D01*
X31875000Y-94097000D02*
X32175000Y-94697000D01*
X32175000Y-94697000D02*
X31575000Y-94697000D01*
X31575000Y-94697000D02*
X31875000Y-94097000D01*
%TO.C,J4*%
X17875000Y-69307000D02*
X17875000Y-74217000D01*
X17875000Y-74217000D02*
X24475000Y-74217000D01*
X24475000Y-74217000D02*
X24475000Y-79217000D01*
X24475000Y-79217000D02*
X30895000Y-79217000D01*
X30895000Y-79217000D02*
X30895000Y-73407000D01*
X17875000Y-69307000D02*
X17875000Y-64397000D01*
X17875000Y-64397000D02*
X24475000Y-64397000D01*
X24475000Y-64397000D02*
X24475000Y-59397000D01*
X24475000Y-59397000D02*
X30895000Y-59397000D01*
X30895000Y-59397000D02*
X30895000Y-65207000D01*
X33995000Y-71707000D02*
X35275000Y-71707000D01*
X33995000Y-71107000D02*
X35275000Y-71107000D01*
X33995000Y-67507000D02*
X35275000Y-67507000D01*
X33995000Y-66907000D02*
X35275000Y-66907000D01*
X30885000Y-69797000D02*
X30885000Y-68817000D01*
X31885000Y-73407000D02*
X32185000Y-74007000D01*
X32185000Y-74007000D02*
X31585000Y-74007000D01*
X31585000Y-74007000D02*
X31885000Y-73407000D01*
%TO.C,J3*%
X17865000Y-48617000D02*
X17865000Y-53527000D01*
X17865000Y-53527000D02*
X24465000Y-53527000D01*
X24465000Y-53527000D02*
X24465000Y-58527000D01*
X24465000Y-58527000D02*
X30885000Y-58527000D01*
X30885000Y-58527000D02*
X30885000Y-52717000D01*
X17865000Y-48617000D02*
X17865000Y-43707000D01*
X17865000Y-43707000D02*
X24465000Y-43707000D01*
X24465000Y-43707000D02*
X24465000Y-38707000D01*
X24465000Y-38707000D02*
X30885000Y-38707000D01*
X30885000Y-38707000D02*
X30885000Y-44517000D01*
X33985000Y-51017000D02*
X35265000Y-51017000D01*
X33985000Y-50417000D02*
X35265000Y-50417000D01*
X33985000Y-46817000D02*
X35265000Y-46817000D01*
X33985000Y-46217000D02*
X35265000Y-46217000D01*
X30875000Y-49107000D02*
X30875000Y-48127000D01*
X31875000Y-52717000D02*
X32175000Y-53317000D01*
X32175000Y-53317000D02*
X31575000Y-53317000D01*
X31575000Y-53317000D02*
X31875000Y-52717000D01*
%TO.C,J2*%
X57979000Y-102803000D02*
X57979000Y-101473000D01*
X59309000Y-102803000D02*
X57979000Y-102803000D01*
X60579000Y-102803000D02*
X60579000Y-100143000D01*
X60579000Y-100143000D02*
X63179000Y-100143000D01*
X60579000Y-102803000D02*
X63179000Y-102803000D01*
X63179000Y-102803000D02*
X63179000Y-100143000D01*
%TO.C,J1*%
X65085000Y-21169000D02*
X39175000Y-21169000D01*
X39175000Y-21169000D02*
X39175000Y-27769000D01*
X39175000Y-27769000D02*
X34175000Y-27769000D01*
X34175000Y-27769000D02*
X34175000Y-34189000D01*
X34175000Y-34189000D02*
X39985000Y-34189000D01*
X65085000Y-21169000D02*
X90995000Y-21169000D01*
X90995000Y-21169000D02*
X90995000Y-27769000D01*
X90995000Y-27769000D02*
X95995000Y-27769000D01*
X95995000Y-27769000D02*
X95995000Y-34189000D01*
X95995000Y-34189000D02*
X90185000Y-34189000D01*
X41685000Y-37289000D02*
X41685000Y-38569000D01*
X42285000Y-37289000D02*
X42285000Y-38569000D01*
X45885000Y-37289000D02*
X45885000Y-38569000D01*
X46485000Y-37289000D02*
X46485000Y-38569000D01*
X50085000Y-37289000D02*
X50085000Y-38569000D01*
X50685000Y-37289000D02*
X50685000Y-38569000D01*
X54285000Y-37289000D02*
X54285000Y-38569000D01*
X54885000Y-37289000D02*
X54885000Y-38569000D01*
X58485000Y-37289000D02*
X58485000Y-38569000D01*
X59085000Y-37289000D02*
X59085000Y-38569000D01*
X62685000Y-37289000D02*
X62685000Y-38569000D01*
X63285000Y-37289000D02*
X63285000Y-38569000D01*
X66885000Y-37289000D02*
X66885000Y-38569000D01*
X67485000Y-37289000D02*
X67485000Y-38569000D01*
X71085000Y-37289000D02*
X71085000Y-38569000D01*
X71685000Y-37289000D02*
X71685000Y-38569000D01*
X75285000Y-37289000D02*
X75285000Y-38569000D01*
X75885000Y-37289000D02*
X75885000Y-38569000D01*
X79485000Y-37289000D02*
X79485000Y-38569000D01*
X80085000Y-37289000D02*
X80085000Y-38569000D01*
X83685000Y-37289000D02*
X83685000Y-38569000D01*
X84285000Y-37289000D02*
X84285000Y-38569000D01*
X87885000Y-37289000D02*
X87885000Y-38569000D01*
X88485000Y-37289000D02*
X88485000Y-38569000D01*
X43595000Y-34179000D02*
X44575000Y-34179000D01*
X47795000Y-34179000D02*
X48775000Y-34179000D01*
X51995000Y-34179000D02*
X52975000Y-34179000D01*
X56195000Y-34179000D02*
X57175000Y-34179000D01*
X60395000Y-34179000D02*
X61375000Y-34179000D01*
X64595000Y-34179000D02*
X65575000Y-34179000D01*
X68795000Y-34179000D02*
X69775000Y-34179000D01*
X72995000Y-34179000D02*
X73975000Y-34179000D01*
X77195000Y-34179000D02*
X78175000Y-34179000D01*
X81395000Y-34179000D02*
X82375000Y-34179000D01*
X85595000Y-34179000D02*
X86575000Y-34179000D01*
X39985000Y-35179000D02*
X39385000Y-35479000D01*
X39385000Y-35479000D02*
X39385000Y-34879000D01*
X39385000Y-34879000D02*
X39985000Y-35179000D01*
%TO.C,F4*%
X109901000Y-28379000D02*
X109901000Y-31579000D01*
X105901000Y-31579000D02*
X105901000Y-28379000D01*
X107901000Y-29229000D02*
X107901000Y-30729000D01*
X111371000Y-38079000D02*
X111371000Y-21879000D01*
X104431000Y-38079000D02*
X111371000Y-38079000D01*
X104431000Y-21879000D02*
X104431000Y-38079000D01*
X111371000Y-21879000D02*
X104431000Y-21879000D01*
%TO.C,F3*%
X24303000Y-28379000D02*
X24303000Y-31579000D01*
X20303000Y-31579000D02*
X20303000Y-28379000D01*
X22303000Y-29229000D02*
X22303000Y-30729000D01*
X25773000Y-38079000D02*
X25773000Y-21879000D01*
X18833000Y-38079000D02*
X25773000Y-38079000D01*
X18833000Y-21879000D02*
X18833000Y-38079000D01*
X25773000Y-21879000D02*
X18833000Y-21879000D01*
%TO.C,F2*%
X102281000Y-28379000D02*
X102281000Y-31579000D01*
X98281000Y-31579000D02*
X98281000Y-28379000D01*
X100281000Y-29229000D02*
X100281000Y-30729000D01*
X103751000Y-38079000D02*
X103751000Y-21879000D01*
X96811000Y-38079000D02*
X103751000Y-38079000D01*
X96811000Y-21879000D02*
X96811000Y-38079000D01*
X103751000Y-21879000D02*
X96811000Y-21879000D01*
%TO.C,F1*%
X31923000Y-28379000D02*
X31923000Y-31579000D01*
X27923000Y-31579000D02*
X27923000Y-28379000D01*
X29923000Y-29229000D02*
X29923000Y-30729000D01*
X33393000Y-38079000D02*
X33393000Y-21879000D01*
X26453000Y-38079000D02*
X33393000Y-38079000D01*
X26453000Y-21879000D02*
X26453000Y-38079000D01*
X33393000Y-21879000D02*
X26453000Y-21879000D01*
%TO.C,D2*%
X69759000Y-48577000D02*
X69759000Y-48421000D01*
X69759000Y-50893000D02*
X69759000Y-50737000D01*
X67157870Y-48577163D02*
G75*
G02*
X69239961Y-48577000I1041130J-1079837D01*
G01*
X67157870Y-50736837D02*
G75*
G03*
X69239961Y-50737000I1041130J1079837D01*
G01*
X66526665Y-48578392D02*
G75*
G02*
X69759000Y-48421484I1672335J-1078608D01*
G01*
X66526665Y-50735608D02*
G75*
G03*
X69759000Y-50892516I1672335J1078608D01*
G01*
%TO.C,D1*%
X60289000Y-50737000D02*
X60289000Y-50893000D01*
X60289000Y-48421000D02*
X60289000Y-48577000D01*
X62890130Y-50736837D02*
G75*
G02*
X60808039Y-50737000I-1041130J1079837D01*
G01*
X62890130Y-48577163D02*
G75*
G03*
X60808039Y-48577000I-1041130J-1079837D01*
G01*
X63521335Y-50735608D02*
G75*
G02*
X60289000Y-50892516I-1672335J1078608D01*
G01*
X63521335Y-48578392D02*
G75*
G03*
X60289000Y-48421484I-1672335J-1078608D01*
G01*
D15*
%TO.C,CON1*%
X87541000Y-130183000D02*
X87541000Y-132758000D01*
X60541000Y-130183000D02*
X87541000Y-130183000D01*
X60541000Y-132758000D02*
X60541000Y-130183000D01*
X87541000Y-143883000D02*
X87541000Y-137258000D01*
X60541000Y-143883000D02*
X87541000Y-143883000D01*
X60541000Y-137258000D02*
X60541000Y-143883000D01*
%TO.C,C9*%
D16*
X56110142Y-65297666D02*
X56157761Y-65345285D01*
X56205380Y-65488142D01*
X56205380Y-65583380D01*
X56157761Y-65726238D01*
X56062523Y-65821476D01*
X55967285Y-65869095D01*
X55776809Y-65916714D01*
X55633952Y-65916714D01*
X55443476Y-65869095D01*
X55348238Y-65821476D01*
X55253000Y-65726238D01*
X55205380Y-65583380D01*
X55205380Y-65488142D01*
X55253000Y-65345285D01*
X55300619Y-65297666D01*
X56205380Y-64821476D02*
X56205380Y-64631000D01*
X56157761Y-64535761D01*
X56110142Y-64488142D01*
X55967285Y-64392904D01*
X55776809Y-64345285D01*
X55395857Y-64345285D01*
X55300619Y-64392904D01*
X55253000Y-64440523D01*
X55205380Y-64535761D01*
X55205380Y-64726238D01*
X55253000Y-64821476D01*
X55300619Y-64869095D01*
X55395857Y-64916714D01*
X55633952Y-64916714D01*
X55729190Y-64869095D01*
X55776809Y-64821476D01*
X55824428Y-64726238D01*
X55824428Y-64535761D01*
X55776809Y-64440523D01*
X55729190Y-64392904D01*
X55633952Y-64345285D01*
%TO.C,C8*%
X47050333Y-110424142D02*
X47002714Y-110471761D01*
X46859857Y-110519380D01*
X46764619Y-110519380D01*
X46621761Y-110471761D01*
X46526523Y-110376523D01*
X46478904Y-110281285D01*
X46431285Y-110090809D01*
X46431285Y-109947952D01*
X46478904Y-109757476D01*
X46526523Y-109662238D01*
X46621761Y-109567000D01*
X46764619Y-109519380D01*
X46859857Y-109519380D01*
X47002714Y-109567000D01*
X47050333Y-109614619D01*
X47621761Y-109947952D02*
X47526523Y-109900333D01*
X47478904Y-109852714D01*
X47431285Y-109757476D01*
X47431285Y-109709857D01*
X47478904Y-109614619D01*
X47526523Y-109567000D01*
X47621761Y-109519380D01*
X47812238Y-109519380D01*
X47907476Y-109567000D01*
X47955095Y-109614619D01*
X48002714Y-109709857D01*
X48002714Y-109757476D01*
X47955095Y-109852714D01*
X47907476Y-109900333D01*
X47812238Y-109947952D01*
X47621761Y-109947952D01*
X47526523Y-109995571D01*
X47478904Y-110043190D01*
X47431285Y-110138428D01*
X47431285Y-110328904D01*
X47478904Y-110424142D01*
X47526523Y-110471761D01*
X47621761Y-110519380D01*
X47812238Y-110519380D01*
X47907476Y-110471761D01*
X47955095Y-110424142D01*
X48002714Y-110328904D01*
X48002714Y-110138428D01*
X47955095Y-110043190D01*
X47907476Y-109995571D01*
X47812238Y-109947952D01*
%TO.C,C7*%
X69282333Y-110404142D02*
X69234714Y-110451761D01*
X69091857Y-110499380D01*
X68996619Y-110499380D01*
X68853761Y-110451761D01*
X68758523Y-110356523D01*
X68710904Y-110261285D01*
X68663285Y-110070809D01*
X68663285Y-109927952D01*
X68710904Y-109737476D01*
X68758523Y-109642238D01*
X68853761Y-109547000D01*
X68996619Y-109499380D01*
X69091857Y-109499380D01*
X69234714Y-109547000D01*
X69282333Y-109594619D01*
X69615666Y-109499380D02*
X70282333Y-109499380D01*
X69853761Y-110499380D01*
%TO.C,C6*%
X62444333Y-122722142D02*
X62396714Y-122769761D01*
X62253857Y-122817380D01*
X62158619Y-122817380D01*
X62015761Y-122769761D01*
X61920523Y-122674523D01*
X61872904Y-122579285D01*
X61825285Y-122388809D01*
X61825285Y-122245952D01*
X61872904Y-122055476D01*
X61920523Y-121960238D01*
X62015761Y-121865000D01*
X62158619Y-121817380D01*
X62253857Y-121817380D01*
X62396714Y-121865000D01*
X62444333Y-121912619D01*
X63301476Y-121817380D02*
X63111000Y-121817380D01*
X63015761Y-121865000D01*
X62968142Y-121912619D01*
X62872904Y-122055476D01*
X62825285Y-122245952D01*
X62825285Y-122626904D01*
X62872904Y-122722142D01*
X62920523Y-122769761D01*
X63015761Y-122817380D01*
X63206238Y-122817380D01*
X63301476Y-122769761D01*
X63349095Y-122722142D01*
X63396714Y-122626904D01*
X63396714Y-122388809D01*
X63349095Y-122293571D01*
X63301476Y-122245952D01*
X63206238Y-122198333D01*
X63015761Y-122198333D01*
X62920523Y-122245952D01*
X62872904Y-122293571D01*
X62825285Y-122388809D01*
%TO.C,C5*%
X84816333Y-122764142D02*
X84768714Y-122811761D01*
X84625857Y-122859380D01*
X84530619Y-122859380D01*
X84387761Y-122811761D01*
X84292523Y-122716523D01*
X84244904Y-122621285D01*
X84197285Y-122430809D01*
X84197285Y-122287952D01*
X84244904Y-122097476D01*
X84292523Y-122002238D01*
X84387761Y-121907000D01*
X84530619Y-121859380D01*
X84625857Y-121859380D01*
X84768714Y-121907000D01*
X84816333Y-121954619D01*
X85721095Y-121859380D02*
X85244904Y-121859380D01*
X85197285Y-122335571D01*
X85244904Y-122287952D01*
X85340142Y-122240333D01*
X85578238Y-122240333D01*
X85673476Y-122287952D01*
X85721095Y-122335571D01*
X85768714Y-122430809D01*
X85768714Y-122668904D01*
X85721095Y-122764142D01*
X85673476Y-122811761D01*
X85578238Y-122859380D01*
X85340142Y-122859380D01*
X85244904Y-122811761D01*
X85197285Y-122764142D01*
%TO.C,C4*%
X61698142Y-107989666D02*
X61745761Y-108037285D01*
X61793380Y-108180142D01*
X61793380Y-108275380D01*
X61745761Y-108418238D01*
X61650523Y-108513476D01*
X61555285Y-108561095D01*
X61364809Y-108608714D01*
X61221952Y-108608714D01*
X61031476Y-108561095D01*
X60936238Y-108513476D01*
X60841000Y-108418238D01*
X60793380Y-108275380D01*
X60793380Y-108180142D01*
X60841000Y-108037285D01*
X60888619Y-107989666D01*
X61126714Y-107132523D02*
X61793380Y-107132523D01*
X60745761Y-107370619D02*
X61460047Y-107608714D01*
X61460047Y-106989666D01*
%TO.C,C3*%
X84050142Y-107989666D02*
X84097761Y-108037285D01*
X84145380Y-108180142D01*
X84145380Y-108275380D01*
X84097761Y-108418238D01*
X84002523Y-108513476D01*
X83907285Y-108561095D01*
X83716809Y-108608714D01*
X83573952Y-108608714D01*
X83383476Y-108561095D01*
X83288238Y-108513476D01*
X83193000Y-108418238D01*
X83145380Y-108275380D01*
X83145380Y-108180142D01*
X83193000Y-108037285D01*
X83240619Y-107989666D01*
X83145380Y-107656333D02*
X83145380Y-107037285D01*
X83526333Y-107370619D01*
X83526333Y-107227761D01*
X83573952Y-107132523D01*
X83621571Y-107084904D01*
X83716809Y-107037285D01*
X83954904Y-107037285D01*
X84050142Y-107084904D01*
X84097761Y-107132523D01*
X84145380Y-107227761D01*
X84145380Y-107513476D01*
X84097761Y-107608714D01*
X84050142Y-107656333D01*
%TO.C,C2*%
X58390333Y-128454142D02*
X58342714Y-128501761D01*
X58199857Y-128549380D01*
X58104619Y-128549380D01*
X57961761Y-128501761D01*
X57866523Y-128406523D01*
X57818904Y-128311285D01*
X57771285Y-128120809D01*
X57771285Y-127977952D01*
X57818904Y-127787476D01*
X57866523Y-127692238D01*
X57961761Y-127597000D01*
X58104619Y-127549380D01*
X58199857Y-127549380D01*
X58342714Y-127597000D01*
X58390333Y-127644619D01*
X58771285Y-127644619D02*
X58818904Y-127597000D01*
X58914142Y-127549380D01*
X59152238Y-127549380D01*
X59247476Y-127597000D01*
X59295095Y-127644619D01*
X59342714Y-127739857D01*
X59342714Y-127835095D01*
X59295095Y-127977952D01*
X58723666Y-128549380D01*
X59342714Y-128549380D01*
%TO.C,C1*%
X80656333Y-128494142D02*
X80608714Y-128541761D01*
X80465857Y-128589380D01*
X80370619Y-128589380D01*
X80227761Y-128541761D01*
X80132523Y-128446523D01*
X80084904Y-128351285D01*
X80037285Y-128160809D01*
X80037285Y-128017952D01*
X80084904Y-127827476D01*
X80132523Y-127732238D01*
X80227761Y-127637000D01*
X80370619Y-127589380D01*
X80465857Y-127589380D01*
X80608714Y-127637000D01*
X80656333Y-127684619D01*
X81608714Y-128589380D02*
X81037285Y-128589380D01*
X81323000Y-128589380D02*
X81323000Y-127589380D01*
X81227761Y-127732238D01*
X81132523Y-127827476D01*
X81037285Y-127875095D01*
%TO.C,U4*%
X69175380Y-67436904D02*
X69984904Y-67436904D01*
X70080142Y-67389285D01*
X70127761Y-67341666D01*
X70175380Y-67246428D01*
X70175380Y-67055952D01*
X70127761Y-66960714D01*
X70080142Y-66913095D01*
X69984904Y-66865476D01*
X69175380Y-66865476D01*
X69508714Y-65960714D02*
X70175380Y-65960714D01*
X69127761Y-66198809D02*
X69842047Y-66436904D01*
X69842047Y-65817857D01*
%TO.C,U3*%
X43503117Y-99586745D02*
X44474545Y-99586745D01*
X44588831Y-99529602D01*
X44645974Y-99472460D01*
X44703117Y-99358174D01*
X44703117Y-99129602D01*
X44645974Y-99015317D01*
X44588831Y-98958174D01*
X44474545Y-98901031D01*
X43503117Y-98901031D01*
X43503117Y-98443888D02*
X43503117Y-97701031D01*
X43960260Y-98101031D01*
X43960260Y-97929602D01*
X44017402Y-97815317D01*
X44074545Y-97758174D01*
X44188831Y-97701031D01*
X44474545Y-97701031D01*
X44588831Y-97758174D01*
X44645974Y-97815317D01*
X44703117Y-97929602D01*
X44703117Y-98272460D01*
X44645974Y-98386745D01*
X44588831Y-98443888D01*
%TO.C,U2*%
X53965095Y-109509380D02*
X53965095Y-110318904D01*
X54012714Y-110414142D01*
X54060333Y-110461761D01*
X54155571Y-110509380D01*
X54346047Y-110509380D01*
X54441285Y-110461761D01*
X54488904Y-110414142D01*
X54536523Y-110318904D01*
X54536523Y-109509380D01*
X54965095Y-109604619D02*
X55012714Y-109557000D01*
X55107952Y-109509380D01*
X55346047Y-109509380D01*
X55441285Y-109557000D01*
X55488904Y-109604619D01*
X55536523Y-109699857D01*
X55536523Y-109795095D01*
X55488904Y-109937952D01*
X54917476Y-110509380D01*
X55536523Y-110509380D01*
%TO.C,U1*%
X76261095Y-109499380D02*
X76261095Y-110308904D01*
X76308714Y-110404142D01*
X76356333Y-110451761D01*
X76451571Y-110499380D01*
X76642047Y-110499380D01*
X76737285Y-110451761D01*
X76784904Y-110404142D01*
X76832523Y-110308904D01*
X76832523Y-109499380D01*
X77832523Y-110499380D02*
X77261095Y-110499380D01*
X77546809Y-110499380D02*
X77546809Y-109499380D01*
X77451571Y-109642238D01*
X77356333Y-109737476D01*
X77261095Y-109785095D01*
%TO.C,RN4*%
X88323380Y-67205476D02*
X87847190Y-67538809D01*
X88323380Y-67776904D02*
X87323380Y-67776904D01*
X87323380Y-67395952D01*
X87371000Y-67300714D01*
X87418619Y-67253095D01*
X87513857Y-67205476D01*
X87656714Y-67205476D01*
X87751952Y-67253095D01*
X87799571Y-67300714D01*
X87847190Y-67395952D01*
X87847190Y-67776904D01*
X88323380Y-66776904D02*
X87323380Y-66776904D01*
X88323380Y-66205476D01*
X87323380Y-66205476D01*
X87656714Y-65300714D02*
X88323380Y-65300714D01*
X87275761Y-65538809D02*
X87990047Y-65776904D01*
X87990047Y-65157857D01*
%TO.C,RN3*%
X48567380Y-66881476D02*
X48091190Y-67214809D01*
X48567380Y-67452904D02*
X47567380Y-67452904D01*
X47567380Y-67071952D01*
X47615000Y-66976714D01*
X47662619Y-66929095D01*
X47757857Y-66881476D01*
X47900714Y-66881476D01*
X47995952Y-66929095D01*
X48043571Y-66976714D01*
X48091190Y-67071952D01*
X48091190Y-67452904D01*
X48567380Y-66452904D02*
X47567380Y-66452904D01*
X48567380Y-65881476D01*
X47567380Y-65881476D01*
X47567380Y-65500523D02*
X47567380Y-64881476D01*
X47948333Y-65214809D01*
X47948333Y-65071952D01*
X47995952Y-64976714D01*
X48043571Y-64929095D01*
X48138809Y-64881476D01*
X48376904Y-64881476D01*
X48472142Y-64929095D01*
X48519761Y-64976714D01*
X48567380Y-65071952D01*
X48567380Y-65357666D01*
X48519761Y-65452904D01*
X48472142Y-65500523D01*
%TO.C,RN2*%
X81624523Y-59039380D02*
X81291190Y-58563190D01*
X81053095Y-59039380D02*
X81053095Y-58039380D01*
X81434047Y-58039380D01*
X81529285Y-58087000D01*
X81576904Y-58134619D01*
X81624523Y-58229857D01*
X81624523Y-58372714D01*
X81576904Y-58467952D01*
X81529285Y-58515571D01*
X81434047Y-58563190D01*
X81053095Y-58563190D01*
X82053095Y-59039380D02*
X82053095Y-58039380D01*
X82624523Y-59039380D01*
X82624523Y-58039380D01*
X83053095Y-58134619D02*
X83100714Y-58087000D01*
X83195952Y-58039380D01*
X83434047Y-58039380D01*
X83529285Y-58087000D01*
X83576904Y-58134619D01*
X83624523Y-58229857D01*
X83624523Y-58325095D01*
X83576904Y-58467952D01*
X83005476Y-59039380D01*
X83624523Y-59039380D01*
%TO.C,RN1*%
X81644523Y-75223380D02*
X81311190Y-74747190D01*
X81073095Y-75223380D02*
X81073095Y-74223380D01*
X81454047Y-74223380D01*
X81549285Y-74271000D01*
X81596904Y-74318619D01*
X81644523Y-74413857D01*
X81644523Y-74556714D01*
X81596904Y-74651952D01*
X81549285Y-74699571D01*
X81454047Y-74747190D01*
X81073095Y-74747190D01*
X82073095Y-75223380D02*
X82073095Y-74223380D01*
X82644523Y-75223380D01*
X82644523Y-74223380D01*
X83644523Y-75223380D02*
X83073095Y-75223380D01*
X83358809Y-75223380D02*
X83358809Y-74223380D01*
X83263571Y-74366238D01*
X83168333Y-74461476D01*
X83073095Y-74509095D01*
%TO.C,R7*%
X51295380Y-66841666D02*
X50819190Y-67175000D01*
X51295380Y-67413095D02*
X50295380Y-67413095D01*
X50295380Y-67032142D01*
X50343000Y-66936904D01*
X50390619Y-66889285D01*
X50485857Y-66841666D01*
X50628714Y-66841666D01*
X50723952Y-66889285D01*
X50771571Y-66936904D01*
X50819190Y-67032142D01*
X50819190Y-67413095D01*
X50295380Y-66508333D02*
X50295380Y-65841666D01*
X51295380Y-66270238D01*
%TO.C,R6*%
X77176333Y-47739380D02*
X76843000Y-47263190D01*
X76604904Y-47739380D02*
X76604904Y-46739380D01*
X76985857Y-46739380D01*
X77081095Y-46787000D01*
X77128714Y-46834619D01*
X77176333Y-46929857D01*
X77176333Y-47072714D01*
X77128714Y-47167952D01*
X77081095Y-47215571D01*
X76985857Y-47263190D01*
X76604904Y-47263190D01*
X78033476Y-46739380D02*
X77843000Y-46739380D01*
X77747761Y-46787000D01*
X77700142Y-46834619D01*
X77604904Y-46977476D01*
X77557285Y-47167952D01*
X77557285Y-47548904D01*
X77604904Y-47644142D01*
X77652523Y-47691761D01*
X77747761Y-47739380D01*
X77938238Y-47739380D01*
X78033476Y-47691761D01*
X78081095Y-47644142D01*
X78128714Y-47548904D01*
X78128714Y-47310809D01*
X78081095Y-47215571D01*
X78033476Y-47167952D01*
X77938238Y-47120333D01*
X77747761Y-47120333D01*
X77652523Y-47167952D01*
X77604904Y-47215571D01*
X77557285Y-47310809D01*
%TO.C,R5*%
X52538333Y-52479380D02*
X52205000Y-52003190D01*
X51966904Y-52479380D02*
X51966904Y-51479380D01*
X52347857Y-51479380D01*
X52443095Y-51527000D01*
X52490714Y-51574619D01*
X52538333Y-51669857D01*
X52538333Y-51812714D01*
X52490714Y-51907952D01*
X52443095Y-51955571D01*
X52347857Y-52003190D01*
X51966904Y-52003190D01*
X53443095Y-51479380D02*
X52966904Y-51479380D01*
X52919285Y-51955571D01*
X52966904Y-51907952D01*
X53062142Y-51860333D01*
X53300238Y-51860333D01*
X53395476Y-51907952D01*
X53443095Y-51955571D01*
X53490714Y-52050809D01*
X53490714Y-52288904D01*
X53443095Y-52384142D01*
X53395476Y-52431761D01*
X53300238Y-52479380D01*
X53062142Y-52479380D01*
X52966904Y-52431761D01*
X52919285Y-52384142D01*
%TO.C,R4*%
X50250333Y-104779380D02*
X49917000Y-104303190D01*
X49678904Y-104779380D02*
X49678904Y-103779380D01*
X50059857Y-103779380D01*
X50155095Y-103827000D01*
X50202714Y-103874619D01*
X50250333Y-103969857D01*
X50250333Y-104112714D01*
X50202714Y-104207952D01*
X50155095Y-104255571D01*
X50059857Y-104303190D01*
X49678904Y-104303190D01*
X51107476Y-104112714D02*
X51107476Y-104779380D01*
X50869380Y-103731761D02*
X50631285Y-104446047D01*
X51250333Y-104446047D01*
%TO.C,R3*%
X72646333Y-109719380D02*
X72313000Y-109243190D01*
X72074904Y-109719380D02*
X72074904Y-108719380D01*
X72455857Y-108719380D01*
X72551095Y-108767000D01*
X72598714Y-108814619D01*
X72646333Y-108909857D01*
X72646333Y-109052714D01*
X72598714Y-109147952D01*
X72551095Y-109195571D01*
X72455857Y-109243190D01*
X72074904Y-109243190D01*
X72979666Y-108719380D02*
X73598714Y-108719380D01*
X73265380Y-109100333D01*
X73408238Y-109100333D01*
X73503476Y-109147952D01*
X73551095Y-109195571D01*
X73598714Y-109290809D01*
X73598714Y-109528904D01*
X73551095Y-109624142D01*
X73503476Y-109671761D01*
X73408238Y-109719380D01*
X73122523Y-109719380D01*
X73027285Y-109671761D01*
X72979666Y-109624142D01*
%TO.C,R2*%
X50220333Y-123689380D02*
X49887000Y-123213190D01*
X49648904Y-123689380D02*
X49648904Y-122689380D01*
X50029857Y-122689380D01*
X50125095Y-122737000D01*
X50172714Y-122784619D01*
X50220333Y-122879857D01*
X50220333Y-123022714D01*
X50172714Y-123117952D01*
X50125095Y-123165571D01*
X50029857Y-123213190D01*
X49648904Y-123213190D01*
X50601285Y-122784619D02*
X50648904Y-122737000D01*
X50744142Y-122689380D01*
X50982238Y-122689380D01*
X51077476Y-122737000D01*
X51125095Y-122784619D01*
X51172714Y-122879857D01*
X51172714Y-122975095D01*
X51125095Y-123117952D01*
X50553666Y-123689380D01*
X51172714Y-123689380D01*
%TO.C,R1*%
X72596333Y-128439380D02*
X72263000Y-127963190D01*
X72024904Y-128439380D02*
X72024904Y-127439380D01*
X72405857Y-127439380D01*
X72501095Y-127487000D01*
X72548714Y-127534619D01*
X72596333Y-127629857D01*
X72596333Y-127772714D01*
X72548714Y-127867952D01*
X72501095Y-127915571D01*
X72405857Y-127963190D01*
X72024904Y-127963190D01*
X73548714Y-128439380D02*
X72977285Y-128439380D01*
X73263000Y-128439380D02*
X73263000Y-127439380D01*
X73167761Y-127582238D01*
X73072523Y-127677476D01*
X72977285Y-127725095D01*
%TO.C,J12*%
X112949380Y-49382523D02*
X113663666Y-49382523D01*
X113806523Y-49430142D01*
X113901761Y-49525380D01*
X113949380Y-49668238D01*
X113949380Y-49763476D01*
X113949380Y-48382523D02*
X113949380Y-48953952D01*
X113949380Y-48668238D02*
X112949380Y-48668238D01*
X113092238Y-48763476D01*
X113187476Y-48858714D01*
X113235095Y-48953952D01*
X113044619Y-48001571D02*
X112997000Y-47953952D01*
X112949380Y-47858714D01*
X112949380Y-47620619D01*
X112997000Y-47525380D01*
X113044619Y-47477761D01*
X113139857Y-47430142D01*
X113235095Y-47430142D01*
X113377952Y-47477761D01*
X113949380Y-48049190D01*
X113949380Y-47430142D01*
%TO.C,J11*%
X112959380Y-70092523D02*
X113673666Y-70092523D01*
X113816523Y-70140142D01*
X113911761Y-70235380D01*
X113959380Y-70378238D01*
X113959380Y-70473476D01*
X113959380Y-69092523D02*
X113959380Y-69663952D01*
X113959380Y-69378238D02*
X112959380Y-69378238D01*
X113102238Y-69473476D01*
X113197476Y-69568714D01*
X113245095Y-69663952D01*
X113959380Y-68140142D02*
X113959380Y-68711571D01*
X113959380Y-68425857D02*
X112959380Y-68425857D01*
X113102238Y-68521095D01*
X113197476Y-68616333D01*
X113245095Y-68711571D01*
%TO.C,J10*%
X112959380Y-90802523D02*
X113673666Y-90802523D01*
X113816523Y-90850142D01*
X113911761Y-90945380D01*
X113959380Y-91088238D01*
X113959380Y-91183476D01*
X113959380Y-89802523D02*
X113959380Y-90373952D01*
X113959380Y-90088238D02*
X112959380Y-90088238D01*
X113102238Y-90183476D01*
X113197476Y-90278714D01*
X113245095Y-90373952D01*
X112959380Y-89183476D02*
X112959380Y-89088238D01*
X113007000Y-88993000D01*
X113054619Y-88945380D01*
X113149857Y-88897761D01*
X113340333Y-88850142D01*
X113578428Y-88850142D01*
X113768904Y-88897761D01*
X113864142Y-88945380D01*
X113911761Y-88993000D01*
X113959380Y-89088238D01*
X113959380Y-89183476D01*
X113911761Y-89278714D01*
X113864142Y-89326333D01*
X113768904Y-89373952D01*
X113578428Y-89421571D01*
X113340333Y-89421571D01*
X113149857Y-89373952D01*
X113054619Y-89326333D01*
X113007000Y-89278714D01*
X112959380Y-89183476D01*
%TO.C,J9*%
X112979380Y-110996333D02*
X113693666Y-110996333D01*
X113836523Y-111043952D01*
X113931761Y-111139190D01*
X113979380Y-111282047D01*
X113979380Y-111377285D01*
X113979380Y-110472523D02*
X113979380Y-110282047D01*
X113931761Y-110186809D01*
X113884142Y-110139190D01*
X113741285Y-110043952D01*
X113550809Y-109996333D01*
X113169857Y-109996333D01*
X113074619Y-110043952D01*
X113027000Y-110091571D01*
X112979380Y-110186809D01*
X112979380Y-110377285D01*
X113027000Y-110472523D01*
X113074619Y-110520142D01*
X113169857Y-110567761D01*
X113407952Y-110567761D01*
X113503190Y-110520142D01*
X113550809Y-110472523D01*
X113598428Y-110377285D01*
X113598428Y-110186809D01*
X113550809Y-110091571D01*
X113503190Y-110043952D01*
X113407952Y-109996333D01*
%TO.C,J8*%
X112969380Y-131676333D02*
X113683666Y-131676333D01*
X113826523Y-131723952D01*
X113921761Y-131819190D01*
X113969380Y-131962047D01*
X113969380Y-132057285D01*
X113397952Y-131057285D02*
X113350333Y-131152523D01*
X113302714Y-131200142D01*
X113207476Y-131247761D01*
X113159857Y-131247761D01*
X113064619Y-131200142D01*
X113017000Y-131152523D01*
X112969380Y-131057285D01*
X112969380Y-130866809D01*
X113017000Y-130771571D01*
X113064619Y-130723952D01*
X113159857Y-130676333D01*
X113207476Y-130676333D01*
X113302714Y-130723952D01*
X113350333Y-130771571D01*
X113397952Y-130866809D01*
X113397952Y-131057285D01*
X113445571Y-131152523D01*
X113493190Y-131200142D01*
X113588428Y-131247761D01*
X113778904Y-131247761D01*
X113874142Y-131200142D01*
X113921761Y-131152523D01*
X113969380Y-131057285D01*
X113969380Y-130866809D01*
X113921761Y-130771571D01*
X113874142Y-130723952D01*
X113778904Y-130676333D01*
X113588428Y-130676333D01*
X113493190Y-130723952D01*
X113445571Y-130771571D01*
X113397952Y-130866809D01*
%TO.C,J7*%
X16197380Y-131680333D02*
X16911666Y-131680333D01*
X17054523Y-131727952D01*
X17149761Y-131823190D01*
X17197380Y-131966047D01*
X17197380Y-132061285D01*
X16197380Y-131299380D02*
X16197380Y-130632714D01*
X17197380Y-131061285D01*
%TO.C,J6*%
X16217380Y-111000333D02*
X16931666Y-111000333D01*
X17074523Y-111047952D01*
X17169761Y-111143190D01*
X17217380Y-111286047D01*
X17217380Y-111381285D01*
X16217380Y-110095571D02*
X16217380Y-110286047D01*
X16265000Y-110381285D01*
X16312619Y-110428904D01*
X16455476Y-110524142D01*
X16645952Y-110571761D01*
X17026904Y-110571761D01*
X17122142Y-110524142D01*
X17169761Y-110476523D01*
X17217380Y-110381285D01*
X17217380Y-110190809D01*
X17169761Y-110095571D01*
X17122142Y-110047952D01*
X17026904Y-110000333D01*
X16788809Y-110000333D01*
X16693571Y-110047952D01*
X16645952Y-110095571D01*
X16598333Y-110190809D01*
X16598333Y-110381285D01*
X16645952Y-110476523D01*
X16693571Y-110524142D01*
X16788809Y-110571761D01*
%TO.C,J5*%
X16227380Y-90330333D02*
X16941666Y-90330333D01*
X17084523Y-90377952D01*
X17179761Y-90473190D01*
X17227380Y-90616047D01*
X17227380Y-90711285D01*
X16227380Y-89377952D02*
X16227380Y-89854142D01*
X16703571Y-89901761D01*
X16655952Y-89854142D01*
X16608333Y-89758904D01*
X16608333Y-89520809D01*
X16655952Y-89425571D01*
X16703571Y-89377952D01*
X16798809Y-89330333D01*
X17036904Y-89330333D01*
X17132142Y-89377952D01*
X17179761Y-89425571D01*
X17227380Y-89520809D01*
X17227380Y-89758904D01*
X17179761Y-89854142D01*
X17132142Y-89901761D01*
%TO.C,J4*%
X16237380Y-69640333D02*
X16951666Y-69640333D01*
X17094523Y-69687952D01*
X17189761Y-69783190D01*
X17237380Y-69926047D01*
X17237380Y-70021285D01*
X16570714Y-68735571D02*
X17237380Y-68735571D01*
X16189761Y-68973666D02*
X16904047Y-69211761D01*
X16904047Y-68592714D01*
%TO.C,J3*%
X16227380Y-48950333D02*
X16941666Y-48950333D01*
X17084523Y-48997952D01*
X17179761Y-49093190D01*
X17227380Y-49236047D01*
X17227380Y-49331285D01*
X16227380Y-48569380D02*
X16227380Y-47950333D01*
X16608333Y-48283666D01*
X16608333Y-48140809D01*
X16655952Y-48045571D01*
X16703571Y-47997952D01*
X16798809Y-47950333D01*
X17036904Y-47950333D01*
X17132142Y-47997952D01*
X17179761Y-48045571D01*
X17227380Y-48140809D01*
X17227380Y-48426523D01*
X17179761Y-48521761D01*
X17132142Y-48569380D01*
%TO.C,J2*%
X56431380Y-101806333D02*
X57145666Y-101806333D01*
X57288523Y-101853952D01*
X57383761Y-101949190D01*
X57431380Y-102092047D01*
X57431380Y-102187285D01*
X56526619Y-101377761D02*
X56479000Y-101330142D01*
X56431380Y-101234904D01*
X56431380Y-100996809D01*
X56479000Y-100901571D01*
X56526619Y-100853952D01*
X56621857Y-100806333D01*
X56717095Y-100806333D01*
X56859952Y-100853952D01*
X57431380Y-101425380D01*
X57431380Y-100806333D01*
%TO.C,J1*%
X37385666Y-25995380D02*
X37385666Y-26709666D01*
X37338047Y-26852523D01*
X37242809Y-26947761D01*
X37099952Y-26995380D01*
X37004714Y-26995380D01*
X38385666Y-26995380D02*
X37814238Y-26995380D01*
X38099952Y-26995380D02*
X38099952Y-25995380D01*
X38004714Y-26138238D01*
X37909476Y-26233476D01*
X37814238Y-26281095D01*
%TO.C,D2*%
X67460904Y-53069380D02*
X67460904Y-52069380D01*
X67699000Y-52069380D01*
X67841857Y-52117000D01*
X67937095Y-52212238D01*
X67984714Y-52307476D01*
X68032333Y-52497952D01*
X68032333Y-52640809D01*
X67984714Y-52831285D01*
X67937095Y-52926523D01*
X67841857Y-53021761D01*
X67699000Y-53069380D01*
X67460904Y-53069380D01*
X68413285Y-52164619D02*
X68460904Y-52117000D01*
X68556142Y-52069380D01*
X68794238Y-52069380D01*
X68889476Y-52117000D01*
X68937095Y-52164619D01*
X68984714Y-52259857D01*
X68984714Y-52355095D01*
X68937095Y-52497952D01*
X68365666Y-53069380D01*
X68984714Y-53069380D01*
%TO.C,D1*%
X61110904Y-53157380D02*
X61110904Y-52157380D01*
X61349000Y-52157380D01*
X61491857Y-52205000D01*
X61587095Y-52300238D01*
X61634714Y-52395476D01*
X61682333Y-52585952D01*
X61682333Y-52728809D01*
X61634714Y-52919285D01*
X61587095Y-53014523D01*
X61491857Y-53109761D01*
X61349000Y-53157380D01*
X61110904Y-53157380D01*
X62634714Y-53157380D02*
X62063285Y-53157380D01*
X62349000Y-53157380D02*
X62349000Y-52157380D01*
X62253761Y-52300238D01*
X62158523Y-52395476D01*
X62063285Y-52443095D01*
%TD*%
M02*
