M48
;DRILL file {KiCad 4.0.0-stable} date 12/21/2015 3:24:25 PM
;FORMAT={-:-/ absolute / inch / decimal}
FMAT,2
INCH,TZ
T1C0.016
T2C0.030
T3C0.031
T4C0.039
T5C0.040
T6C0.047
T7C0.050
T8C0.059
T9C0.125
T10C0.181
%
G90
G05
M72
T1
X4.1339Y-3.874
X4.3543Y-3.7008
X4.375Y-3.5994
X4.4016Y-3.6437
X4.525Y-4.35
X4.8152Y-3.1911
X4.925Y-4.25
X5.0256Y-4.3244
X5.0571Y-4.35
X5.1098Y-4.2598
X5.1362Y-3.825
X5.1529Y-4.2529
X5.213Y-3.825
X5.275Y-4.175
X5.311Y-3.9173
X5.3375Y-4.2025
X5.3375Y-4.36
X5.375Y-4.25
X5.4724Y-4.7795
T2
X4.6301Y-4.2219
X4.6341Y-4.4069
X4.8348Y-3.8872
T3
X3.925Y-3.1281
X3.925Y-3.325
X3.925Y-3.8281
X3.925Y-4.025
X4.075Y-3.225
X4.075Y-3.325
X4.075Y-3.425
X4.075Y-3.525
X4.075Y-3.925
X4.075Y-4.025
X4.075Y-4.125
X4.075Y-4.225
X4.375Y-3.225
X4.375Y-3.325
X4.375Y-3.425
X4.375Y-3.525
X4.375Y-3.925
X4.375Y-4.025
X4.375Y-4.125
X4.375Y-4.225
X4.5238Y-3.2179
X4.5238Y-3.3203
X4.5238Y-3.925
X4.5238Y-4.025
X4.525Y-3.4225
X4.525Y-3.525
X4.525Y-4.125
X4.525Y-4.225
X4.7207Y-3.2179
X4.7207Y-3.3203
X4.7207Y-3.925
X4.7207Y-4.025
X4.7219Y-3.4225
X4.7219Y-3.525
X4.7219Y-4.125
X4.7219Y-4.225
T4
X3.8Y-4.45
X3.8Y-4.85
X3.95Y-4.6
X3.95Y-4.7
X3.95Y-4.8
X4.025Y-3.025
X4.025Y-3.725
X4.15Y-4.45
X4.15Y-4.85
X4.3Y-4.6
X4.3Y-4.7
X4.3Y-4.8
X4.425Y-3.025
X4.425Y-3.725
X4.5Y-4.45
X4.5Y-4.85
X4.65Y-4.6
X4.65Y-4.7
X4.65Y-4.8
X4.8152Y-3.1911
X4.8152Y-3.5911
X4.8152Y-3.6904
X4.8152Y-4.0904
X4.85Y-4.45
X4.85Y-4.85
X5.Y-4.6
X5.Y-4.7
X5.Y-4.8
X5.1Y-5.05
X5.225Y-4.45
X5.225Y-4.85
X5.375Y-4.6
X5.375Y-4.7
X5.375Y-4.8
X5.5Y-5.05
X5.575Y-4.3
X5.6Y-4.45
X5.6Y-4.85
X5.625Y-5.05
X5.725Y-5.05
X5.75Y-4.6
X5.75Y-4.7
X5.75Y-4.8
T5
X3.425Y-4.65
X3.425Y-4.75
X3.425Y-4.85
X3.625Y-4.65
X3.625Y-4.75
X3.625Y-4.85
X4.9171Y-3.0435
X4.9171Y-3.1435
X4.9171Y-3.2435
X4.9171Y-3.3435
X4.9171Y-3.4435
X4.9171Y-3.5435
X4.9171Y-3.6435
X4.9171Y-3.7435
X4.9171Y-3.8435
X4.9171Y-3.9435
X4.9171Y-4.0435
X4.9171Y-4.1435
X5.6171Y-3.0435
X5.6171Y-3.1435
X5.6171Y-3.2435
X5.6171Y-3.3435
X5.6171Y-3.4435
X5.6171Y-3.5435
X5.6171Y-3.6435
X5.6171Y-3.7435
X5.6171Y-3.8435
X5.6171Y-3.9435
X5.6171Y-4.0435
X5.6171Y-4.1435
X5.975Y-3.05
X5.975Y-3.15
X5.975Y-3.3
X5.975Y-3.4435
X5.975Y-3.5435
X5.975Y-3.6435
X5.975Y-3.7435
X5.975Y-3.8435
X5.975Y-3.9435
X5.975Y-4.0435
X5.975Y-4.1435
X5.975Y-4.45
X5.975Y-4.625
X5.975Y-4.8
T7
X5.975Y-4.3
T8
X4.0122Y-5.0458
X4.1622Y-5.0458
X4.3122Y-5.0458
X4.6324Y-5.0471
X4.7824Y-5.0471
X4.9324Y-5.0471
T9
X3.5Y-5.05
X3.85Y-2.95
X5.8Y-2.95
X5.925Y-5.05
T6
X3.5785Y-3.2297G85X3.5785Y-3.2297
G05
X3.5785Y-4.0347G85X3.5785Y-4.0347
G05
X3.7064Y-3.3872G85X3.7064Y-3.3872
G05
X3.7064Y-4.1922G85X3.7064Y-4.1922
G05
X3.7557Y-3.0722G85X3.7557Y-3.0722
G05
X3.7557Y-3.8773G85X3.7557Y-3.8773
G05
T10
X3.5982Y-2.9443G85X3.5982Y-2.9443
G05
X3.5982Y-3.5152G85X3.5982Y-3.5152
G05
X3.5982Y-3.7493G85X3.5982Y-3.7493
G05
X3.5982Y-4.3202G85X3.5982Y-4.3202
G05
T0
M30
