G04 #@! TF.FileFunction,Copper,L1,Top,Mixed*
%FSLAX46Y46*%
G04 Gerber Fmt 4.6, Leading zero omitted, Abs format (unit mm)*
G04 Created by KiCad (PCBNEW 4.0.0-stable) date 12/21/2015 3:24:30 PM*
%MOMM*%
G01*
G04 APERTURE LIST*
%ADD10C,0.100000*%
%ADD11C,4.064000*%
%ADD12R,2.235200X2.235200*%
%ADD13R,2.032000X1.727200*%
%ADD14O,2.032000X1.727200*%
%ADD15R,1.300000X1.300000*%
%ADD16C,1.300000*%
%ADD17C,1.998980*%
%ADD18R,1.998980X1.998980*%
%ADD19R,2.032000X2.032000*%
%ADD20O,2.032000X2.032000*%
%ADD21O,2.300000X1.600000*%
%ADD22O,2.500000X1.600000*%
%ADD23O,5.000000X5.000000*%
%ADD24O,3.500120X1.699260*%
%ADD25R,2.000000X2.000000*%
%ADD26C,2.000000*%
%ADD27C,0.600000*%
%ADD28C,1.270000*%
%ADD29C,0.300000*%
%ADD30C,0.762000*%
%ADD31C,1.000000*%
%ADD32C,1.500000*%
%ADD33C,0.500000*%
%ADD34C,0.250000*%
G04 APERTURE END LIST*
D10*
D11*
X150495000Y-128270000D03*
X88900000Y-128270000D03*
D12*
X101911143Y-128163701D03*
D11*
X97790000Y-74930000D03*
D13*
X124894362Y-77305728D03*
D14*
X124894362Y-79845728D03*
X124894362Y-82385728D03*
X124894362Y-84925728D03*
X124894362Y-87465728D03*
X124894362Y-90005728D03*
X124894362Y-92545728D03*
X124894362Y-95085728D03*
X124894362Y-97625728D03*
X124894362Y-100165728D03*
X124894362Y-102705728D03*
X124894362Y-105245728D03*
D13*
X142674362Y-77305728D03*
D14*
X142674362Y-92545728D03*
X142674362Y-95085728D03*
X142674362Y-90005728D03*
X142674362Y-97625728D03*
X142674362Y-84925728D03*
X142674362Y-82385728D03*
X142674362Y-79845728D03*
X142674362Y-87465728D03*
X142674362Y-102705728D03*
X142674362Y-100165728D03*
X142674362Y-105245728D03*
D15*
X114935000Y-89535000D03*
D16*
X119935000Y-89535000D03*
D15*
X114935000Y-107315000D03*
D16*
X119935000Y-107315000D03*
D15*
X114905000Y-81735000D03*
D16*
X119905000Y-81735000D03*
D15*
X114905000Y-99695000D03*
D16*
X119905000Y-99695000D03*
D15*
X114935000Y-86931500D03*
D16*
X119935000Y-86931500D03*
D15*
X114935000Y-104775000D03*
D16*
X119935000Y-104775000D03*
D15*
X99695000Y-84455000D03*
D16*
X99695000Y-79455000D03*
D15*
X99695000Y-102235000D03*
D16*
X99695000Y-97235000D03*
D17*
X151765000Y-109220000D03*
D18*
X141605000Y-109220000D03*
D12*
X117663459Y-128195719D03*
X121473459Y-128195719D03*
X105721143Y-128163701D03*
X125283459Y-128195719D03*
X109531143Y-128163701D03*
D13*
X86995000Y-123190000D03*
D14*
X86995000Y-120650000D03*
X86995000Y-118110000D03*
D13*
X92075000Y-123190000D03*
D14*
X92075000Y-120650000D03*
X92075000Y-118110000D03*
D12*
X151765000Y-121920000D03*
X151765000Y-113030000D03*
X151765000Y-117475000D03*
X151765000Y-83820000D03*
D13*
X151765000Y-105245728D03*
D14*
X151765000Y-102705728D03*
X151765000Y-100165728D03*
X151765000Y-97625728D03*
X151765000Y-95085728D03*
X151765000Y-92545728D03*
X151765000Y-90005728D03*
X151765000Y-87465728D03*
D17*
X122305000Y-91215000D03*
X122305000Y-81055000D03*
X122305000Y-93735000D03*
X122305000Y-103895000D03*
X112395000Y-76835000D03*
X102235000Y-76835000D03*
X112395000Y-94615000D03*
X102235000Y-94615000D03*
X129540000Y-128270000D03*
X139700000Y-128270000D03*
X123190000Y-123190000D03*
X123190000Y-113030000D03*
X96520000Y-123190000D03*
X96520000Y-113030000D03*
X132715000Y-123190000D03*
X132715000Y-113030000D03*
X105410000Y-123190000D03*
X105410000Y-113030000D03*
X142240000Y-123190000D03*
X142240000Y-113030000D03*
X114300000Y-123190000D03*
X114300000Y-113030000D03*
D19*
X151765000Y-77470000D03*
D20*
X151765000Y-80010000D03*
D21*
X103505000Y-81915000D03*
X103505000Y-84455000D03*
X103505000Y-86995000D03*
X103505000Y-89535000D03*
X111125000Y-89535000D03*
X111125000Y-86995000D03*
X111125000Y-84455000D03*
X111125000Y-81915000D03*
X103505000Y-99695000D03*
X103505000Y-102235000D03*
X103505000Y-104775000D03*
X103505000Y-107315000D03*
X111125000Y-107315000D03*
X111125000Y-104775000D03*
X111125000Y-102235000D03*
X111125000Y-99695000D03*
D22*
X94143607Y-86035000D03*
X95393607Y-78035000D03*
D23*
X91393607Y-74785000D03*
X91393607Y-89285000D03*
D22*
X90893607Y-82035000D03*
X94143607Y-106482355D03*
X95393607Y-98482355D03*
D23*
X91393607Y-95232355D03*
X91393607Y-109732355D03*
D22*
X90893607Y-102482355D03*
D24*
X100330000Y-119380000D03*
X100330000Y-116840000D03*
X100330000Y-121920000D03*
X109220000Y-119380000D03*
X109220000Y-116840000D03*
X109220000Y-121920000D03*
X118110000Y-119380000D03*
X118110000Y-116840000D03*
X118110000Y-121920000D03*
X127000000Y-119380000D03*
X127000000Y-116840000D03*
X127000000Y-121920000D03*
X136525000Y-119380000D03*
X136525000Y-116840000D03*
X136525000Y-121920000D03*
X146050000Y-119380000D03*
X146050000Y-116840000D03*
X146050000Y-121920000D03*
D11*
X147320000Y-74930000D03*
D15*
X114905000Y-84335000D03*
D16*
X119905000Y-84335000D03*
D15*
X114905000Y-102235000D03*
D16*
X119905000Y-102235000D03*
D25*
X142875000Y-128270000D03*
D26*
X145415000Y-128270000D03*
D27*
X135572500Y-110744000D03*
X135572500Y-106743500D03*
D28*
X122805000Y-98735000D03*
X117605000Y-107235000D03*
X117705000Y-111935000D03*
D27*
X122305000Y-81055000D03*
X111800000Y-92549990D03*
X110600000Y-94000000D03*
X105000000Y-98400000D03*
X132410010Y-97155000D03*
X130884253Y-108024253D03*
X128450013Y-110490000D03*
X114935000Y-110490000D03*
X133985000Y-106045000D03*
X129789627Y-108199627D03*
X127650020Y-109839978D03*
X136525000Y-107950000D03*
X125095006Y-107950000D03*
X111125000Y-91424980D03*
X130460010Y-97155000D03*
X139000000Y-121400000D03*
X134900000Y-99500000D03*
D29*
X114935000Y-89535000D02*
X111125000Y-89535000D01*
X119935000Y-89535000D02*
X121615000Y-91215000D01*
X121615000Y-91215000D02*
X122305000Y-91215000D01*
X111125000Y-107315000D02*
X114935000Y-107315000D01*
X111125000Y-81915000D02*
X115015000Y-81915000D01*
X111125000Y-78105000D02*
X112395000Y-76835000D01*
X111125000Y-81915000D02*
X111125000Y-78105000D01*
X135572500Y-106743500D02*
X135572500Y-110744000D01*
D30*
X119905000Y-99695000D02*
X121845000Y-99695000D01*
X122170001Y-99369999D02*
X122805000Y-98735000D01*
X121845000Y-99695000D02*
X122170001Y-99369999D01*
X117705000Y-111935000D02*
X117705000Y-107335000D01*
X117705000Y-107335000D02*
X117605000Y-107235000D01*
D29*
X111125000Y-99695000D02*
X115015000Y-99695000D01*
X111125000Y-95885000D02*
X112395000Y-94615000D01*
X111125000Y-99695000D02*
X111125000Y-95885000D01*
X114935000Y-86995000D02*
X114935000Y-84365000D01*
X114935000Y-84365000D02*
X114905000Y-84335000D01*
X114935000Y-86995000D02*
X111125000Y-86995000D01*
D31*
X103855000Y-99695000D02*
X103505000Y-99695000D01*
X103855000Y-81915000D02*
X103505000Y-81915000D01*
X102235000Y-98425000D02*
X103505000Y-99695000D01*
X102235000Y-94615000D02*
X102235000Y-98425000D01*
X102235000Y-80645000D02*
X103505000Y-81915000D01*
X102235000Y-76835000D02*
X102235000Y-80645000D01*
X101045000Y-97235000D02*
X102235000Y-98425000D01*
X99695000Y-97235000D02*
X101045000Y-97235000D01*
X101045000Y-79455000D02*
X102235000Y-80645000D01*
X99695000Y-79455000D02*
X101045000Y-79455000D01*
X125046762Y-77305728D02*
X124894362Y-77305728D01*
X138430000Y-90688966D02*
X125046762Y-77305728D01*
X138430000Y-106045000D02*
X138430000Y-90688966D01*
X141605000Y-109220000D02*
X138430000Y-106045000D01*
D32*
X151765000Y-113030000D02*
X151765000Y-109220000D01*
D29*
X139700000Y-128270000D02*
X142875000Y-128270000D01*
X149225000Y-121920000D02*
X151765000Y-121920000D01*
X145415000Y-125730000D02*
X149225000Y-121920000D01*
X145415000Y-128270000D02*
X145415000Y-125730000D01*
X117663459Y-126176541D02*
X117663459Y-128195719D01*
X124460000Y-119380000D02*
X117663459Y-126176541D01*
X127000000Y-119380000D02*
X124460000Y-119380000D01*
X101911143Y-124148857D02*
X101911143Y-128163701D01*
X102870000Y-119869940D02*
X102870000Y-123190000D01*
X102380060Y-119380000D02*
X102870000Y-119869940D01*
X102870000Y-123190000D02*
X101911143Y-124148857D01*
X100330000Y-119380000D02*
X102380060Y-119380000D01*
X133350000Y-119380000D02*
X136525000Y-119380000D01*
X128905000Y-123825000D02*
X133350000Y-119380000D01*
X125844178Y-123825000D02*
X128905000Y-123825000D01*
X121473459Y-128195719D02*
X125844178Y-123825000D01*
X105721143Y-125418857D02*
X105721143Y-128163701D01*
X106934000Y-124206000D02*
X105721143Y-125418857D01*
X106934000Y-120396000D02*
X106934000Y-124206000D01*
X107950000Y-119380000D02*
X106934000Y-120396000D01*
X109220000Y-119380000D02*
X107950000Y-119380000D01*
X126701059Y-128195719D02*
X125283459Y-128195719D01*
X128531778Y-126365000D02*
X126701059Y-128195719D01*
X135890000Y-126365000D02*
X128531778Y-126365000D01*
X142875000Y-119380000D02*
X135890000Y-126365000D01*
X146050000Y-119380000D02*
X142875000Y-119380000D01*
X109531143Y-125418857D02*
X109531143Y-128163701D01*
X115570000Y-119380000D02*
X109531143Y-125418857D01*
X118110000Y-119380000D02*
X115570000Y-119380000D01*
X94143607Y-86035000D02*
X95693607Y-86035000D01*
X95693607Y-86035000D02*
X96028607Y-85700000D01*
X96028607Y-85700000D02*
X112200000Y-85700000D01*
X112200000Y-85700000D02*
X113500000Y-84400000D01*
X113500000Y-84400000D02*
X113500000Y-83400000D01*
X113500000Y-83400000D02*
X113900000Y-83000000D01*
X120360000Y-83000000D02*
X122305000Y-81055000D01*
X113900000Y-83000000D02*
X120360000Y-83000000D01*
X94143607Y-106482355D02*
X94143607Y-99858607D01*
X94615000Y-87606393D02*
X94143607Y-87135000D01*
X94143607Y-99858607D02*
X93345000Y-99060000D01*
X94615000Y-96520000D02*
X94615000Y-87606393D01*
X93345000Y-99060000D02*
X93345000Y-97790000D01*
X93345000Y-97790000D02*
X94615000Y-96520000D01*
X94143607Y-87135000D02*
X94143607Y-86035000D01*
X86995000Y-120650000D02*
X92075000Y-120650000D01*
X94615000Y-108053748D02*
X94143607Y-107582355D01*
X94615000Y-119426000D02*
X94615000Y-108053748D01*
X94143607Y-107582355D02*
X94143607Y-106482355D01*
X93391000Y-120650000D02*
X94615000Y-119426000D01*
X92075000Y-120650000D02*
X93391000Y-120650000D01*
X111800000Y-92549990D02*
X121119990Y-92549990D01*
X121119990Y-92549990D02*
X122305000Y-93735000D01*
X105000000Y-98400000D02*
X106200000Y-98400000D01*
X106200000Y-98400000D02*
X110600000Y-94000000D01*
X86995000Y-118110000D02*
X92075000Y-118110000D01*
X151765000Y-83820000D02*
X151765000Y-80010000D01*
D33*
X142674362Y-105245728D02*
X151765000Y-105245728D01*
X142674362Y-102705728D02*
X151765000Y-102705728D01*
X142674362Y-100165728D02*
X151765000Y-100165728D01*
X142674362Y-97625728D02*
X151765000Y-97625728D01*
X142674362Y-95085728D02*
X151765000Y-95085728D01*
X142674362Y-92545728D02*
X151765000Y-92545728D01*
X142674362Y-90005728D02*
X151765000Y-90005728D01*
X142674362Y-87465728D02*
X151765000Y-87465728D01*
D29*
X125096122Y-113030000D02*
X127000000Y-111126122D01*
X123190000Y-113030000D02*
X125096122Y-113030000D01*
X127000000Y-111126122D02*
X127000000Y-116840000D01*
X127000000Y-102565010D02*
X127000000Y-111126122D01*
X132410010Y-97155000D02*
X127000000Y-102565010D01*
X128450013Y-110458493D02*
X128450013Y-110490000D01*
X130884253Y-108024253D02*
X128450013Y-110458493D01*
X96520000Y-113030000D02*
X100330000Y-116840000D01*
X100330000Y-116840000D02*
X105410000Y-116840000D01*
X111760000Y-110490000D02*
X114935000Y-110490000D01*
X105410000Y-116840000D02*
X111760000Y-110490000D01*
X136525000Y-116840000D02*
X132715000Y-113030000D01*
X133985000Y-109855000D02*
X133985000Y-106045000D01*
X132715000Y-111125000D02*
X133985000Y-109855000D01*
X132715000Y-113030000D02*
X132715000Y-111125000D01*
X128149276Y-109839978D02*
X127650020Y-109839978D01*
X129789627Y-108199627D02*
X128149276Y-109839978D01*
X137160000Y-107950000D02*
X142240000Y-113030000D01*
X136525000Y-107950000D02*
X137160000Y-107950000D01*
X142240000Y-113030000D02*
X146050000Y-116840000D01*
X119134247Y-113910759D02*
X125095006Y-107950000D01*
X118110000Y-116840000D02*
X118110000Y-114935006D01*
X118110000Y-114935006D02*
X119134247Y-113910759D01*
X118745006Y-114300000D02*
X119134247Y-113910759D01*
X116840000Y-114300000D02*
X118745006Y-114300000D01*
X115570000Y-113030000D02*
X116840000Y-114300000D01*
X114300000Y-113030000D02*
X115570000Y-113030000D01*
X103505000Y-86995000D02*
X103855000Y-86995000D01*
X103855000Y-86995000D02*
X108284980Y-91424980D01*
X108284980Y-91424980D02*
X111125000Y-91424980D01*
X103505000Y-89535000D02*
X105410000Y-89535000D01*
X105410000Y-89535000D02*
X109075000Y-93200000D01*
X109075000Y-93200000D02*
X113520000Y-93200000D01*
X113520000Y-93200000D02*
X115855000Y-95535000D01*
X115855000Y-95535000D02*
X123129090Y-95535000D01*
X123129090Y-95535000D02*
X123578362Y-95085728D01*
X123578362Y-95085728D02*
X124894362Y-95085728D01*
X102870000Y-89535000D02*
X103505000Y-89535000D01*
X98425000Y-93980000D02*
X102870000Y-89535000D01*
X98425000Y-103685000D02*
X98425000Y-93980000D01*
X102055000Y-107315000D02*
X98425000Y-103685000D01*
X103505000Y-107315000D02*
X102055000Y-107315000D01*
X111125000Y-102235000D02*
X112575000Y-102235000D01*
X119914272Y-97625728D02*
X124894362Y-97625728D01*
X112575000Y-102235000D02*
X113905000Y-100905000D01*
X113905000Y-100905000D02*
X116635000Y-100905000D01*
X116635000Y-100905000D02*
X119914272Y-97625728D01*
X123578362Y-105245728D02*
X124894362Y-105245728D01*
X122779090Y-106045000D02*
X123578362Y-105245728D01*
X109855000Y-106045000D02*
X122779090Y-106045000D01*
X108585000Y-104775000D02*
X109855000Y-106045000D01*
X103505000Y-104775000D02*
X108585000Y-104775000D01*
D34*
X124930728Y-92545728D02*
X124894362Y-92545728D01*
D29*
X129540000Y-97155000D02*
X124930728Y-92545728D01*
X130460010Y-97155000D02*
X129540000Y-97155000D01*
X114935000Y-104775000D02*
X114935000Y-102165000D01*
X114935000Y-102165000D02*
X114905000Y-102135000D01*
X114935000Y-104775000D02*
X111125000Y-104775000D01*
X134900000Y-99500000D02*
X134900000Y-111900000D01*
X134900000Y-111900000D02*
X139000000Y-116000000D01*
X139000000Y-116000000D02*
X139000000Y-121400000D01*
M02*
