M48
;DRILL file {KiCad (2015-09-17 BZR 6202)-product} date Wednesday, September 23, 2015 'AMt' 01:59:34 AM
;FORMAT={-:-/ absolute / inch / decimal}
FMAT,2
INCH,TZ
T1C0.016
T2C0.030
T3C0.031
T4C0.039
T5C0.040
T6C0.050
T7C0.059
T8C0.118
T9C0.125
%
G90
G05
M72
T1
X4.125Y-3.875
X4.375Y-3.5994
X4.525Y-4.35
X4.775Y-3.8691
X4.925Y-4.25
X5.0256Y-4.3244
X5.0571Y-4.35
X5.1098Y-4.2598
X5.1362Y-3.825
X5.1529Y-4.2529
X5.213Y-3.825
X5.275Y-4.175
X5.335Y-3.905
X5.335Y-4.005
X5.375Y-4.25
T3
X3.925Y-3.1281
X3.925Y-3.325
X3.925Y-3.8281
X3.925Y-4.025
X4.075Y-3.225
X4.075Y-3.325
X4.075Y-3.425
X4.075Y-3.525
X4.075Y-3.925
X4.075Y-4.025
X4.075Y-4.125
X4.075Y-4.225
X4.375Y-3.225
X4.375Y-3.325
X4.375Y-3.425
X4.375Y-3.525
X4.375Y-3.925
X4.375Y-4.025
X4.375Y-4.125
X4.375Y-4.225
X4.525Y-3.425
X4.525Y-3.525
X4.525Y-4.125
X4.525Y-4.225
X4.5281Y-3.225
X4.5281Y-3.925
X4.7219Y-3.425
X4.7219Y-3.525
X4.7219Y-4.125
X4.7219Y-4.225
X4.725Y-3.225
X4.725Y-3.925
T4
X3.8Y-4.45
X3.8Y-4.85
X3.95Y-4.6
X3.95Y-4.7
X3.95Y-4.8
X4.025Y-3.025
X4.025Y-3.725
X4.15Y-4.45
X4.15Y-4.85
X4.3Y-4.6
X4.3Y-4.7
X4.3Y-4.8
X4.425Y-3.025
X4.425Y-3.725
X4.5Y-4.45
X4.5Y-4.85
X4.625Y-3.325
X4.625Y-3.725
X4.625Y-4.025
X4.625Y-4.425
X4.65Y-4.6
X4.65Y-4.7
X4.65Y-4.8
X4.85Y-4.45
X4.85Y-4.85
X5.Y-4.6
X5.Y-4.7
X5.Y-4.8
X5.1Y-5.05
X5.225Y-4.45
X5.225Y-4.85
X5.375Y-4.6
X5.375Y-4.7
X5.375Y-4.8
X5.5Y-5.05
X5.575Y-4.3
X5.6Y-4.45
X5.6Y-4.85
X5.625Y-5.05
X5.725Y-5.05
X5.75Y-4.6
X5.75Y-4.7
X5.75Y-4.8
T5
X3.425Y-4.65
X3.425Y-4.75
X3.425Y-4.85
X3.625Y-4.65
X3.625Y-4.75
X3.625Y-4.85
X4.9171Y-3.0435
X4.9171Y-3.1435
X4.9171Y-3.2435
X4.9171Y-3.3435
X4.9171Y-3.4435
X4.9171Y-3.5435
X4.9171Y-3.6435
X4.9171Y-3.7435
X4.9171Y-3.8435
X4.9171Y-3.9435
X4.9171Y-4.0435
X4.9171Y-4.1435
X5.6171Y-3.0435
X5.6171Y-3.1435
X5.6171Y-3.2435
X5.6171Y-3.3435
X5.6171Y-3.4435
X5.6171Y-3.5435
X5.6171Y-3.6435
X5.6171Y-3.7435
X5.6171Y-3.8435
X5.6171Y-3.9435
X5.6171Y-4.0435
X5.6171Y-4.1435
X5.975Y-3.05
X5.975Y-3.15
X5.975Y-3.3
X5.975Y-3.4435
X5.975Y-3.5435
X5.975Y-3.6435
X5.975Y-3.7435
X5.975Y-3.8435
X5.975Y-3.9435
X5.975Y-4.0435
X5.975Y-4.1435
X5.975Y-4.45
X5.975Y-4.625
X5.975Y-4.8
T6
X5.975Y-4.3
T7
X4.0122Y-5.0458
X4.1622Y-5.0458
X4.3122Y-5.0458
X4.6324Y-5.0471
X4.7824Y-5.0471
X4.9324Y-5.0471
T8
X3.5982Y-3.0284
X3.5982Y-3.5993
X3.5982Y-3.7896
X3.5982Y-4.3604
T9
X3.5Y-5.05
X3.85Y-2.95
X5.8Y-2.95
X5.925Y-5.05
T2
X3.5785Y-3.3227G85X3.5785Y-3.305
G05
X3.5785Y-4.0839G85X3.5785Y-4.0661
G05
X3.7064Y-3.4802G85X3.7064Y-3.4625
G05
X3.7064Y-4.2413G85X3.7064Y-4.2236
G05
X3.7557Y-3.1653G85X3.7557Y-3.1475
G05
X3.7557Y-3.9264G85X3.7557Y-3.9087
G05
T0
M30
