G04 #@! TF.FileFunction,Legend,Bot*
%FSLAX46Y46*%
G04 Gerber Fmt 4.6, Leading zero omitted, Abs format (unit mm)*
G04 Created by KiCad (PCBNEW 4.0.0-stable) date Monday, December 21, 2015 'AMt' 12:47:19 AM*
%MOMM*%
G01*
G04 APERTURE LIST*
%ADD10C,0.100000*%
%ADD11C,0.200000*%
%ADD12C,0.250000*%
%ADD13C,0.375000*%
%ADD14C,0.150000*%
G04 APERTURE END LIST*
D10*
D11*
X146756333Y-94757810D02*
X146708714Y-94710190D01*
X146565857Y-94614952D01*
X146470619Y-94567333D01*
X146327762Y-94519714D01*
X146089667Y-94472095D01*
X145899190Y-94472095D01*
X145661095Y-94519714D01*
X145518238Y-94567333D01*
X145423000Y-94614952D01*
X145280143Y-94710190D01*
X145232524Y-94757810D01*
X145470619Y-95091143D02*
X145423000Y-95138762D01*
X145375381Y-95234000D01*
X145375381Y-95472096D01*
X145423000Y-95567334D01*
X145470619Y-95614953D01*
X145565857Y-95662572D01*
X145661095Y-95662572D01*
X145803952Y-95614953D01*
X146375381Y-95043524D01*
X146375381Y-95662572D01*
X146280143Y-96091143D02*
X146327762Y-96138762D01*
X146375381Y-96091143D01*
X146327762Y-96043524D01*
X146280143Y-96091143D01*
X146375381Y-96091143D01*
X145375381Y-96757809D02*
X145375381Y-96853048D01*
X145423000Y-96948286D01*
X145470619Y-96995905D01*
X145565857Y-97043524D01*
X145756333Y-97091143D01*
X145994429Y-97091143D01*
X146184905Y-97043524D01*
X146280143Y-96995905D01*
X146327762Y-96948286D01*
X146375381Y-96853048D01*
X146375381Y-96757809D01*
X146327762Y-96662571D01*
X146280143Y-96614952D01*
X146184905Y-96567333D01*
X145994429Y-96519714D01*
X145756333Y-96519714D01*
X145565857Y-96567333D01*
X145470619Y-96614952D01*
X145423000Y-96662571D01*
X145375381Y-96757809D01*
X146756333Y-97424476D02*
X146708714Y-97472095D01*
X146565857Y-97567333D01*
X146470619Y-97614952D01*
X146327762Y-97662571D01*
X146089667Y-97710190D01*
X145899190Y-97710190D01*
X145661095Y-97662571D01*
X145518238Y-97614952D01*
X145423000Y-97567333D01*
X145280143Y-97472095D01*
X145232524Y-97424476D01*
D12*
X147661381Y-78882810D02*
X148375667Y-78882810D01*
X148518524Y-78835190D01*
X148613762Y-78739952D01*
X148661381Y-78597095D01*
X148661381Y-78501857D01*
X148661381Y-79787572D02*
X148137571Y-79787572D01*
X148042333Y-79739953D01*
X147994714Y-79644715D01*
X147994714Y-79454238D01*
X148042333Y-79359000D01*
X148613762Y-79787572D02*
X148661381Y-79692334D01*
X148661381Y-79454238D01*
X148613762Y-79359000D01*
X148518524Y-79311381D01*
X148423286Y-79311381D01*
X148328048Y-79359000D01*
X148280429Y-79454238D01*
X148280429Y-79692334D01*
X148232810Y-79787572D01*
X148613762Y-80216143D02*
X148661381Y-80311381D01*
X148661381Y-80501857D01*
X148613762Y-80597096D01*
X148518524Y-80644715D01*
X148470905Y-80644715D01*
X148375667Y-80597096D01*
X148328048Y-80501857D01*
X148328048Y-80359000D01*
X148280429Y-80263762D01*
X148185190Y-80216143D01*
X148137571Y-80216143D01*
X148042333Y-80263762D01*
X147994714Y-80359000D01*
X147994714Y-80501857D01*
X148042333Y-80597096D01*
X148661381Y-81216143D02*
X148613762Y-81120905D01*
X148566143Y-81073286D01*
X148470905Y-81025667D01*
X148185190Y-81025667D01*
X148089952Y-81073286D01*
X148042333Y-81120905D01*
X147994714Y-81216143D01*
X147994714Y-81359001D01*
X148042333Y-81454239D01*
X148089952Y-81501858D01*
X148185190Y-81549477D01*
X148470905Y-81549477D01*
X148566143Y-81501858D01*
X148613762Y-81454239D01*
X148661381Y-81359001D01*
X148661381Y-81216143D01*
X147994714Y-81978048D02*
X148661381Y-81978048D01*
X148089952Y-81978048D02*
X148042333Y-82025667D01*
X147994714Y-82120905D01*
X147994714Y-82263763D01*
X148042333Y-82359001D01*
X148137571Y-82406620D01*
X148661381Y-82406620D01*
X148661381Y-83644715D02*
X147661381Y-83644715D01*
X148375667Y-83978049D01*
X147661381Y-84311382D01*
X148661381Y-84311382D01*
X148613762Y-85168525D02*
X148661381Y-85073287D01*
X148661381Y-84882810D01*
X148613762Y-84787572D01*
X148518524Y-84739953D01*
X148137571Y-84739953D01*
X148042333Y-84787572D01*
X147994714Y-84882810D01*
X147994714Y-85073287D01*
X148042333Y-85168525D01*
X148137571Y-85216144D01*
X148232810Y-85216144D01*
X148328048Y-84739953D01*
X148661381Y-85644715D02*
X147994714Y-85644715D01*
X148185190Y-85644715D02*
X148089952Y-85692334D01*
X148042333Y-85739953D01*
X147994714Y-85835191D01*
X147994714Y-85930430D01*
X148661381Y-86406620D02*
X148613762Y-86311382D01*
X148518524Y-86263763D01*
X147661381Y-86263763D01*
X148661381Y-86930430D02*
X148613762Y-86835192D01*
X148566143Y-86787573D01*
X148470905Y-86739954D01*
X148185190Y-86739954D01*
X148089952Y-86787573D01*
X148042333Y-86835192D01*
X147994714Y-86930430D01*
X147994714Y-87073288D01*
X148042333Y-87168526D01*
X148089952Y-87216145D01*
X148185190Y-87263764D01*
X148470905Y-87263764D01*
X148566143Y-87216145D01*
X148613762Y-87168526D01*
X148661381Y-87073288D01*
X148661381Y-86930430D01*
D13*
X145347571Y-78716143D02*
X146847571Y-78716143D01*
X145419000Y-78716143D02*
X145347571Y-78859000D01*
X145347571Y-79144714D01*
X145419000Y-79287571D01*
X145490429Y-79359000D01*
X145633286Y-79430429D01*
X146061857Y-79430429D01*
X146204714Y-79359000D01*
X146276143Y-79287571D01*
X146347571Y-79144714D01*
X146347571Y-78859000D01*
X146276143Y-78716143D01*
X146347571Y-80073286D02*
X145347571Y-80073286D01*
X145633286Y-80073286D02*
X145490429Y-80144714D01*
X145419000Y-80216143D01*
X145347571Y-80359000D01*
X145347571Y-80501857D01*
X146347571Y-81216143D02*
X146276143Y-81073285D01*
X146204714Y-81001857D01*
X146061857Y-80930428D01*
X145633286Y-80930428D01*
X145490429Y-81001857D01*
X145419000Y-81073285D01*
X145347571Y-81216143D01*
X145347571Y-81430428D01*
X145419000Y-81573285D01*
X145490429Y-81644714D01*
X145633286Y-81716143D01*
X146061857Y-81716143D01*
X146204714Y-81644714D01*
X146276143Y-81573285D01*
X146347571Y-81430428D01*
X146347571Y-81216143D01*
X145347571Y-82359000D02*
X146633286Y-82359000D01*
X146776143Y-82287571D01*
X146847571Y-82144714D01*
X146847571Y-82073286D01*
X144847571Y-82359000D02*
X144919000Y-82287571D01*
X144990429Y-82359000D01*
X144919000Y-82430428D01*
X144847571Y-82359000D01*
X144990429Y-82359000D01*
X146276143Y-83644714D02*
X146347571Y-83501857D01*
X146347571Y-83216143D01*
X146276143Y-83073286D01*
X146133286Y-83001857D01*
X145561857Y-83001857D01*
X145419000Y-83073286D01*
X145347571Y-83216143D01*
X145347571Y-83501857D01*
X145419000Y-83644714D01*
X145561857Y-83716143D01*
X145704714Y-83716143D01*
X145847571Y-83001857D01*
X146276143Y-85001857D02*
X146347571Y-84859000D01*
X146347571Y-84573286D01*
X146276143Y-84430428D01*
X146204714Y-84359000D01*
X146061857Y-84287571D01*
X145633286Y-84287571D01*
X145490429Y-84359000D01*
X145419000Y-84430428D01*
X145347571Y-84573286D01*
X145347571Y-84859000D01*
X145419000Y-85001857D01*
X145347571Y-85430428D02*
X145347571Y-86001857D01*
X144847571Y-85644714D02*
X146133286Y-85644714D01*
X146276143Y-85716142D01*
X146347571Y-85859000D01*
X146347571Y-86001857D01*
X146347571Y-87644714D02*
X145347571Y-87644714D01*
X145490429Y-87644714D02*
X145419000Y-87716142D01*
X145347571Y-87859000D01*
X145347571Y-88073285D01*
X145419000Y-88216142D01*
X145561857Y-88287571D01*
X146347571Y-88287571D01*
X145561857Y-88287571D02*
X145419000Y-88359000D01*
X145347571Y-88501857D01*
X145347571Y-88716142D01*
X145419000Y-88859000D01*
X145561857Y-88930428D01*
X146347571Y-88930428D01*
X145347571Y-90287571D02*
X146347571Y-90287571D01*
X145347571Y-89644714D02*
X146133286Y-89644714D01*
X146276143Y-89716142D01*
X146347571Y-89859000D01*
X146347571Y-90073285D01*
X146276143Y-90216142D01*
X146204714Y-90287571D01*
X146276143Y-90930428D02*
X146347571Y-91073285D01*
X146347571Y-91359000D01*
X146276143Y-91501857D01*
X146133286Y-91573285D01*
X146061857Y-91573285D01*
X145919000Y-91501857D01*
X145847571Y-91359000D01*
X145847571Y-91144714D01*
X145776143Y-91001857D01*
X145633286Y-90930428D01*
X145561857Y-90930428D01*
X145419000Y-91001857D01*
X145347571Y-91144714D01*
X145347571Y-91359000D01*
X145419000Y-91501857D01*
X146276143Y-92787571D02*
X146347571Y-92644714D01*
X146347571Y-92359000D01*
X146276143Y-92216143D01*
X146133286Y-92144714D01*
X145561857Y-92144714D01*
X145419000Y-92216143D01*
X145347571Y-92359000D01*
X145347571Y-92644714D01*
X145419000Y-92787571D01*
X145561857Y-92859000D01*
X145704714Y-92859000D01*
X145847571Y-92144714D01*
D14*
X149225000Y-109220000D02*
X150241000Y-109220000D01*
X144399000Y-109220000D02*
X143129000Y-109220000D01*
X144653000Y-110490000D02*
X144653000Y-107950000D01*
X144907000Y-110490000D02*
X144907000Y-107950000D01*
X145161000Y-110490000D02*
X145161000Y-107950000D01*
X144399000Y-110490000D02*
X144399000Y-107950000D01*
X145415000Y-110490000D02*
X144145000Y-107950000D01*
X144145000Y-110490000D02*
X145415000Y-107950000D01*
X145415000Y-110490000D02*
X145415000Y-107950000D01*
X144780000Y-110490000D02*
X144780000Y-107950000D01*
X144145000Y-107950000D02*
X144145000Y-110490000D01*
X144145000Y-110490000D02*
X149225000Y-110490000D01*
X149225000Y-110490000D02*
X149225000Y-107950000D01*
X149225000Y-107950000D02*
X144145000Y-107950000D01*
X123575000Y-88675000D02*
X123575000Y-83595000D01*
X123575000Y-83595000D02*
X121035000Y-83595000D01*
X121035000Y-83595000D02*
X121035000Y-88675000D01*
X121035000Y-88675000D02*
X123575000Y-88675000D01*
X122305000Y-88675000D02*
X122305000Y-89945000D01*
X122305000Y-83595000D02*
X122305000Y-82325000D01*
X121035000Y-96275000D02*
X121035000Y-101355000D01*
X121035000Y-101355000D02*
X123575000Y-101355000D01*
X123575000Y-101355000D02*
X123575000Y-96275000D01*
X123575000Y-96275000D02*
X121035000Y-96275000D01*
X122305000Y-96275000D02*
X122305000Y-95005000D01*
X122305000Y-101355000D02*
X122305000Y-102625000D01*
X134085000Y-105010000D02*
X133510000Y-105010000D01*
X134085000Y-99460000D02*
X133510000Y-99460000D01*
X127535000Y-99460000D02*
X128110000Y-99460000D01*
X127535000Y-105010000D02*
X128110000Y-105010000D01*
X134085000Y-105010000D02*
X134085000Y-99460000D01*
X127535000Y-105010000D02*
X127535000Y-99460000D01*
X133510000Y-105010000D02*
X133510000Y-106285000D01*
X147423095Y-112212381D02*
X147423095Y-111212381D01*
X147185000Y-111212381D01*
X147042142Y-111260000D01*
X146946904Y-111355238D01*
X146899285Y-111450476D01*
X146851666Y-111640952D01*
X146851666Y-111783810D01*
X146899285Y-111974286D01*
X146946904Y-112069524D01*
X147042142Y-112164762D01*
X147185000Y-112212381D01*
X147423095Y-112212381D01*
X145899285Y-112212381D02*
X146470714Y-112212381D01*
X146185000Y-112212381D02*
X146185000Y-111212381D01*
X146280238Y-111355238D01*
X146375476Y-111450476D01*
X146470714Y-111498095D01*
X125297381Y-85968334D02*
X124821190Y-85635000D01*
X125297381Y-85396905D02*
X124297381Y-85396905D01*
X124297381Y-85777858D01*
X124345000Y-85873096D01*
X124392619Y-85920715D01*
X124487857Y-85968334D01*
X124630714Y-85968334D01*
X124725952Y-85920715D01*
X124773571Y-85873096D01*
X124821190Y-85777858D01*
X124821190Y-85396905D01*
X125297381Y-86920715D02*
X125297381Y-86349286D01*
X125297381Y-86635000D02*
X124297381Y-86635000D01*
X124440238Y-86539762D01*
X124535476Y-86444524D01*
X124583095Y-86349286D01*
X120217381Y-98648334D02*
X119741190Y-98315000D01*
X120217381Y-98076905D02*
X119217381Y-98076905D01*
X119217381Y-98457858D01*
X119265000Y-98553096D01*
X119312619Y-98600715D01*
X119407857Y-98648334D01*
X119550714Y-98648334D01*
X119645952Y-98600715D01*
X119693571Y-98553096D01*
X119741190Y-98457858D01*
X119741190Y-98076905D01*
X119312619Y-99029286D02*
X119265000Y-99076905D01*
X119217381Y-99172143D01*
X119217381Y-99410239D01*
X119265000Y-99505477D01*
X119312619Y-99553096D01*
X119407857Y-99600715D01*
X119503095Y-99600715D01*
X119645952Y-99553096D01*
X120217381Y-98981667D01*
X120217381Y-99600715D01*
X136270905Y-101687381D02*
X136270905Y-102496905D01*
X136223286Y-102592143D01*
X136175667Y-102639762D01*
X136080429Y-102687381D01*
X135889952Y-102687381D01*
X135794714Y-102639762D01*
X135747095Y-102592143D01*
X135699476Y-102496905D01*
X135699476Y-101687381D01*
X135318524Y-101687381D02*
X134699476Y-101687381D01*
X135032810Y-102068333D01*
X134889952Y-102068333D01*
X134794714Y-102115952D01*
X134747095Y-102163571D01*
X134699476Y-102258810D01*
X134699476Y-102496905D01*
X134747095Y-102592143D01*
X134794714Y-102639762D01*
X134889952Y-102687381D01*
X135175667Y-102687381D01*
X135270905Y-102639762D01*
X135318524Y-102592143D01*
M02*
