G04 #@! TF.FileFunction,Soldermask,Top*
%FSLAX46Y46*%
G04 Gerber Fmt 4.6, Leading zero omitted, Abs format (unit mm)*
G04 Created by KiCad (PCBNEW (2015-09-17 BZR 6202)-product) date Wednesday, September 23, 2015 'AMt' 01:30:27 AM*
%MOMM*%
G01*
G04 APERTURE LIST*
%ADD10C,0.100000*%
%ADD11C,4.464000*%
%ADD12R,2.635200X2.635200*%
%ADD13R,2.432000X2.127200*%
%ADD14O,2.432000X2.127200*%
%ADD15R,1.700000X1.700000*%
%ADD16C,1.700000*%
%ADD17C,2.398980*%
%ADD18R,2.398980X2.398980*%
%ADD19R,2.432000X2.432000*%
%ADD20O,2.432000X2.432000*%
%ADD21O,2.700000X2.000000*%
%ADD22O,2.900000X2.000000*%
%ADD23O,5.400000X2.500000*%
%ADD24R,2.400000X2.400000*%
%ADD25C,2.400000*%
%ADD26O,3.900120X2.099260*%
G04 APERTURE END LIST*
D10*
D11*
X150495000Y-128270000D03*
X88900000Y-128270000D03*
D12*
X101911143Y-128163701D03*
D11*
X97790000Y-74930000D03*
D13*
X124894362Y-77305728D03*
D14*
X124894362Y-79845728D03*
X124894362Y-82385728D03*
X124894362Y-84925728D03*
X124894362Y-87465728D03*
X124894362Y-90005728D03*
X124894362Y-92545728D03*
X124894362Y-95085728D03*
X124894362Y-97625728D03*
X124894362Y-100165728D03*
X124894362Y-102705728D03*
X124894362Y-105245728D03*
D13*
X142674362Y-77305728D03*
D14*
X142674362Y-92545728D03*
X142674362Y-95085728D03*
X142674362Y-90005728D03*
X142674362Y-97625728D03*
X142674362Y-84925728D03*
X142674362Y-82385728D03*
X142674362Y-79845728D03*
X142674362Y-87465728D03*
X142674362Y-102705728D03*
X142674362Y-100165728D03*
X142674362Y-105245728D03*
D15*
X114935000Y-89535000D03*
D16*
X119935000Y-89535000D03*
D15*
X114935000Y-107315000D03*
D16*
X119935000Y-107315000D03*
D15*
X115015000Y-81915000D03*
D16*
X120015000Y-81915000D03*
D15*
X115015000Y-99695000D03*
D16*
X120015000Y-99695000D03*
D15*
X114935000Y-86995000D03*
D16*
X119935000Y-86995000D03*
D15*
X114935000Y-104775000D03*
D16*
X119935000Y-104775000D03*
D15*
X99695000Y-84455000D03*
D16*
X99695000Y-79455000D03*
D15*
X99695000Y-102235000D03*
D16*
X99695000Y-97235000D03*
D17*
X151765000Y-109220000D03*
D18*
X141605000Y-109220000D03*
D12*
X117663459Y-128195719D03*
X121473459Y-128195719D03*
X105721143Y-128163701D03*
X125283459Y-128195719D03*
X109531143Y-128163701D03*
D13*
X86995000Y-123190000D03*
D14*
X86995000Y-120650000D03*
X86995000Y-118110000D03*
D13*
X92075000Y-123190000D03*
D14*
X92075000Y-120650000D03*
X92075000Y-118110000D03*
D12*
X151765000Y-121920000D03*
X151765000Y-113030000D03*
X151765000Y-117475000D03*
X151765000Y-83820000D03*
D13*
X151765000Y-105245728D03*
D14*
X151765000Y-102705728D03*
X151765000Y-100165728D03*
X151765000Y-97625728D03*
X151765000Y-95085728D03*
X151765000Y-92545728D03*
X151765000Y-90005728D03*
X151765000Y-87465728D03*
D17*
X117475000Y-94615000D03*
X117475000Y-84455000D03*
X117475000Y-112395000D03*
X117475000Y-102235000D03*
X112395000Y-76835000D03*
X102235000Y-76835000D03*
X112395000Y-94615000D03*
X102235000Y-94615000D03*
X129540000Y-128270000D03*
X139700000Y-128270000D03*
X123190000Y-123190000D03*
X123190000Y-113030000D03*
X96520000Y-123190000D03*
X96520000Y-113030000D03*
X132715000Y-123190000D03*
X132715000Y-113030000D03*
X105410000Y-123190000D03*
X105410000Y-113030000D03*
X142240000Y-123190000D03*
X142240000Y-113030000D03*
X114300000Y-123190000D03*
X114300000Y-113030000D03*
D19*
X151765000Y-77470000D03*
D20*
X151765000Y-80010000D03*
D21*
X103505000Y-81915000D03*
X103505000Y-84455000D03*
X103505000Y-86995000D03*
X103505000Y-89535000D03*
X111125000Y-89535000D03*
X111125000Y-86995000D03*
X111125000Y-84455000D03*
X111125000Y-81915000D03*
X103505000Y-99695000D03*
X103505000Y-102235000D03*
X103505000Y-104775000D03*
X103505000Y-107315000D03*
X111125000Y-107315000D03*
X111125000Y-104775000D03*
X111125000Y-102235000D03*
X111125000Y-99695000D03*
D22*
X94143607Y-88172355D03*
X95393607Y-80172355D03*
D23*
X91393607Y-76922355D03*
X91393607Y-91422355D03*
D22*
X90893607Y-84172355D03*
X94143607Y-106482355D03*
X95393607Y-98482355D03*
D23*
X91393607Y-95232355D03*
X91393607Y-109732355D03*
D22*
X90893607Y-102482355D03*
D24*
X142875000Y-128270000D03*
D25*
X145415000Y-128270000D03*
D26*
X100330000Y-119380000D03*
X100330000Y-116840000D03*
X100330000Y-121920000D03*
X109220000Y-119380000D03*
X109220000Y-116840000D03*
X109220000Y-121920000D03*
X118110000Y-119380000D03*
X118110000Y-116840000D03*
X118110000Y-121920000D03*
X127000000Y-119380000D03*
X127000000Y-116840000D03*
X127000000Y-121920000D03*
X136525000Y-119380000D03*
X136525000Y-116840000D03*
X136525000Y-121920000D03*
X146050000Y-119380000D03*
X146050000Y-116840000D03*
X146050000Y-121920000D03*
D11*
X147320000Y-74930000D03*
M02*
